<?xml version="1.0" encoding="utf-8"?>
<svg version="1.2" xmlns="http://www.w3.org/2000/svg" viewBox="0 0 890 442" width="302" height="150">
	<title>Steps-Desktop-svg</title>
	<defs>
		<clipPath clipPathUnits="userSpaceOnUse" id="cp1">
			<path d="m692.73 92.63h142.52v95.53h-142.52z"/>
		</clipPath>
		<clipPath clipPathUnits="userSpaceOnUse" id="cp2">
			<path d="m386.53 249.81h142.52v95.53h-142.52z"/>
		</clipPath>
		<clipPath clipPathUnits="userSpaceOnUse" id="cp3">
			<path d="m64.15 92.64h142.52v95.53h-142.52z"/>
		</clipPath>
		<clipPath clipPathUnits="userSpaceOnUse" id="cp4">
			<path d="m43.46 43.79h191.52v118.07h-191.52z"/>
		</clipPath>
		<clipPath clipPathUnits="userSpaceOnUse" id="cp5">
			<path d="m100.44 76.78h82.46v47.67h-82.46z"/>
		</clipPath>
		<clipPath clipPathUnits="userSpaceOnUse" id="cp6">
			<path d="m365 201.83h191.52v118.07h-191.52z"/>
		</clipPath>
		<clipPath clipPathUnits="userSpaceOnUse" id="cp7">
			<path d="m664.4 50.79h191.52v118.07h-191.52z"/>
		</clipPath>
	</defs>
	<style>
		.s0 { fill: none;stroke: #f4f4f4;stroke-miterlimit:10;stroke-width: 36.6 } 
		.s1 { fill: #192b40 } 
		.s2 { fill: none } 
		.s3 { fill: #7620bb } 
		.s4 { fill: #721fb5 } 
		.s5 { fill: #f3eff9 } 
		.s6 { fill: #000000 } 
		.s7 { fill: #fcdc41 } 
	</style>
	<g id="Group_41885">
		<g id="Group_39880" style="opacity: .3">
			<g id="Clip-Path" clip-path="url(#cp1)">
				<g id="Layer">
					<g id="Group_39879">
					</g>
				</g>
			</g>
		</g>
		<g id="Group_40802" style="opacity: .3">
			<g id="Clip-Path" clip-path="url(#cp2)">
				<g id="Layer">
					<g id="Group_39879-2">
					</g>
				</g>
			</g>
		</g>
		<g id="Group_40803" style="opacity: .3">
			<g id="Clip-Path" clip-path="url(#cp3)">
				<g id="Layer">
					<g id="Group_39879-3">
					</g>
				</g>
			</g>
		</g>
		<path id="Path_78052" fill-rule="evenodd" class="s0" d="m143.6 118.9l152.7 74.4 164.7 80.2 299.6-154.6"/>
		<g id="Document_submission_Verification">
			<g id="Layer">
				<path id="Layer" fill-rule="evenodd" class="s1" d="m358.1 372.6q0.3 0.2 0.6 0.4 0.3 0.2 0.6 0.5 0.2 0.3 0.4 0.5 0.3 0.3 0.4 0.6 0.2 0.4 0.4 0.8 0.1 0.3 0.2 0.7 0.1 0.4 0.1 0.8 0.1 0.4 0.1 0.7 0 0.4-0.1 0.8 0 0.4-0.1 0.8-0.1 0.3-0.2 0.7-0.2 0.3-0.4 0.7-0.1 0.3-0.4 0.6-0.2 0.3-0.4 0.5-0.3 0.3-0.6 0.5-0.3 0.2-0.6 0.3-0.4 0.2-0.8 0.3-0.3 0.2-0.7 0.3-0.4 0-0.8 0.1-0.4 0-0.8 0h-3.9v-11.2h3.9q0.4 0 0.8 0 0.4 0.1 0.8 0.1 0.4 0.1 0.7 0.3 0.4 0.1 0.8 0.2zm-0.5 7.7q0.3-0.3 0.5-0.6 0.2-0.3 0.3-0.7 0.1-0.3 0.2-0.7 0-0.4 0-0.7 0-0.4 0-0.8-0.1-0.3-0.2-0.7-0.1-0.3-0.3-0.7-0.2-0.3-0.5-0.6-0.3-0.2-0.6-0.4-0.3-0.2-0.6-0.3-0.4-0.2-0.8-0.2-0.3-0.1-0.7-0.1h-1.6v7.4h1.6q0.4 0 0.7 0 0.4-0.1 0.8-0.2 0.3-0.1 0.6-0.3 0.3-0.2 0.6-0.4z"/>
				<path id="Layer" fill-rule="evenodd" class="s1" d="m365.3 382.7q-0.3-0.1-0.5-0.3-0.2-0.2-0.4-0.4-0.3-0.2-0.4-0.4-0.2-0.2-0.3-0.5-0.2-0.3-0.3-0.6-0.1-0.3-0.2-0.6-0.1-0.3-0.1-0.6 0-0.3 0-0.6 0-0.3 0-0.6 0-0.3 0.1-0.6 0.1-0.3 0.2-0.6 0.1-0.3 0.3-0.6 0.1-0.3 0.3-0.5 0.2-0.2 0.4-0.4 0.2-0.2 0.4-0.4 0.3-0.2 0.5-0.3 0.3-0.2 0.6-0.3 0.3-0.1 0.5-0.1 0.3-0.1 0.6-0.1 0.3-0.1 0.6-0.1 0.3 0 0.6 0.1 0.3 0 0.6 0.1 0.3 0 0.6 0.1 0.3 0.1 0.6 0.3 0.2 0.1 0.4 0.3 0.3 0.2 0.5 0.4 0.2 0.2 0.4 0.4 0.2 0.2 0.3 0.5 0.2 0.3 0.3 0.6 0.1 0.3 0.2 0.6 0 0.3 0.1 0.6 0 0.3 0 0.6 0 0.3 0 0.6-0.1 0.3-0.1 0.6-0.1 0.3-0.2 0.6-0.2 0.3-0.3 0.6-0.2 0.3-0.3 0.5-0.2 0.2-0.4 0.4-0.2 0.2-0.5 0.4-0.2 0.2-0.5 0.3-0.2 0.2-0.5 0.3-0.3 0.1-0.6 0.1-0.3 0.1-0.6 0.2-0.3 0-0.6 0-0.3 0-0.6 0-0.3-0.1-0.6-0.2-0.3 0-0.6-0.1-0.3-0.1-0.5-0.3zm3.4-1.7q0.2 0 0.3-0.1 0.1-0.1 0.2-0.3 0.1-0.1 0.2-0.2 0.1-0.1 0.2-0.3 0.1-0.1 0.1-0.3 0.1-0.2 0.1-0.4 0.1-0.1 0.1-0.3 0-0.2 0-0.4 0-0.3 0-0.5-0.1-0.3-0.1-0.5-0.1-0.3-0.3-0.5-0.1-0.2-0.3-0.4-0.1-0.2-0.3-0.3-0.2-0.2-0.4-0.3-0.2 0-0.4-0.1-0.3 0-0.5 0-0.2 0-0.4 0-0.3 0.1-0.5 0.1-0.2 0.1-0.4 0.3-0.1 0.1-0.3 0.3-0.2 0.2-0.3 0.4-0.1 0.2-0.2 0.5-0.1 0.2-0.1 0.5-0.1 0.2-0.1 0.5 0 0.3 0.1 0.5 0 0.3 0.1 0.5 0.1 0.3 0.2 0.5 0.1 0.2 0.3 0.4 0.1 0.2 0.3 0.3 0.2 0.2 0.4 0.3 0.2 0.1 0.4 0.1 0.2 0 0.5 0 0.1 0 0.3 0 0.1 0 0.3-0.1 0.1 0 0.3-0.1 0.1 0 0.2-0.1z"/>
				<path id="Layer" class="s1" d="m374.9 376.3q0.2-0.3 0.3-0.5 0.2-0.2 0.4-0.4 0.2-0.2 0.4-0.4 0.2-0.2 0.5-0.3 0.2-0.2 0.5-0.3 0.3-0.1 0.6-0.1 0.3-0.1 0.6-0.1 0.2-0.1 0.5-0.1 0.4 0 0.8 0.1 0.3 0 0.7 0.1 0.3 0.1 0.6 0.3 0.4 0.1 0.7 0.3 0.2 0.3 0.5 0.5 0.2 0.3 0.4 0.6 0.2 0.3 0.3 0.6 0.1 0.3 0.2 0.7h-2.4q0-0.2-0.1-0.3-0.1-0.1-0.2-0.2 0-0.2-0.1-0.3-0.1-0.1-0.2-0.1-0.2-0.1-0.3-0.2-0.1-0.1-0.3-0.1-0.1 0-0.3-0.1-0.1 0-0.3 0-0.2 0-0.4 0.1-0.2 0-0.4 0.1-0.2 0.1-0.4 0.2-0.2 0.2-0.3 0.3-0.3 0.5-0.4 1-0.2 0.5-0.2 1 0 0.5 0.2 1 0.1 0.5 0.4 1 0.1 0.1 0.3 0.3 0.2 0.1 0.4 0.2 0.2 0.1 0.4 0.1 0.2 0.1 0.4 0.1 0.3 0 0.6-0.1 0.3-0.1 0.5-0.2 0.3-0.2 0.4-0.4 0.2-0.3 0.3-0.6h2.4q-0.1 0.4-0.2 0.7-0.1 0.3-0.3 0.6-0.2 0.3-0.4 0.6-0.3 0.2-0.5 0.4-0.3 0.2-0.7 0.4-0.3 0.2-0.6 0.3-0.4 0.1-0.7 0.1-0.4 0.1-0.8 0.1-0.3 0-0.6 0-0.2-0.1-0.5-0.2-0.3 0-0.6-0.1-0.3-0.1-0.5-0.3-0.3-0.1-0.5-0.3-0.2-0.2-0.4-0.4-0.2-0.2-0.4-0.4-0.1-0.2-0.3-0.5-0.3-0.6-0.4-1.2-0.1-0.6-0.1-1.2 0-0.6 0.1-1.2 0.1-0.6 0.4-1.2z"/>
				<path id="Layer" class="s1" d="m394 374.3v8.8h-2.3v-1.1q-0.1 0.1-0.2 0.3-0.1 0.1-0.3 0.2-0.1 0.1-0.3 0.2-0.1 0.1-0.3 0.2-0.2 0.1-0.3 0.2-0.2 0-0.4 0.1-0.2 0-0.4 0-0.2 0-0.4 0-0.2 0-0.5 0-0.2 0-0.4-0.1-0.3 0-0.5-0.1-0.2-0.1-0.4-0.2-0.2-0.1-0.4-0.3-0.2-0.1-0.4-0.3-0.1-0.1-0.3-0.3-0.1-0.2-0.2-0.4-0.1-0.2-0.2-0.5-0.1-0.2-0.1-0.5-0.1-0.2-0.1-0.5-0.1-0.2 0-0.5v-5.2h2.2v4.9q0 0.2 0 0.4 0 0.2 0.1 0.4 0.1 0.2 0.2 0.4 0.1 0.2 0.2 0.4 0.2 0.1 0.3 0.3 0.2 0.1 0.4 0.1 0.2 0.1 0.4 0.1 0.2 0.1 0.4 0.1 0.2 0 0.4-0.1 0.2 0 0.4-0.1 0.1 0 0.3-0.1 0.2-0.2 0.3-0.3 0.2-0.2 0.3-0.4 0.1-0.2 0.1-0.4 0.1-0.2 0.1-0.4 0.1-0.2 0-0.4v-4.9z"/>
				<path id="Layer" class="s1" d="m411 375.1q0.3 0.3 0.5 0.6 0.2 0.4 0.3 0.7 0.1 0.4 0.2 0.8 0 0.3 0 0.7v5.2h-2.2v-4.9q0-0.2-0.1-0.4 0-0.2 0-0.4-0.1-0.2-0.2-0.4-0.1-0.2-0.3-0.3-0.1-0.2-0.3-0.3-0.1-0.1-0.3-0.2-0.2-0.1-0.4-0.1-0.2 0-0.4 0-0.2 0-0.4 0-0.2 0-0.4 0.1-0.2 0.1-0.3 0.2-0.2 0.1-0.4 0.3-0.1 0.1-0.2 0.3-0.1 0.2-0.2 0.4-0.1 0.2-0.1 0.4 0 0.2 0 0.4v4.9h-2.2v-4.9q0-0.2 0-0.4-0.1-0.2-0.1-0.4-0.1-0.2-0.2-0.4-0.1-0.2-0.3-0.3-0.1-0.2-0.3-0.3-0.1-0.1-0.3-0.2-0.2-0.1-0.4-0.1-0.2 0-0.4 0-0.2 0-0.4 0-0.2 0-0.4 0.1-0.2 0.1-0.4 0.2-0.1 0.1-0.3 0.3-0.1 0.1-0.2 0.3-0.1 0.2-0.2 0.4-0.1 0.2-0.1 0.4 0 0.2 0 0.4v4.9h-2.2v-8.8h2.2v1q0.1-0.1 0.2-0.2 0.2-0.2 0.3-0.3 0.1-0.1 0.3-0.2 0.1-0.1 0.3-0.1 0.2-0.1 0.4-0.2 0.1 0 0.3-0.1 0.2 0 0.4 0 0.2-0.1 0.4-0.1 0.2 0 0.5 0.1 0.2 0 0.5 0 0.2 0.1 0.4 0.2 0.2 0.1 0.5 0.2 0.2 0.1 0.3 0.2 0.2 0.2 0.4 0.3 0.1 0.2 0.3 0.4 0.1 0.1 0.2 0.3 0.1-0.2 0.3-0.3 0.1-0.2 0.3-0.4 0.1-0.1 0.3-0.3 0.2-0.1 0.4-0.2 0.2-0.1 0.4-0.2 0.2-0.1 0.4-0.1 0.3-0.1 0.5-0.1 0.2-0.1 0.5-0.1 0.3 0 0.7 0.1 0.3 0 0.7 0.2 0.3 0.1 0.6 0.3 0.3 0.2 0.6 0.4z"/>
				<path id="Layer" fill-rule="evenodd" class="s1" d="m423.4 379.4h-6.5q0 0.2 0 0.4 0.1 0.2 0.2 0.4 0 0.2 0.2 0.4 0.1 0.1 0.2 0.3 0.2 0.1 0.4 0.2 0.1 0.1 0.3 0.2 0.2 0.1 0.4 0.1 0.2 0 0.4 0 0.3 0 0.5 0 0.3-0.1 0.6-0.2 0.2-0.2 0.4-0.4 0.2-0.2 0.3-0.4h2.4q-0.1 0.3-0.2 0.6-0.2 0.3-0.4 0.5-0.2 0.3-0.4 0.5-0.2 0.3-0.5 0.5-0.3 0.2-0.6 0.3-0.3 0.2-0.7 0.3-0.3 0.1-0.6 0.1-0.4 0.1-0.8 0.1-0.3 0-0.6 0-0.3-0.1-0.5-0.2-0.3 0-0.6-0.1-0.3-0.1-0.5-0.3-0.3-0.1-0.5-0.3-0.3-0.2-0.5-0.4-0.2-0.2-0.3-0.4-0.2-0.2-0.3-0.5-0.2-0.3-0.3-0.6-0.1-0.3-0.2-0.6 0-0.3-0.1-0.6 0-0.3 0-0.6 0-0.3 0-0.6 0.1-0.3 0.1-0.6 0.1-0.3 0.2-0.6 0.1-0.3 0.3-0.6 0.1-0.3 0.3-0.5 0.1-0.2 0.3-0.4 0.2-0.2 0.4-0.4 0.3-0.2 0.5-0.3 0.6-0.3 1.1-0.4 0.6-0.2 1.2-0.2 0.6 0 1.2 0.2 0.6 0.1 1.1 0.4 0.3 0.1 0.5 0.3 0.2 0.2 0.4 0.3 0.2 0.2 0.4 0.5 0.1 0.2 0.3 0.4 0.1 0.3 0.2 0.6 0.1 0.3 0.2 0.5 0.1 0.3 0.1 0.6 0 0.3 0 0.6 0 0.1 0 0.2 0 0.1 0 0.3 0 0.1 0 0.2 0 0.1 0 0.2zm-2.3-1.5q0-0.2 0-0.4-0.1-0.2-0.2-0.4 0-0.2-0.2-0.3-0.1-0.2-0.2-0.3-0.2-0.1-0.4-0.2-0.1-0.1-0.3-0.2-0.2-0.1-0.4-0.1-0.2 0-0.4 0-0.2 0-0.4 0-0.2 0.1-0.3 0.1-0.2 0.1-0.4 0.2-0.2 0.1-0.3 0.2-0.1 0.1-0.3 0.3-0.1 0.2-0.2 0.3-0.1 0.2-0.1 0.4-0.1 0.2-0.1 0.4z"/>
				<path id="Layer" class="s1" d="m433.6 375.1q0.3 0.3 0.5 0.6 0.2 0.4 0.3 0.7 0.1 0.4 0.2 0.8 0 0.3 0 0.7v5.2h-2.2v-4.9q0-0.2-0.1-0.4 0-0.2 0-0.4-0.1-0.2-0.2-0.4-0.1-0.2-0.3-0.4-0.1-0.1-0.3-0.2-0.1-0.2-0.3-0.2-0.2-0.1-0.4-0.1-0.2-0.1-0.4-0.1-0.2 0-0.4 0.1-0.2 0-0.4 0.1-0.2 0-0.4 0.2-0.1 0.1-0.3 0.2-0.1 0.2-0.2 0.4-0.1 0.2-0.2 0.4-0.1 0.2-0.1 0.4 0 0.2 0 0.4v4.9h-2.2v-8.8h2.2v1.1q0.1-0.2 0.2-0.3 0.2-0.1 0.3-0.2 0.2-0.2 0.3-0.3 0.2-0.1 0.3-0.1 0.2-0.1 0.4-0.2 0.2 0 0.4-0.1 0.2 0 0.4 0 0.2-0.1 0.4-0.1 0.3 0 0.7 0.1 0.3 0 0.6 0.2 0.4 0.1 0.7 0.3 0.3 0.2 0.5 0.4z"/>
				<path id="Layer" class="s1" d="m440.4 376.1v4.3q0 0.1 0 0.2 0 0.1 0 0.1 0.1 0.1 0.1 0.2 0.1 0.1 0.1 0.1 0.1 0.1 0.2 0.1 0.1 0.1 0.2 0.1 0.1 0 0.2 0.1 0.1 0 0.2-0.1h1v1.9h-1.4q-2.8 0-2.8-2.7v-4.3h-1.1v-1.8h1.1v-2.2h2.2v2.2h2v1.8z"/>
				<path id="Layer" class="s1" d="m451.4 382.9q-0.2-0.1-0.4-0.2-0.1-0.1-0.3-0.3-0.2-0.1-0.4-0.3-0.1-0.1-0.2-0.3-0.2-0.1-0.3-0.3-0.1-0.2-0.1-0.4-0.1-0.2-0.1-0.4-0.1-0.2-0.1-0.4h2.3q0 0.2 0 0.3 0.1 0.1 0.1 0.2 0.1 0.1 0.2 0.2 0.1 0.1 0.2 0.2 0.2 0.1 0.5 0.2 0.2 0.1 0.5 0.1 0.3 0 0.5 0 0.3-0.1 0.6-0.2 0-0.1 0.1-0.2 0.1 0 0.1-0.1 0.1-0.1 0.1-0.2 0-0.1 0-0.2 0-0.1 0-0.2 0-0.1-0.1-0.2-0.1-0.1-0.1-0.1-0.1-0.1-0.2-0.1-0.2-0.1-0.4-0.2-0.1-0.1-0.3-0.1-0.2-0.1-0.4-0.1-0.1-0.1-0.3-0.1-0.2-0.1-0.4-0.1-0.2-0.1-0.4-0.1-0.2-0.1-0.4-0.2-0.2 0-0.4-0.1-0.2-0.1-0.3-0.2-0.2 0-0.3-0.1-0.2-0.1-0.3-0.2-0.1-0.2-0.2-0.3-0.1-0.1-0.2-0.3-0.1-0.2-0.2-0.4 0-0.1-0.1-0.3 0-0.2 0-0.4 0-0.2 0-0.4 0.1-0.2 0.1-0.3 0.1-0.2 0.2-0.4 0-0.1 0.1-0.3 0.2-0.1 0.3-0.3 0.1-0.1 0.3-0.2 0.1-0.2 0.3-0.3 0.2-0.1 0.4-0.2 0.2-0.1 0.4-0.1 0.2-0.1 0.5-0.1 0.2-0.1 0.4-0.1 0.3 0 0.5 0 0.4 0 0.7 0 0.3 0.1 0.7 0.2 0.3 0.1 0.6 0.2 0.3 0.2 0.6 0.4 0.2 0.2 0.4 0.4 0.1 0.3 0.3 0.5 0.1 0.3 0.2 0.6 0 0.3 0.1 0.6h-2.2q0-0.1 0-0.2-0.1-0.1-0.1-0.3-0.1-0.1-0.2-0.2 0-0.1-0.1-0.1-0.1-0.1-0.3-0.2-0.1 0-0.2-0.1-0.1 0-0.3 0-0.1 0-0.2 0-0.2 0-0.3 0-0.1 0-0.2 0-0.1 0-0.3 0.1-0.1 0-0.2 0.1-0.1 0-0.1 0.1-0.1 0.1-0.1 0.2-0.1 0-0.1 0.1 0 0.1 0 0.2 0 0.1 0 0.2 0.1 0.1 0.1 0.2 0.1 0.1 0.2 0.2 0 0 0.1 0.1 0.2 0.1 0.4 0.1 0.1 0.1 0.3 0.2 0.2 0 0.4 0.1 0.2 0 0.3 0.1 0.2 0 0.4 0.1 0.2 0 0.4 0.1 0.2 0 0.4 0.1 0.2 0.1 0.4 0.2 0.2 0 0.3 0.1 0.2 0.1 0.3 0.2 0.1 0.1 0.3 0.2 0.1 0.1 0.2 0.3 0.1 0.1 0.2 0.3 0.1 0.1 0.2 0.3 0 0.2 0 0.4 0.1 0.2 0.1 0.4 0 0.2-0.1 0.3 0 0.2 0 0.4-0.1 0.2-0.2 0.3-0.1 0.2-0.2 0.3-0.1 0.2-0.2 0.3-0.1 0.2-0.3 0.3-0.2 0.1-0.3 0.2-0.2 0.1-0.4 0.2-0.4 0.2-0.9 0.3-0.5 0.1-1 0.1-0.5 0-0.9-0.1-0.5-0.1-1-0.3z"/>
				<path id="Layer" class="s1" d="m468.2 374.3v8.8h-2.3v-1.1q-0.1 0.1-0.2 0.3-0.2 0.1-0.3 0.2-0.1 0.1-0.3 0.2-0.2 0.1-0.3 0.2-0.2 0.1-0.4 0.2-0.2 0-0.4 0.1-0.1 0-0.3 0-0.2 0-0.4 0-0.3 0-0.5 0-0.2 0-0.5-0.1-0.2 0-0.4-0.1-0.3-0.1-0.5-0.2-0.2-0.1-0.4-0.3-0.1-0.1-0.3-0.3-0.2-0.1-0.3-0.3-0.1-0.2-0.2-0.4-0.1-0.2-0.2-0.5-0.1-0.2-0.2-0.5 0-0.2-0.1-0.5 0-0.2 0-0.5v-5.2h2.3v4.9q0 0.2 0 0.4 0 0.2 0.1 0.4 0.1 0.2 0.2 0.4 0.1 0.2 0.2 0.4 0.3 0.3 0.7 0.4 0.4 0.2 0.8 0.2 0.4 0 0.7-0.2 0.4-0.1 0.7-0.4 0.2-0.2 0.3-0.4 0.1-0.2 0.1-0.4 0.1-0.2 0.1-0.4 0.1-0.2 0-0.4v-4.9z"/>
				<path id="Layer" fill-rule="evenodd" class="s1" d="m474.9 374.5q0.2-0.1 0.4-0.1 0.2-0.1 0.4-0.2 0.3 0 0.5-0.1 0.2 0 0.4 0 0.3 0 0.6 0.1 0.2 0 0.5 0.1 0.3 0 0.5 0.1 0.3 0.1 0.5 0.3 0.2 0.1 0.4 0.3 0.2 0.2 0.4 0.4 0.2 0.2 0.4 0.4 0.1 0.2 0.2 0.5 0.2 0.3 0.3 0.5 0.1 0.3 0.2 0.6 0 0.3 0 0.7 0.1 0.3 0.1 0.6 0 0.3-0.1 0.6 0 0.3 0 0.6-0.1 0.3-0.2 0.6-0.1 0.3-0.3 0.6-0.1 0.2-0.2 0.5-0.2 0.2-0.4 0.4-0.2 0.2-0.4 0.4-0.2 0.2-0.4 0.3-0.4 0.3-0.9 0.4-0.5 0.1-1 0.2-0.5 0-1-0.1-0.5-0.1-0.9-0.3-0.2-0.1-0.3-0.2-0.2-0.1-0.4-0.2-0.1-0.2-0.2-0.3-0.2-0.2-0.3-0.3v1.2h-2.2v-11.8h2.2v4.3q0.1-0.2 0.2-0.3 0.2-0.2 0.3-0.3 0.2-0.2 0.3-0.3 0.2-0.1 0.4-0.2zm3.2 2.8q-0.1-0.1-0.2-0.3-0.1-0.1-0.2-0.2-0.1-0.1-0.2-0.2-0.2-0.1-0.3-0.2-0.1-0.1-0.3-0.1-0.1-0.1-0.3-0.1-0.1-0.1-0.3-0.1-0.1 0-0.3 0-0.3 0-0.6 0.1-0.3 0.1-0.5 0.2-0.3 0.2-0.5 0.4-0.2 0.2-0.4 0.5-0.1 0.3-0.2 0.7-0.1 0.3-0.1 0.7 0 0.4 0.1 0.7 0.1 0.4 0.2 0.7 0.1 0.1 0.2 0.3 0.1 0.1 0.2 0.2 0.1 0.1 0.2 0.2 0.2 0.1 0.3 0.2 0.1 0.1 0.3 0.1 0.1 0.1 0.3 0.1 0.1 0.1 0.2 0.1 0.2 0 0.3 0 0.2 0 0.4 0 0.1 0 0.3-0.1 0.1 0 0.2-0.1 0.2 0 0.3-0.1 0.1-0.1 0.3-0.2 0.1-0.1 0.2-0.2 0.1-0.1 0.2-0.3 0.1-0.1 0.2-0.2 0.1-0.2 0.1-0.4 0.1-0.1 0.1-0.3 0.1-0.2 0.1-0.4 0-0.1 0-0.3 0-0.2 0-0.4 0-0.2-0.1-0.3 0-0.2-0.1-0.4-0.1-0.2-0.1-0.3z"/>
				<path id="Layer" class="s1" d="m497 375.1q0.3 0.3 0.5 0.6 0.2 0.4 0.3 0.7 0.1 0.4 0.2 0.8 0 0.3 0 0.7v5.2h-2.3v-4.9q0.1-0.2 0-0.4 0-0.2-0.1-0.4 0-0.2-0.1-0.4-0.1-0.2-0.3-0.3-0.1-0.2-0.3-0.3-0.1-0.1-0.3-0.2-0.2-0.1-0.4-0.1-0.2 0-0.4 0-0.2 0-0.4 0-0.2 0-0.4 0.1-0.2 0.1-0.3 0.2-0.2 0.1-0.4 0.3-0.1 0.1-0.2 0.3-0.1 0.2-0.2 0.4-0.1 0.2-0.1 0.4 0 0.2 0 0.4v4.9h-2.2v-4.9q0-0.2 0-0.4 0-0.2-0.1-0.4-0.1-0.2-0.2-0.4-0.1-0.2-0.2-0.3-0.2-0.2-0.3-0.3-0.2-0.1-0.4-0.2-0.2-0.1-0.4-0.1-0.2 0-0.4 0-0.2 0-0.4 0-0.2 0-0.4 0.1-0.1 0.1-0.3 0.2-0.2 0.1-0.3 0.3-0.2 0.1-0.3 0.3-0.1 0.2-0.2 0.4 0 0.2-0.1 0.4 0 0.2 0 0.4v4.9h-2.2v-8.8h2.2v1q0.1-0.1 0.3-0.2 0.1-0.2 0.2-0.3 0.2-0.1 0.3-0.2 0.2-0.1 0.4-0.1 0.1-0.1 0.3-0.2 0.2 0 0.4-0.1 0.2 0 0.4 0 0.1-0.1 0.3-0.1 0.3 0 0.5 0.1 0.3 0 0.5 0 0.2 0.1 0.5 0.2 0.2 0.1 0.4 0.2 0.2 0.1 0.4 0.2 0.2 0.2 0.3 0.3 0.2 0.2 0.3 0.4 0.2 0.1 0.3 0.3 0.1-0.2 0.2-0.3 0.1-0.2 0.3-0.4 0.2-0.1 0.3-0.3 0.2-0.1 0.4-0.2 0.2-0.1 0.4-0.2 0.3-0.1 0.5-0.1 0.2-0.1 0.4-0.1 0.3-0.1 0.5-0.1 0.4 0 0.7 0.1 0.4 0.1 0.7 0.2 0.3 0.1 0.6 0.3 0.3 0.2 0.6 0.4z"/>
				<path id="Layer" class="s1" d="m501.4 372.8q-0.2-0.1-0.3-0.4-0.1-0.2-0.1-0.5 0-0.3 0.1-0.5 0.1-0.2 0.3-0.4 0.2-0.2 0.5-0.3 0.2-0.1 0.5-0.1 0.3 0 0.5 0.1 0.3 0.1 0.5 0.3 0.2 0.2 0.3 0.4 0.1 0.2 0.1 0.5 0 0.3-0.1 0.5-0.1 0.3-0.3 0.4-0.2 0.2-0.5 0.3-0.2 0.1-0.5 0.1-0.3 0-0.5-0.1-0.3-0.1-0.5-0.3zm2.1 1.5v8.8h-2.3v-8.8z"/>
				<path id="Layer" class="s1" d="m508.2 382.9q-0.2-0.1-0.4-0.2-0.1-0.1-0.3-0.3-0.2-0.1-0.4-0.3-0.1-0.1-0.2-0.3-0.2-0.1-0.3-0.3-0.1-0.2-0.1-0.4-0.1-0.2-0.1-0.4-0.1-0.2-0.1-0.4h2.3q0 0.2 0 0.3 0.1 0.1 0.1 0.2 0.1 0.1 0.2 0.2 0.1 0.1 0.2 0.2 0.2 0.1 0.5 0.2 0.2 0.1 0.5 0.1 0.3 0 0.5 0 0.3-0.1 0.6-0.2 0-0.1 0.1-0.2 0.1 0 0.1-0.1 0.1-0.1 0.1-0.2 0-0.1 0-0.2 0-0.1 0-0.2 0-0.1-0.1-0.2-0.1-0.1-0.1-0.1-0.1-0.1-0.2-0.1-0.2-0.1-0.4-0.2-0.1-0.1-0.3-0.1-0.2-0.1-0.4-0.1-0.1-0.1-0.3-0.1-0.2-0.1-0.4-0.1-0.2-0.1-0.4-0.1-0.2-0.1-0.4-0.2-0.2 0-0.4-0.1-0.2-0.1-0.3-0.2-0.2 0-0.3-0.1-0.2-0.1-0.3-0.2-0.1-0.2-0.2-0.3-0.1-0.1-0.2-0.3-0.1-0.2-0.2-0.4 0-0.1-0.1-0.3 0-0.2 0-0.4 0-0.2 0-0.4 0.1-0.2 0.1-0.3 0.1-0.2 0.2-0.4 0-0.1 0.1-0.3 0.2-0.1 0.3-0.3 0.1-0.1 0.3-0.2 0.1-0.2 0.3-0.3 0.2-0.1 0.4-0.2 0.2-0.1 0.4-0.1 0.2-0.1 0.5-0.1 0.2-0.1 0.4-0.1 0.3 0 0.5 0 0.4 0 0.7 0 0.3 0.1 0.7 0.2 0.3 0.1 0.6 0.2 0.3 0.2 0.6 0.4 0.2 0.2 0.4 0.4 0.1 0.3 0.3 0.5 0.1 0.3 0.2 0.6 0 0.3 0.1 0.6h-2.2q0-0.1 0-0.2-0.1-0.1-0.1-0.3-0.1-0.1-0.2-0.2 0-0.1-0.1-0.1-0.1-0.1-0.3-0.2-0.1 0-0.2-0.1-0.1 0-0.3 0-0.1 0-0.2 0-0.2 0-0.3 0-0.1 0-0.2 0-0.1 0-0.3 0.1-0.1 0-0.2 0.1-0.1 0-0.1 0.1-0.1 0.1-0.1 0.2-0.1 0-0.1 0.1 0 0.1 0 0.2 0 0.1 0 0.2 0.1 0.1 0.1 0.2 0.1 0.1 0.2 0.2 0 0 0.1 0.1 0.2 0.1 0.4 0.1 0.1 0.1 0.3 0.2 0.2 0 0.4 0.1 0.2 0 0.3 0.1 0.2 0 0.4 0.1 0.2 0 0.4 0.1 0.2 0 0.4 0.1 0.2 0.1 0.4 0.2 0.2 0 0.3 0.1 0.2 0.1 0.3 0.2 0.1 0.1 0.3 0.2 0.1 0.1 0.2 0.3 0.1 0.1 0.2 0.3 0.1 0.1 0.2 0.3 0 0.2 0 0.4 0.1 0.2 0.1 0.4 0 0.2-0.1 0.3 0 0.2 0 0.4-0.1 0.2-0.2 0.3-0.1 0.2-0.2 0.3-0.1 0.2-0.2 0.3-0.1 0.2-0.3 0.3-0.2 0.1-0.3 0.2-0.2 0.1-0.4 0.2-0.4 0.2-0.9 0.3-0.5 0.1-1 0.1-0.5 0-0.9-0.1-0.5-0.1-1-0.3z"/>
				<path id="Layer" class="s1" d="m518 382.9q-0.2-0.1-0.4-0.2-0.2-0.1-0.4-0.3-0.1-0.1-0.3-0.2-0.1-0.2-0.3-0.4-0.1-0.1-0.2-0.3-0.1-0.2-0.2-0.4 0-0.2-0.1-0.4 0-0.2 0-0.4h2.2q0 0.2 0.1 0.3 0 0.1 0.1 0.2 0.1 0.1 0.1 0.2 0.1 0.1 0.2 0.2 0.3 0.1 0.5 0.2 0.3 0.1 0.6 0.1 0.3 0 0.5 0 0.3-0.1 0.5-0.2 0.1-0.1 0.2-0.2 0 0 0.1-0.1 0-0.1 0.1-0.2 0-0.1 0-0.2 0-0.1 0-0.2-0.1-0.1-0.1-0.2-0.1-0.1-0.2-0.1-0.1-0.1-0.1-0.1-0.2-0.1-0.4-0.2-0.2-0.1-0.3-0.1-0.2-0.1-0.4-0.1-0.2-0.1-0.3-0.1-0.3-0.1-0.5-0.1-0.2-0.1-0.4-0.1-0.2-0.1-0.4-0.2-0.2 0-0.4-0.1-0.1-0.1-0.3-0.2-0.1 0-0.3-0.1-0.1-0.1-0.2-0.2-0.1-0.2-0.3-0.3-0.1-0.1-0.2-0.3-0.1-0.2-0.1-0.4-0.1-0.1-0.1-0.3 0-0.2 0-0.4 0-0.2 0-0.4 0-0.2 0.1-0.3 0-0.2 0.1-0.4 0.1-0.1 0.2-0.3 0.1-0.1 0.3-0.3 0.1-0.1 0.2-0.2 0.2-0.2 0.4-0.3 0.1-0.1 0.3-0.2 0.2-0.1 0.5-0.1 0.2-0.1 0.4-0.1 0.3-0.1 0.5-0.1 0.3 0 0.5 0 0.3 0 0.7 0 0.3 0.1 0.6 0.2 0.3 0.1 0.6 0.2 0.3 0.2 0.6 0.4 0.2 0.2 0.4 0.4 0.2 0.3 0.3 0.5 0.2 0.3 0.2 0.6 0.1 0.3 0.1 0.6h-2.1q0-0.1-0.1-0.2 0-0.1-0.1-0.3 0-0.1-0.1-0.2-0.1-0.1-0.2-0.1-0.1-0.1-0.2-0.2-0.1 0-0.2-0.1-0.2 0-0.3 0-0.1 0-0.3 0-0.1 0-0.2 0-0.1 0-0.3 0-0.1 0-0.2 0.1-0.1 0-0.2 0.1-0.1 0-0.1 0.1-0.1 0.1-0.1 0.2-0.1 0-0.1 0.1 0 0.1 0 0.2 0 0.1 0 0.2 0 0.1 0.1 0.2 0.1 0.1 0.1 0.2 0.1 0 0.2 0.1 0.2 0.1 0.4 0.1 0.1 0.1 0.3 0.2 0.2 0 0.4 0.1 0.1 0 0.3 0.1 0.2 0 0.4 0.1 0.2 0 0.4 0.1 0.2 0 0.4 0.1 0.2 0.1 0.4 0.2 0.1 0 0.3 0.1 0.1 0.1 0.3 0.2 0.1 0.1 0.2 0.2 0.2 0.1 0.3 0.3 0.1 0.1 0.2 0.3 0.1 0.1 0.1 0.3 0.1 0.2 0.1 0.4 0 0.2 0 0.4 0 0.2 0 0.3 0 0.2-0.1 0.4 0 0.2-0.1 0.3-0.1 0.2-0.2 0.3-0.1 0.2-0.2 0.3-0.2 0.2-0.3 0.3-0.2 0.1-0.3 0.2-0.2 0.1-0.4 0.2-0.2 0.1-0.4 0.1-0.3 0.1-0.5 0.2-0.2 0-0.5 0-0.2 0-0.4 0-0.3 0-0.5 0-0.3 0-0.5 0-0.3-0.1-0.5-0.1-0.3-0.1-0.5-0.2z"/>
				<path id="Layer" class="s1" d="m526.5 372.8q-0.1-0.1-0.2-0.4-0.1-0.2-0.1-0.5 0-0.3 0.1-0.5 0.1-0.2 0.2-0.4 0.1-0.1 0.3-0.2 0.1-0.1 0.2-0.1 0.1-0.1 0.3-0.1 0.1 0 0.2 0 0.2 0 0.3 0 0.2 0 0.3 0.1 0.1 0 0.2 0.1 0.2 0.1 0.2 0.2 0.2 0.2 0.3 0.4 0.2 0.2 0.2 0.5 0 0.3-0.2 0.5-0.1 0.3-0.3 0.4 0 0.1-0.2 0.2-0.1 0.1-0.2 0.1-0.1 0.1-0.3 0.1-0.1 0-0.3 0-0.1 0-0.2 0-0.2 0-0.3-0.1-0.1 0-0.2-0.1-0.1-0.1-0.3-0.2zm2.1 1.5v8.8h-2.2v-8.8z"/>
				<path id="Layer" fill-rule="evenodd" class="s1" d="m533.6 382.7q-0.3-0.1-0.5-0.3-0.2-0.2-0.4-0.4-0.2-0.2-0.4-0.4-0.2-0.2-0.3-0.5-0.1-0.3-0.3-0.6-0.1-0.3-0.1-0.6-0.1-0.3-0.2-0.6 0-0.3 0-0.6 0-0.3 0-0.6 0.1-0.3 0.2-0.6 0-0.3 0.2-0.6 0.1-0.3 0.2-0.6 0.2-0.3 0.3-0.5 0.2-0.2 0.4-0.4 0.2-0.2 0.5-0.4 0.2-0.2 0.5-0.3 0.5-0.3 1.1-0.4 0.6-0.2 1.2-0.2 0.6 0 1.2 0.2 0.6 0.1 1.1 0.4 0.3 0.1 0.5 0.3 0.2 0.2 0.4 0.4 0.2 0.2 0.4 0.4 0.2 0.2 0.3 0.5 0.2 0.3 0.3 0.6 0.1 0.3 0.2 0.6 0.1 0.3 0.1 0.6 0 0.3 0 0.6 0 0.3 0 0.6 0 0.3-0.1 0.6-0.1 0.3-0.2 0.6-0.1 0.3-0.3 0.6-0.1 0.3-0.3 0.5-0.2 0.2-0.4 0.4-0.2 0.2-0.4 0.4-0.3 0.2-0.5 0.3-0.3 0.2-0.6 0.3-0.3 0.1-0.6 0.1-0.3 0.1-0.6 0.1-0.3 0.1-0.6 0.1-0.3 0-0.6 0-0.3-0.1-0.6-0.1-0.3-0.1-0.6-0.2-0.3-0.1-0.5-0.3zm3.4-1.7q0.1-0.1 0.3-0.2 0.1-0.1 0.2-0.2 0.1-0.1 0.2-0.2 0.1-0.2 0.2-0.3 0-0.2 0.1-0.3 0.1-0.2 0.1-0.4 0.1-0.2 0.1-0.4 0-0.1 0-0.3 0-0.3 0-0.6-0.1-0.2-0.2-0.5 0-0.2-0.2-0.4-0.1-0.3-0.3-0.5-0.1-0.1-0.3-0.3-0.2-0.1-0.4-0.2-0.2-0.1-0.5-0.1-0.2-0.1-0.4-0.1-0.2 0-0.5 0.1-0.2 0-0.4 0.1-0.2 0.1-0.4 0.2-0.2 0.2-0.3 0.3-0.2 0.2-0.3 0.5-0.2 0.2-0.2 0.4-0.1 0.3-0.2 0.5 0 0.3 0 0.6 0 0.2 0 0.5 0.1 0.3 0.2 0.5 0 0.3 0.2 0.5 0.1 0.2 0.3 0.4 0.1 0.2 0.3 0.3 0.2 0.1 0.4 0.2 0.2 0.1 0.4 0.2 0.2 0 0.5 0 0.1 0 0.3 0 0.1 0 0.2-0.1 0.2 0 0.3-0.1 0.2 0 0.3-0.1z"/>
				<path id="Layer" class="s1" d="m550.7 375.1q0.3 0.3 0.5 0.6 0.2 0.4 0.3 0.7 0.1 0.4 0.2 0.8 0 0.3 0 0.7v5.2h-2.2v-4.9q0-0.2 0-0.4-0.1-0.2-0.1-0.4-0.1-0.2-0.2-0.4-0.1-0.2-0.2-0.4-0.2-0.1-0.4-0.2-0.1-0.1-0.3-0.2-0.2-0.1-0.4-0.1-0.2-0.1-0.4 0-0.2-0.1-0.4 0-0.2 0-0.4 0.1-0.2 0.1-0.3 0.2-0.2 0.1-0.4 0.2-0.1 0.2-0.2 0.4-0.1 0.2-0.2 0.4-0.1 0.2-0.1 0.4 0 0.2 0 0.4v4.9h-2.2v-8.8h2.2v1.1q0.1-0.2 0.3-0.3 0.1-0.1 0.2-0.2 0.2-0.2 0.3-0.3 0.2-0.1 0.3-0.1 0.2-0.1 0.4-0.2 0.2 0 0.4-0.1 0.2 0 0.4 0 0.2-0.1 0.4-0.1 0.3 0 0.7 0.1 0.3 0.1 0.6 0.2 0.4 0.1 0.7 0.3 0.3 0.2 0.5 0.4z"/>
			</g>
			<g id="Layer">
				<path id="Layer" fill-rule="evenodd" class="s1" d="m401.3 411.1l-1.3-1.2q-0.3 0.4-0.8 0.6-0.4 0.3-0.9 0.5-0.5 0.2-1 0.3-0.5 0-1.1 0-0.2 0-0.5 0-0.3 0-0.6-0.1-0.2 0-0.5-0.1-0.3-0.1-0.5-0.2-0.2-0.1-0.4-0.2-0.2-0.1-0.4-0.3-0.2-0.1-0.4-0.3-0.1-0.2-0.3-0.4-0.1-0.2-0.2-0.4-0.1-0.2-0.2-0.5 0-0.2-0.1-0.4 0-0.3 0-0.5 0-0.3 0.1-0.5 0-0.3 0.1-0.6 0.1-0.2 0.2-0.4 0.1-0.3 0.2-0.5 0.2-0.2 0.4-0.4 0.2-0.3 0.5-0.4 0.2-0.2 0.5-0.4 0.2-0.1 0.5-0.2-0.1-0.1-0.2-0.3-0.1-0.1-0.2-0.2 0-0.1-0.1-0.3-0.1-0.1-0.1-0.2-0.1-0.2-0.1-0.3-0.1-0.1-0.1-0.2 0-0.2 0-0.3 0-0.1 0-0.3 0-0.2 0-0.3 0-0.2 0.1-0.4 0-0.2 0.1-0.3 0.1-0.2 0.2-0.4 0.1-0.1 0.2-0.3 0.1-0.1 0.3-0.2 0.1-0.2 0.3-0.3 0.1-0.1 0.3-0.2 0.2-0.1 0.4-0.1 0.2-0.1 0.5-0.1 0.2-0.1 0.4-0.1 0.2 0 0.4 0 0.3 0 0.5 0 0.2 0 0.4 0.1 0.3 0 0.5 0.1 0.2 0.1 0.4 0.2 0.3 0.1 0.6 0.4 0.3 0.3 0.4 0.6 0.2 0.3 0.3 0.7 0.1 0.3 0.1 0.7h-2.2q0-0.1 0-0.2 0-0.1 0-0.2-0.1-0.1-0.1-0.2-0.1-0.1-0.2-0.2 0-0.1-0.1-0.1-0.1-0.1-0.2-0.1-0.1 0-0.2-0.1-0.1 0-0.2 0-0.1 0-0.2 0-0.1 0.1-0.2 0.1-0.1 0-0.2 0.1-0.1 0-0.1 0.1-0.1 0.1-0.2 0.1 0 0.1-0.1 0.2 0 0.1 0 0.2 0 0.1 0 0.2 0 0.1 0 0.2 0 0.1 0 0.2 0.1 0.1 0.1 0.2 0.1 0.1 0.1 0.2 0.1 0.1 0.2 0.2 0.1 0.2 0.2 0.3 0.1 0.1 0.2 0.2 0.1 0.2 0.2 0.3l2.8 2.8q0 0 0-0.1 0 0 0 0 0 0 0 0 0 0 0 0v-0.1l0.9-1.5h2.4l-1.2 2q-0.3 0.6-0.7 1.2l2.7 2.7zm-2.6-2.6l-2.7-2.7q-0.4 0-0.6 0.2-0.3 0.2-0.5 0.5-0.2 0.2-0.3 0.6-0.2 0.3-0.2 0.6 0 0.2 0.1 0.3 0 0.2 0.1 0.4 0 0.1 0.1 0.3 0.1 0.1 0.3 0.2 0.1 0.1 0.3 0.2 0.2 0.1 0.3 0.2 0.2 0.1 0.4 0.1 0.2 0 0.4 0 0.3 0 0.6-0.1 0.4 0 0.7-0.1 0.3-0.2 0.5-0.3 0.3-0.2 0.5-0.4z"/>
				<path id="Layer" class="s1" d="m421.1 400l-4.1 11.1h-2.7l-4.1-11.1h2.4l3.1 8.9 3-8.9z"/>
				<path id="Layer" fill-rule="evenodd" class="s1" d="m431.7 407.4h-6.4q0 0.2 0 0.4 0.1 0.2 0.1 0.4 0.1 0.2 0.3 0.4 0.1 0.1 0.2 0.3 0.2 0.1 0.3 0.2 0.2 0.1 0.4 0.2 0.2 0.1 0.4 0.1 0.2 0 0.4 0 0.3 0 0.5 0 0.3-0.1 0.5-0.2 0.3-0.2 0.5-0.4 0.2-0.2 0.3-0.4h2.4q-0.1 0.3-0.3 0.6-0.1 0.3-0.3 0.5-0.2 0.3-0.4 0.5-0.2 0.3-0.5 0.5-0.3 0.2-0.6 0.3-0.3 0.2-0.7 0.3-0.3 0.1-0.6 0.1-0.4 0.1-0.8 0.1-0.3 0-0.6 0-0.3-0.1-0.5-0.2-0.3 0-0.6-0.1-0.3-0.1-0.6-0.3-0.2-0.1-0.4-0.3-0.3-0.2-0.5-0.4-0.2-0.2-0.3-0.4-0.2-0.2-0.3-0.5-0.2-0.3-0.3-0.6-0.1-0.3-0.2-0.6-0.1-0.3-0.1-0.6 0-0.3 0-0.6 0-0.3 0-0.6 0-0.3 0.1-0.6 0.1-0.3 0.2-0.6 0.1-0.3 0.2-0.6 0.2-0.3 0.3-0.5 0.2-0.2 0.4-0.4 0.2-0.2 0.4-0.4 0.3-0.2 0.5-0.3 0.3-0.2 0.6-0.3 0.2-0.1 0.5-0.1 0.3-0.1 0.6-0.1 0.3-0.1 0.6-0.1 0.3 0 0.6 0.1 0.3 0 0.6 0.1 0.3 0 0.6 0.1 0.2 0.1 0.5 0.3 0.2 0.1 0.5 0.3 0.2 0.1 0.4 0.3 0.2 0.2 0.4 0.4 0.1 0.3 0.2 0.5 0.2 0.3 0.3 0.6 0.1 0.2 0.2 0.5 0 0.3 0.1 0.6 0 0.3 0 0.6 0 0.1 0 0.2 0 0.1 0 0.2 0 0.1 0 0.3 0 0.1-0.1 0.2zm-2.2-1.5q0-0.2-0.1-0.4 0-0.2-0.1-0.4-0.1-0.2-0.2-0.3-0.1-0.2-0.2-0.3-0.2-0.1-0.4-0.2-0.1-0.1-0.3-0.2-0.2-0.1-0.4-0.1-0.2 0-0.4 0-0.2 0-0.4 0-0.2 0-0.4 0.1-0.2 0-0.3 0.1-0.2 0.1-0.3 0.3-0.2 0.1-0.3 0.3-0.1 0.1-0.2 0.3-0.1 0.2-0.1 0.4-0.1 0.2-0.1 0.4z"/>
				<path id="Layer" class="s1" d="m437.9 402.5q0.2-0.1 0.4-0.1 0.2-0.1 0.4-0.2 0.2 0 0.4 0 0.2-0.1 0.4-0.1v2.4h-0.6q-0.5-0.1-0.9 0.1-0.4 0.1-0.8 0.4-0.3 0.4-0.4 0.8-0.1 0.5 0 0.9v4.4h-2.3v-8.8h2.3v1.4q0.1-0.2 0.2-0.4 0.1-0.1 0.3-0.3 0.1-0.1 0.3-0.2 0.1-0.2 0.3-0.3z"/>
				<path id="Layer" class="s1" d="m442.2 400.8q-0.2-0.1-0.3-0.4-0.1-0.2-0.1-0.5 0-0.3 0.1-0.5 0.1-0.2 0.3-0.4 0.2-0.2 0.5-0.3 0.3-0.1 0.5-0.1 0.3 0 0.6 0.1 0.2 0.1 0.4 0.3 0.2 0.2 0.3 0.4 0.1 0.2 0.1 0.5 0 0.3-0.1 0.5-0.1 0.3-0.3 0.4-0.2 0.2-0.4 0.3-0.3 0.1-0.6 0.1-0.2 0-0.5-0.1-0.3-0.1-0.5-0.3zm2.1 1.5v8.8h-2.2v-8.8z"/>
				<path id="Layer" class="s1" d="m451.7 404.1h-1.6v7h-2.2v-7h-1v-1.8h1v-0.5q-0.1-0.3 0-0.6 0-0.4 0.1-0.7 0.2-0.3 0.3-0.6 0.2-0.3 0.5-0.5 0.3-0.2 0.6-0.3 0.4-0.2 0.7-0.3 0.4-0.1 0.7-0.1 0.4 0 0.8 0v1.9q-0.2 0-0.3 0-0.2 0-0.3 0-0.2 0.1-0.3 0.1-0.1 0.1-0.3 0.2 0 0.1-0.1 0.2-0.1 0.1-0.1 0.2-0.1 0.2-0.1 0.3 0 0.1 0 0.3v0.3h1.6z"/>
				<path id="Layer" class="s1" d="m454.4 400.8q-0.2-0.1-0.3-0.4-0.1-0.2-0.1-0.5 0-0.3 0.1-0.5 0.1-0.2 0.3-0.4 0.2-0.2 0.4-0.3 0.3-0.1 0.6-0.1 0.2 0 0.5 0.1 0.3 0.1 0.5 0.3 0.2 0.2 0.3 0.4 0.1 0.2 0.1 0.5 0 0.3-0.1 0.5-0.1 0.3-0.3 0.4-0.2 0.2-0.5 0.3-0.3 0.1-0.5 0.1-0.3 0-0.6-0.1-0.2-0.1-0.4-0.3zm2.1 1.5v8.8h-2.3v-8.8z"/>
				<path id="Layer" class="s1" d="m459.7 404.3q0.2-0.3 0.3-0.5 0.2-0.2 0.4-0.4 0.2-0.2 0.4-0.4 0.2-0.2 0.5-0.3 0.2-0.2 0.5-0.3 0.3-0.1 0.6-0.1 0.3-0.1 0.6-0.1 0.3-0.1 0.6-0.1 0.3 0 0.7 0.1 0.3 0 0.7 0.1 0.3 0.1 0.7 0.3 0.3 0.1 0.6 0.3 0.3 0.3 0.5 0.5 0.2 0.3 0.4 0.6 0.2 0.3 0.3 0.6 0.2 0.3 0.2 0.7h-2.4q0-0.2-0.1-0.3 0-0.1-0.1-0.2-0.1-0.2-0.2-0.3-0.1-0.1-0.2-0.1-0.1-0.1-0.3-0.2-0.1-0.1-0.3-0.1-0.1 0-0.3-0.1-0.1 0-0.2 0-0.3 0-0.5 0.1-0.2 0-0.4 0.1-0.2 0.1-0.4 0.2-0.1 0.2-0.3 0.3-0.2 0.5-0.4 1-0.1 0.5-0.1 1 0 0.5 0.1 1 0.2 0.5 0.4 1 0.2 0.1 0.3 0.3 0.2 0.1 0.4 0.2 0.2 0.1 0.4 0.1 0.2 0.1 0.5 0.1 0.2 0 0.5-0.1 0.3-0.1 0.6-0.2 0.2-0.2 0.4-0.4 0.1-0.3 0.2-0.6h2.4q0 0.4-0.2 0.7-0.1 0.3-0.3 0.6-0.2 0.3-0.4 0.6-0.2 0.2-0.5 0.4-0.3 0.2-0.6 0.4-0.4 0.2-0.7 0.3-0.4 0.1-0.7 0.1-0.4 0.1-0.7 0.1-0.3 0-0.6 0-0.3-0.1-0.6-0.2-0.3 0-0.6-0.1-0.3-0.1-0.5-0.3-0.3-0.1-0.5-0.3-0.2-0.2-0.4-0.4-0.2-0.2-0.4-0.4-0.1-0.2-0.3-0.5-0.2-0.6-0.4-1.2-0.1-0.6-0.1-1.2 0-0.6 0.1-1.2 0.2-0.6 0.4-1.2z"/>
				<path id="Layer" fill-rule="evenodd" class="s1" d="m470.4 404.3q0.3-0.5 0.6-0.9 0.4-0.4 0.9-0.7 0.4-0.3 1-0.4 0.5-0.2 1.1-0.2 0.2 0 0.4 0 0.2 0.1 0.4 0.1 0.3 0.1 0.5 0.1 0.2 0.1 0.4 0.2 0.2 0.1 0.3 0.2 0.2 0.1 0.3 0.3 0.2 0.1 0.3 0.2 0.2 0.2 0.3 0.3v-1.2h2.2v8.8h-2.2v-1.3q-0.1 0.2-0.3 0.3-0.1 0.2-0.3 0.3-0.1 0.1-0.3 0.2-0.1 0.2-0.3 0.2-0.2 0.1-0.4 0.2-0.2 0.1-0.5 0.2-0.2 0-0.4 0-0.2 0.1-0.5 0-0.2 0.1-0.5 0-0.3 0-0.5-0.1-0.3-0.1-0.5-0.2-0.2-0.1-0.5-0.2-0.2-0.2-0.4-0.4-0.2-0.1-0.4-0.3-0.2-0.2-0.3-0.5-0.2-0.2-0.3-0.5-0.2-0.2-0.3-0.5-0.1-0.3-0.1-0.6-0.1-0.3-0.1-0.6-0.1-0.3-0.1-0.7 0-0.3 0.1-0.6 0-0.3 0-0.6 0.1-0.3 0.2-0.5 0.1-0.3 0.2-0.6zm6.2 1q-0.1-0.1-0.2-0.3-0.1-0.1-0.2-0.2-0.1-0.1-0.2-0.2-0.2-0.1-0.3-0.2-0.3-0.2-0.6-0.2-0.3-0.1-0.6-0.1-0.3 0-0.6 0.1-0.3 0-0.5 0.2-0.2 0.1-0.3 0.2-0.1 0.1-0.2 0.2-0.1 0.1-0.2 0.2-0.1 0.2-0.2 0.3-0.1 0.1-0.1 0.3-0.1 0.2-0.1 0.4-0.1 0.1-0.1 0.3 0 0.2 0 0.4 0 0.2 0 0.3 0 0.2 0.1 0.4 0 0.2 0.1 0.3 0 0.2 0.1 0.4 0.2 0.2 0.4 0.5 0.2 0.2 0.4 0.4 0.3 0.1 0.6 0.2 0.3 0.1 0.6 0.1 0.2 0 0.3 0 0.2 0 0.3-0.1 0.2 0 0.3-0.1 0.2 0 0.3-0.1 0.1-0.1 0.3-0.2 0.1-0.1 0.2-0.2 0.1-0.1 0.2-0.2 0.1-0.2 0.2-0.3 0.1-0.3 0.2-0.7 0.1-0.3 0.1-0.7 0-0.4-0.1-0.7-0.1-0.4-0.2-0.7z"/>
				<path id="Layer" class="s1" d="m485 404.1v4.3q0 0.1 0 0.2 0 0.1 0 0.1 0.1 0.1 0.1 0.2 0.1 0.1 0.1 0.1 0.1 0.1 0.2 0.1 0.1 0.1 0.2 0.1 0.1 0 0.1 0.1 0.1 0 0.2-0.1h1v1.9h-1.4q-2.8 0-2.8-2.7v-4.3h-1v-1.8h1v-2.2h2.3v2.2h2v1.8z"/>
				<path id="Layer" class="s1" d="m489.9 400.8q-0.2-0.1-0.3-0.4-0.1-0.2-0.1-0.5 0-0.3 0.1-0.5 0.1-0.2 0.3-0.4 0.2-0.2 0.4-0.3 0.3-0.1 0.6-0.1 0.2 0 0.5 0.1 0.3 0.1 0.5 0.3 0.1 0.2 0.2 0.4 0.1 0.2 0.1 0.5 0 0.3-0.1 0.5-0.1 0.3-0.2 0.4-0.2 0.2-0.5 0.3-0.3 0.1-0.5 0.1-0.3 0-0.6-0.1-0.2-0.1-0.4-0.3zm2.1 1.5v8.8h-2.3v-8.8z"/>
				<path id="Layer" fill-rule="evenodd" class="s1" d="m496.9 410.7q-0.3-0.1-0.5-0.3-0.2-0.2-0.4-0.4-0.2-0.2-0.4-0.4-0.2-0.2-0.3-0.5-0.2-0.3-0.3-0.6-0.1-0.3-0.2-0.6-0.1-0.3-0.1-0.6 0-0.3 0-0.6 0-0.3 0-0.6 0-0.3 0.1-0.6 0.1-0.3 0.2-0.6 0.1-0.3 0.3-0.6 0.1-0.3 0.3-0.5 0.2-0.2 0.4-0.4 0.2-0.2 0.4-0.4 0.3-0.2 0.5-0.3 0.3-0.2 0.6-0.3 0.3-0.1 0.5-0.1 0.3-0.1 0.6-0.1 0.3-0.1 0.6-0.1 0.3 0 0.6 0.1 0.3 0 0.6 0.1 0.3 0 0.6 0.1 0.3 0.1 0.6 0.3 0.2 0.1 0.5 0.3 0.2 0.2 0.4 0.4 0.2 0.2 0.4 0.4 0.2 0.2 0.3 0.5 0.2 0.3 0.3 0.6 0.1 0.3 0.2 0.6 0 0.3 0.1 0.6 0 0.3 0 0.6 0 0.3 0 0.6-0.1 0.3-0.1 0.6-0.1 0.3-0.2 0.6-0.2 0.3-0.3 0.6-0.2 0.3-0.3 0.5-0.2 0.2-0.4 0.4-0.2 0.2-0.5 0.4-0.2 0.2-0.5 0.3-0.2 0.2-0.5 0.3-0.3 0.1-0.6 0.1-0.3 0.1-0.6 0.1-0.3 0.1-0.6 0.1-0.3 0-0.6 0-0.3-0.1-0.6-0.2-0.3 0-0.6-0.1-0.3-0.1-0.5-0.3zm3.4-1.7q0.2 0 0.3-0.1 0.1-0.1 0.2-0.3 0.1-0.1 0.2-0.2 0.1-0.1 0.2-0.3 0.1-0.1 0.1-0.3 0.1-0.2 0.1-0.4 0.1-0.1 0.1-0.3 0-0.2 0-0.4 0-0.3 0-0.5-0.1-0.3-0.1-0.5-0.1-0.3-0.3-0.5-0.1-0.2-0.3-0.4-0.1-0.2-0.3-0.3-0.2-0.2-0.4-0.3-0.2 0-0.4-0.1-0.3 0-0.5 0-0.2 0-0.4 0-0.3 0.1-0.5 0.1-0.2 0.1-0.4 0.3-0.1 0.1-0.3 0.3-0.2 0.2-0.3 0.4-0.1 0.2-0.2 0.5-0.1 0.2-0.1 0.5-0.1 0.2 0 0.5-0.1 0.3 0 0.5 0 0.3 0.1 0.5 0.1 0.3 0.2 0.5 0.1 0.2 0.3 0.4 0.1 0.2 0.3 0.3 0.2 0.2 0.4 0.3 0.2 0.1 0.4 0.1 0.3 0 0.5 0 0.1 0 0.3 0 0.1 0 0.3-0.1 0.1 0 0.3-0.1 0.1 0 0.2-0.1z"/>
				<path id="Layer" class="s1" d="m514 403.1q0.3 0.3 0.5 0.6 0.2 0.4 0.3 0.7 0.1 0.4 0.2 0.8 0 0.3 0 0.7v5.2h-2.2v-4.9q0-0.2-0.1-0.4 0-0.2 0-0.4-0.1-0.2-0.2-0.4-0.1-0.2-0.3-0.4-0.1-0.1-0.3-0.2-0.1-0.2-0.3-0.2-0.2-0.1-0.4-0.1-0.2-0.1-0.4-0.1-0.2 0-0.4 0.1-0.2 0-0.4 0.1-0.2 0-0.4 0.2-0.1 0.1-0.3 0.2-0.1 0.2-0.2 0.4-0.1 0.2-0.2 0.4-0.1 0.2-0.1 0.4 0 0.2 0 0.4v4.9h-2.2v-8.8h2.2v1.1q0.1-0.2 0.2-0.3 0.2-0.1 0.3-0.2 0.2-0.2 0.3-0.3 0.2-0.1 0.3-0.1 0.2-0.1 0.4-0.2 0.2 0 0.4-0.1 0.2 0 0.4 0 0.2-0.1 0.4-0.1 0.3 0 0.7 0.1 0.3 0 0.6 0.2 0.4 0.1 0.7 0.3 0.3 0.2 0.5 0.4z"/>
			</g>
		</g>
		<g id="Instant_Approval_Disbursals">
			<g id="Layer">
				<path id="Layer" class="s1" d="m702.3 208v11.2h-2.2v-11.2z"/>
				<path id="Layer" class="s1" d="m713.1 211.2q0.3 0.3 0.5 0.6 0.2 0.3 0.3 0.7 0.1 0.4 0.2 0.7 0 0.4 0 0.8v5.2h-2.2v-4.9q0-0.2-0.1-0.4 0-0.3-0.1-0.5 0-0.2-0.1-0.4-0.1-0.2-0.3-0.3-0.1-0.2-0.3-0.3-0.1-0.1-0.3-0.2-0.2 0-0.4-0.1-0.2 0-0.4 0-0.2 0-0.4 0-0.2 0.1-0.4 0.1-0.2 0.1-0.4 0.2-0.1 0.1-0.3 0.3-0.1 0.1-0.2 0.3-0.1 0.2-0.2 0.4-0.1 0.2-0.1 0.5 0 0.2 0 0.4v4.9h-2.3v-8.9h2.3v1.1q0.1-0.1 0.2-0.2 0.2-0.2 0.3-0.3 0.2-0.1 0.3-0.2 0.2-0.1 0.3-0.2 0.2 0 0.4-0.1 0.2-0.1 0.4-0.1 0.2-0.1 0.4-0.1 0.2 0 0.4 0 0.3 0 0.7 0.1 0.3 0 0.6 0.1 0.4 0.2 0.7 0.4 0.3 0.2 0.5 0.4z"/>
				<path id="Layer" class="s1" d="m718.7 219q-0.2-0.1-0.4-0.2-0.1-0.1-0.3-0.2-0.2-0.2-0.4-0.3-0.1-0.2-0.2-0.4-0.2-0.1-0.3-0.3-0.1-0.2-0.1-0.4-0.1-0.2-0.1-0.4-0.1-0.1-0.1-0.4h2.3q0 0.2 0 0.3 0.1 0.1 0.1 0.2 0.1 0.1 0.2 0.2 0.1 0.1 0.2 0.2 0.1 0.1 0.2 0.1 0.2 0.1 0.3 0.2 0.1 0 0.3 0 0.1 0 0.3 0 0.1 0 0.2 0 0.2 0 0.3 0 0.1-0.1 0.2-0.1 0.2-0.1 0.3-0.1 0.1-0.1 0.1-0.1 0.1-0.1 0.1-0.2 0.1-0.1 0.1-0.2 0-0.1 0-0.2 0-0.1 0-0.2 0-0.1-0.1-0.2 0-0.1-0.1-0.1-0.1-0.1-0.2-0.1-0.2-0.1-0.4-0.2-0.1 0-0.3-0.1-0.2-0.1-0.4-0.1-0.1-0.1-0.3-0.1-0.2 0-0.4-0.1-0.2-0.1-0.4-0.1-0.2-0.1-0.4-0.1-0.2-0.1-0.4-0.2-0.2-0.1-0.3-0.1-0.2-0.1-0.3-0.2-0.2-0.1-0.3-0.2-0.1-0.2-0.2-0.3-0.1-0.1-0.2-0.3-0.1-0.2-0.2-0.3 0-0.2-0.1-0.4 0-0.2 0-0.4 0-0.2 0-0.4 0.1-0.1 0.1-0.3 0.1-0.2 0.2-0.3 0-0.2 0.1-0.3 0.2-0.2 0.3-0.4 0.1-0.1 0.3-0.2 0.1-0.2 0.3-0.3 0.2-0.1 0.4-0.1 0.2-0.1 0.4-0.2 0.2-0.1 0.5-0.1 0.2-0.1 0.4-0.1 0.3 0 0.5 0 0.4 0 0.7 0 0.3 0.1 0.7 0.2 0.3 0.1 0.6 0.2 0.3 0.2 0.5 0.4 0.3 0.2 0.5 0.4 0.1 0.3 0.3 0.6 0.1 0.2 0.2 0.5 0 0.3 0 0.6h-2q0-0.1 0-0.2-0.1-0.1-0.1-0.2-0.1-0.1-0.2-0.2 0-0.1-0.1-0.2-0.1-0.1-0.3-0.1-0.1-0.1-0.2-0.1-0.1-0.1-0.3-0.1-0.1 0-0.2 0-0.2 0-0.3 0-0.1 0-0.2 0-0.1 0-0.3 0.1-0.1 0-0.2 0.1-0.1 0.1-0.1 0.1-0.1 0.1-0.1 0.2-0.1 0.1-0.1 0.1 0 0.1 0 0.2 0 0.1 0 0.2 0.1 0.1 0.1 0.2 0.1 0.1 0.2 0.2 0 0.1 0.1 0.1 0.2 0.1 0.4 0.2 0.2 0 0.3 0.1 0.2 0 0.4 0.1 0.2 0 0.3 0.1 0.2 0 0.4 0.1 0.2 0 0.4 0.1 0.2 0.1 0.4 0.1 0.2 0.1 0.4 0.2 0.2 0 0.3 0.1 0.2 0.1 0.3 0.2 0.1 0.1 0.3 0.2 0.1 0.1 0.2 0.3 0.1 0.1 0.2 0.3 0.1 0.2 0.2 0.3 0 0.2 0 0.4 0.1 0.2 0.1 0.4 0 0.2-0.1 0.3 0 0.2 0 0.4-0.1 0.2-0.2 0.3 0 0.2-0.2 0.4-0.1 0.1-0.2 0.3-0.1 0.1-0.3 0.2-0.1 0.1-0.3 0.2-0.2 0.1-0.4 0.2-0.2 0.1-0.4 0.2-0.2 0-0.5 0.1-0.2 0-0.4 0-0.3 0.1-0.5 0.1-0.3 0-0.5-0.1-0.3 0-0.6 0-0.2-0.1-0.5-0.1-0.2-0.1-0.5-0.2z"/>
				<path id="Layer" class="s1" d="m729.7 212.2v4.3q0 0 0 0.1 0 0.1 0 0.2 0.1 0.1 0.1 0.2 0.1 0 0.1 0.1 0.1 0.1 0.2 0.1 0.1 0.1 0.2 0.1 0.1 0 0.2 0 0.1 0 0.2 0h1v1.9h-1.5q-2.8 0-2.8-2.8v-4.2h-1v-1.9h1v-2.2h2.3v2.2h2v1.9z"/>
				<path id="Layer" fill-rule="evenodd" class="s1" d="m734.4 212.3q0.1-0.2 0.2-0.4 0.2-0.2 0.4-0.4 0.2-0.3 0.4-0.4 0.2-0.2 0.4-0.4 0.2-0.1 0.5-0.2 0.2-0.1 0.5-0.2 0.3 0 0.5-0.1 0.3 0 0.6 0 0.4 0 0.8 0.1 0.4 0.1 0.8 0.2 0.4 0.2 0.7 0.5 0.3 0.3 0.6 0.6v-1.3h2.2v8.9h-2.2v-1.3q-0.1 0.2-0.3 0.3-0.1 0.1-0.2 0.3-0.2 0.1-0.4 0.2-0.1 0.1-0.3 0.2-0.2 0.1-0.4 0.2-0.2 0.1-0.4 0.1-0.3 0.1-0.5 0.1-0.2 0-0.5 0-0.2 0-0.5 0-0.2-0.1-0.5-0.1-0.2-0.1-0.5-0.2-0.2-0.1-0.5-0.3-0.2-0.1-0.4-0.3-0.2-0.2-0.4-0.4-0.2-0.2-0.3-0.4-0.2-0.2-0.3-0.5-0.1-0.3-0.2-0.6-0.1-0.3-0.2-0.6-0.1-0.3-0.1-0.6 0-0.3 0-0.6 0-0.3 0-0.6 0-0.3 0.1-0.6 0-0.3 0.1-0.6 0.1-0.3 0.3-0.6zm6.1 1q-0.1-0.1-0.2-0.2-0.1-0.1-0.2-0.3-0.1-0.1-0.2-0.2-0.2-0.1-0.3-0.2-0.1 0-0.3-0.1-0.1 0-0.3-0.1-0.1 0-0.3 0-0.1-0.1-0.3-0.1-0.3 0-0.6 0.1-0.3 0.1-0.5 0.3-0.3 0.1-0.5 0.3-0.2 0.3-0.4 0.5 0 0.2-0.1 0.4-0.1 0.1-0.1 0.3-0.1 0.2-0.1 0.4 0 0.1 0 0.3 0 0.2 0 0.4 0 0.2 0.1 0.3 0 0.2 0.1 0.4 0.1 0.2 0.1 0.3 0.1 0.2 0.2 0.3 0.1 0.1 0.2 0.2 0.1 0.2 0.2 0.3 0.2 0.1 0.3 0.1 0.1 0.1 0.3 0.2 0.1 0 0.2 0.1 0.2 0 0.3 0 0.2 0.1 0.3 0.1 0.2 0 0.3-0.1 0.2 0 0.3 0 0.2-0.1 0.3-0.1 0.2-0.1 0.3-0.2 0.1 0 0.3-0.1 0.1-0.1 0.2-0.2 0.1-0.2 0.2-0.3 0.1-0.1 0.2-0.3 0.1-0.3 0.2-0.6 0.1-0.4 0.1-0.8 0-0.3-0.1-0.7-0.1-0.3-0.2-0.7z"/>
				<path id="Layer" class="s1" d="m753.8 211.2q0.3 0.3 0.5 0.6 0.2 0.3 0.3 0.7 0.1 0.4 0.2 0.7 0 0.4 0 0.8v5.2h-2.2v-4.9q0-0.2-0.1-0.4 0-0.3-0.1-0.5 0-0.2-0.1-0.4-0.1-0.2-0.3-0.3-0.1-0.2-0.3-0.3-0.1-0.1-0.3-0.2-0.2 0-0.4-0.1-0.2 0-0.4 0-0.2 0-0.4 0-0.2 0.1-0.4 0.1-0.2 0.1-0.4 0.2-0.1 0.1-0.3 0.3-0.1 0.1-0.2 0.3-0.1 0.2-0.2 0.4-0.1 0.2-0.1 0.5 0 0.2 0 0.4v4.9h-2.3v-8.9h2.3v1.1q0.1-0.1 0.2-0.2 0.2-0.2 0.3-0.3 0.2-0.1 0.3-0.2 0.2-0.1 0.3-0.2 0.2 0 0.4-0.1 0.2-0.1 0.4-0.1 0.2-0.1 0.4-0.1 0.2 0 0.4 0 0.3 0 0.7 0.1 0.3 0 0.6 0.1 0.4 0.2 0.7 0.4 0.3 0.2 0.5 0.4z"/>
				<path id="Layer" class="s1" d="m760.6 212.2v4.3q0 0 0 0.1 0 0.1 0 0.2 0.1 0.1 0.1 0.2 0.1 0 0.1 0.1 0.1 0.1 0.2 0.1 0.1 0.1 0.2 0.1 0.1 0 0.2 0 0.1 0 0.2 0h1v1.9h-1.5q-2.8 0-2.8-2.8v-4.2h-1v-1.9h1v-2.2h2.3v2.2h2v1.9z"/>
				<path id="Layer" fill-rule="evenodd" class="s1" d="m777 217.1h-4.5l-0.7 2.1h-2.3l4-11.2h2.6l4 11.2h-2.4zm-0.6-1.8l-1.6-4.7-1.6 4.7z"/>
				<path id="Layer" fill-rule="evenodd" class="s1" d="m786.2 210.6q0.2-0.1 0.4-0.2 0.2-0.1 0.4-0.1 0.2-0.1 0.4-0.1 0.3 0 0.5 0 0.3 0 0.5 0 0.3 0.1 0.6 0.1 0.2 0.1 0.5 0.2 0.2 0.1 0.5 0.3 0.2 0.1 0.4 0.3 0.2 0.1 0.4 0.3 0.2 0.2 0.3 0.5 0.2 0.2 0.3 0.4 0.1 0.3 0.3 0.6 0.1 0.3 0.1 0.6 0.1 0.3 0.1 0.6 0.1 0.3 0 0.6 0.1 0.4 0 0.7 0 0.3-0.1 0.6 0 0.3-0.1 0.6-0.2 0.3-0.3 0.6-0.1 0.2-0.3 0.4-0.1 0.3-0.3 0.5-0.2 0.2-0.4 0.3-0.2 0.2-0.4 0.4-0.3 0.1-0.5 0.2-0.3 0.1-0.5 0.2-0.3 0.1-0.6 0.1-0.2 0-0.5 0-0.2 0-0.4 0-0.3 0-0.5-0.1-0.2 0-0.4-0.1-0.2-0.1-0.4-0.2-0.2-0.1-0.4-0.2-0.1-0.1-0.3-0.2-0.1-0.1-0.3-0.3-0.1-0.1-0.2-0.3v5.5h-2.3v-13.1h2.3v1.3q0.1-0.1 0.2-0.3 0.2-0.1 0.3-0.3 0.2-0.1 0.3-0.2 0.2-0.1 0.4-0.2zm3.1 2.8q-0.1-0.3-0.3-0.5-0.2-0.3-0.5-0.4-0.3-0.2-0.6-0.3-0.3 0-0.6 0-0.1 0-0.3 0-0.1 0-0.3 0-0.1 0.1-0.3 0.1-0.1 0.1-0.2 0.2-0.2 0.1-0.3 0.2-0.1 0.1-0.2 0.2-0.1 0.1-0.2 0.2-0.1 0.1-0.2 0.3-0.1 0.3-0.2 0.7-0.1 0.3-0.1 0.7 0 0.3 0.1 0.7 0.1 0.3 0.2 0.7 0.1 0.1 0.2 0.2 0.1 0.2 0.2 0.3 0.1 0.1 0.2 0.2 0.1 0.1 0.3 0.2 0.1 0 0.2 0.1 0.2 0.1 0.3 0.1 0.2 0 0.3 0.1 0.2 0 0.3 0 0.2 0 0.3 0 0.2-0.1 0.3-0.1 0.2 0 0.3-0.1 0.2-0.1 0.3-0.1 0.1-0.1 0.2-0.2 0.2-0.1 0.3-0.2 0.1-0.2 0.2-0.3 0.1-0.1 0.1-0.2 0.1-0.2 0.2-0.4 0.1-0.2 0.1-0.3 0-0.2 0.1-0.4 0-0.2 0-0.4 0-0.1 0-0.3-0.1-0.2-0.1-0.4 0-0.2-0.1-0.3-0.1-0.2-0.2-0.3z"/>
				<path id="Layer" fill-rule="evenodd" class="s1" d="m798.1 210.6q0.2-0.1 0.4-0.2 0.2-0.1 0.4-0.1 0.3-0.1 0.5-0.1 0.2 0 0.4 0 0.3 0 0.6 0 0.2 0.1 0.5 0.1 0.3 0.1 0.5 0.2 0.3 0.1 0.5 0.3 0.2 0.1 0.4 0.3 0.2 0.1 0.4 0.3 0.2 0.2 0.4 0.5 0.1 0.2 0.2 0.4 0.2 0.3 0.3 0.6 0.1 0.3 0.2 0.6 0 0.3 0.1 0.6 0 0.3 0 0.6 0 0.4 0 0.7-0.1 0.3-0.1 0.6-0.1 0.3-0.2 0.6-0.1 0.3-0.3 0.6-0.1 0.2-0.2 0.4-0.2 0.3-0.4 0.5-0.2 0.2-0.4 0.3-0.2 0.2-0.4 0.4-0.2 0.1-0.5 0.2-0.2 0.1-0.5 0.2-0.3 0.1-0.5 0.1-0.3 0-0.6 0-0.2 0-0.4 0-0.2 0-0.5-0.1-0.2 0-0.4-0.1-0.2-0.1-0.4-0.2-0.2-0.1-0.3-0.2-0.2-0.1-0.3-0.2-0.2-0.1-0.3-0.3-0.2-0.1-0.3-0.3v5.5h-2.2v-13.1h2.2v1.3q0.1-0.1 0.3-0.3 0.1-0.1 0.2-0.3 0.2-0.1 0.4-0.2 0.1-0.1 0.3-0.2zm3.2 2.8q-0.3-0.6-0.9-0.9-0.5-0.3-1.1-0.3-0.7 0-1.2 0.3-0.5 0.3-0.8 0.8-0.2 0.4-0.3 0.7 0 0.4 0 0.7 0 0.4 0 0.8 0.1 0.3 0.3 0.6 0.1 0.3 0.3 0.5 0.2 0.2 0.5 0.4 0.3 0.2 0.6 0.3 0.3 0 0.6 0 0.1 0.1 0.3 0 0.1 0 0.3 0 0.1-0.1 0.3-0.1 0.1-0.1 0.2-0.2 0.2-0.1 0.3-0.2 0.1-0.1 0.2-0.2 0.1-0.1 0.2-0.2 0.1-0.1 0.2-0.3 0.1-0.1 0.1-0.3 0.1-0.2 0.1-0.4 0.1-0.1 0.1-0.3 0-0.2 0-0.4 0-0.2 0-0.3 0-0.2-0.1-0.4 0-0.2-0.1-0.3 0-0.2-0.1-0.3z"/>
				<path id="Layer" class="s1" d="m810 210.6q0.2-0.1 0.4-0.2 0.2 0 0.4-0.1 0.2 0 0.4-0.1 0.2 0 0.4 0v2.4h-0.6q-0.5-0.1-0.9 0-0.4 0.2-0.7 0.5-0.4 0.3-0.5 0.8-0.1 0.4 0 0.9v4.4h-2.3v-8.9h2.2v1.4q0.1-0.2 0.3-0.3 0.1-0.2 0.3-0.3 0.1-0.2 0.3-0.3 0.1-0.1 0.3-0.2z"/>
				<path id="Layer" fill-rule="evenodd" class="s1" d="m815.8 218.8q-0.3-0.2-0.5-0.3-0.2-0.2-0.4-0.4-0.2-0.2-0.4-0.4-0.2-0.3-0.3-0.5-0.2-0.3-0.3-0.6-0.1-0.3-0.2-0.6 0-0.3-0.1-0.6 0-0.3 0-0.6 0-0.3 0-0.7 0.1-0.3 0.1-0.6 0.1-0.3 0.2-0.6 0.1-0.3 0.3-0.5 0.1-0.3 0.3-0.5 0.2-0.2 0.4-0.4 0.2-0.3 0.4-0.4 0.3-0.2 0.5-0.3 0.3-0.2 0.6-0.3 0.3-0.1 0.6-0.2 0.2 0 0.5-0.1 0.3 0 0.7 0 0.3 0 0.6 0 0.3 0.1 0.5 0.1 0.3 0.1 0.6 0.2 0.3 0.1 0.6 0.3 0.2 0.1 0.5 0.3 0.2 0.1 0.4 0.3 0.2 0.3 0.4 0.5 0.2 0.2 0.3 0.5 0.2 0.2 0.3 0.5 0.1 0.3 0.2 0.6 0 0.3 0.1 0.6 0 0.4 0 0.7 0 0.3 0 0.6-0.1 0.3-0.1 0.6-0.1 0.3-0.2 0.6-0.1 0.3-0.3 0.6-0.1 0.2-0.3 0.5-0.2 0.2-0.4 0.4-0.2 0.2-0.5 0.4-0.2 0.1-0.5 0.3-0.2 0.1-0.5 0.2-0.3 0.1-0.6 0.2-0.3 0.1-0.6 0.1-0.3 0-0.6 0-0.3 0-0.6 0-0.3 0-0.6-0.1-0.3-0.1-0.6-0.2-0.2-0.1-0.5-0.2zm3.4-1.7q0.2-0.1 0.3-0.2 0.1-0.1 0.2-0.2 0.1-0.1 0.2-0.2 0.1-0.2 0.2-0.3 0.1-0.2 0.1-0.3 0.1-0.2 0.1-0.4 0.1-0.2 0.1-0.4 0-0.1 0-0.3 0-0.3 0-0.6 0-0.2-0.1-0.5-0.1-0.3-0.2-0.5-0.2-0.2-0.3-0.4-0.2-0.2-0.4-0.3-0.2-0.1-0.4-0.2-0.2-0.1-0.4-0.2-0.3 0-0.5 0-0.2 0-0.4 0-0.2 0.1-0.5 0.2-0.2 0.1-0.3 0.2-0.2 0.1-0.4 0.3-0.3 0.4-0.5 0.9-0.1 0.5-0.1 1 0 0.5 0.1 1 0.2 0.5 0.5 1 0.2 0.1 0.3 0.3 0.2 0.1 0.4 0.2 0.2 0.1 0.5 0.1 0.2 0 0.4 0 0.1 0 0.3 0 0.1 0 0.3 0 0.1 0 0.3-0.1 0.1 0 0.2-0.1z"/>
				<path id="Layer" class="s1" d="m829.1 217.1l2.3-6.8h2.4l-3.3 8.9h-2.7l-3.3-8.9h2.4z"/>
				<path id="Layer" fill-rule="evenodd" class="s1" d="m836.1 212.3q0.1-0.2 0.3-0.4 0.1-0.2 0.3-0.5 0.2-0.2 0.4-0.3 0.2-0.2 0.4-0.4 0.3-0.1 0.5-0.2 0.3-0.1 0.5-0.2 0.3 0 0.6-0.1 0.2 0 0.5 0 0.2 0 0.4 0 0.3 0 0.5 0.1 0.2 0 0.4 0.1 0.2 0.1 0.4 0.2 0.2 0.1 0.4 0.2 0.1 0.1 0.3 0.2 0.1 0.2 0.3 0.3 0.1 0.1 0.2 0.3v-1.3h2.3v8.9h-2.3v-1.3q-0.1 0.1-0.2 0.3-0.2 0.1-0.3 0.3-0.2 0.1-0.3 0.2-0.2 0.1-0.4 0.2-0.2 0.1-0.4 0.2-0.2 0-0.4 0.1-0.2 0-0.5 0.1-0.2 0-0.4 0-0.3 0-0.5 0-0.3-0.1-0.6-0.2-0.2 0-0.5-0.1-0.2-0.1-0.4-0.3-0.3-0.1-0.5-0.3-0.2-0.2-0.4-0.4-0.1-0.2-0.3-0.4-0.2-0.3-0.3-0.5-0.1-0.3-0.2-0.6-0.1-0.3-0.2-0.6-0.1-0.3-0.1-0.6 0-0.3 0-0.6 0-0.3 0-0.6 0-0.3 0.1-0.6 0.1-0.3 0.2-0.6 0.1-0.3 0.2-0.6zm6.1 1q-0.1-0.1-0.2-0.2-0.1-0.1-0.2-0.3-0.1-0.1-0.2-0.2-0.1-0.1-0.3-0.2-0.1 0-0.2-0.1-0.2 0-0.3-0.1-0.2 0-0.3 0-0.2-0.1-0.3-0.1-0.2 0-0.3 0.1-0.2 0-0.3 0-0.2 0.1-0.3 0.1-0.1 0.1-0.3 0.1-0.1 0.1-0.2 0.2-0.2 0.1-0.3 0.2-0.1 0.1-0.2 0.3-0.1 0.1-0.1 0.2-0.1 0.2-0.2 0.4-0.1 0.1-0.1 0.3 0 0.2-0.1 0.4 0 0.1 0 0.3 0 0.2 0 0.4 0.1 0.2 0.1 0.3 0 0.2 0.1 0.4 0.1 0.2 0.2 0.3 0 0.2 0.1 0.3 0.1 0.1 0.2 0.2 0.1 0.2 0.3 0.3 0.1 0.1 0.2 0.1 0.2 0.1 0.3 0.2 0.1 0 0.3 0.1 0.1 0 0.3 0 0.1 0.1 0.3 0.1 0.1 0 0.3-0.1 0.1 0 0.3 0 0.1-0.1 0.3-0.1 0.1-0.1 0.2-0.2 0.2 0 0.3-0.1 0.1-0.1 0.2-0.2 0.1-0.2 0.2-0.3 0.1-0.1 0.2-0.3 0.2-0.3 0.2-0.6 0.1-0.4 0.1-0.8 0-0.3-0.1-0.7 0-0.3-0.2-0.7z"/>
				<path id="Layer" class="s1" d="m850.3 207.4v11.8h-2.2v-11.8z"/>
			</g>
			<g id="Layer">
				<path id="Layer" fill-rule="evenodd" class="s1" d="m730.6 247.2l-1.2-1.2q-0.4 0.3-0.9 0.6-0.4 0.3-0.9 0.5-0.5 0.1-1 0.2-0.5 0.1-1 0.1-0.3 0-0.6 0-0.2-0.1-0.5-0.1-0.3-0.1-0.6-0.1-0.2-0.1-0.5-0.2-0.2-0.1-0.4-0.2-0.2-0.2-0.4-0.3-0.2-0.2-0.3-0.4-0.2-0.1-0.3-0.3-0.2-0.2-0.3-0.4-0.1-0.3-0.1-0.5-0.1-0.2-0.1-0.5 0-0.2 0-0.4 0-0.3 0-0.6 0-0.2 0.1-0.5 0.1-0.2 0.2-0.5 0.1-0.2 0.3-0.4 0.2-0.3 0.4-0.5 0.2-0.2 0.4-0.4 0.2-0.1 0.5-0.3 0.2-0.1 0.5-0.2-0.1-0.2-0.2-0.3 0-0.1-0.1-0.2-0.1-0.2-0.2-0.3 0-0.1-0.1-0.2 0-0.2-0.1-0.3 0-0.1 0-0.2-0.1-0.2-0.1-0.3 0-0.1 0-0.2 0-0.2 0-0.4 0.1-0.2 0.1-0.4 0.1-0.2 0.1-0.3 0.1-0.2 0.2-0.3 0.1-0.2 0.2-0.3 0.2-0.2 0.3-0.3 0.2-0.2 0.3-0.3 0.2-0.1 0.3-0.1 0.3-0.1 0.5-0.2 0.2-0.1 0.4-0.1 0.2-0.1 0.4-0.1 0.3 0 0.5 0 0.2 0 0.4 0 0.3 0 0.5 0.1 0.2 0 0.4 0.1 0.2 0.1 0.4 0.2 0.2 0.1 0.3 0.2 0.2 0.1 0.3 0.2 0.2 0.1 0.3 0.3 0.1 0.1 0.2 0.3 0.1 0.2 0.1 0.3 0.1 0.2 0.1 0.4 0.1 0.2 0.1 0.3 0 0.2 0 0.4h-2.2q0-0.1 0-0.2 0-0.1 0-0.2-0.1-0.1-0.1-0.2-0.1-0.1-0.1-0.2-0.1-0.1-0.2-0.1-0.1-0.1-0.2-0.1-0.1 0-0.2-0.1-0.1 0-0.2 0-0.1 0-0.2 0-0.1 0.1-0.2 0.1-0.1 0-0.2 0.1 0 0-0.1 0.1-0.1 0.1-0.2 0.1 0 0.1 0 0.2-0.1 0.1-0.1 0.2 0 0.1 0 0.2 0 0.1 0 0.2 0 0.1 0 0.2 0.1 0.1 0.1 0.2 0.1 0.1 0.1 0.2 0.1 0.1 0.2 0.2 0.1 0.2 0.2 0.3 0.1 0.1 0.2 0.2 0.1 0.1 0.2 0.3l2.8 2.7v-0.1l0.9-1.5h2.4l-1.2 2q0 0.2-0.1 0.3-0.1 0.2-0.2 0.3-0.1 0.2-0.2 0.3 0 0.1-0.1 0.3l2.7 2.7zm-2.6-2.6l-2.8-2.8q-0.3 0.1-0.6 0.3-0.3 0.2-0.5 0.5-0.2 0.3-0.3 0.6-0.1 0.3-0.1 0.6 0 0.2 0 0.4 0 0.2 0.1 0.3 0.1 0.2 0.2 0.3 0.1 0.1 0.2 0.3 0.2 0.1 0.3 0.2 0.2 0.1 0.4 0.1 0.2 0.1 0.4 0.1 0.2 0.1 0.3 0 0.4 0 0.7 0 0.3-0.1 0.6-0.2 0.3-0.1 0.6-0.3 0.2-0.2 0.5-0.4z"/>
				<path id="Layer" fill-rule="evenodd" class="s1" d="m747.4 236.7q0.4 0.2 0.7 0.4 0.3 0.2 0.5 0.5 0.3 0.2 0.5 0.5 0.2 0.3 0.4 0.6 0.2 0.4 0.3 0.7 0.2 0.4 0.3 0.7 0.1 0.4 0.1 0.8 0 0.4 0 0.8 0 0.4 0 0.7 0 0.4-0.1 0.8-0.1 0.4-0.3 0.7-0.1 0.4-0.3 0.7-0.2 0.3-0.4 0.6-0.2 0.3-0.5 0.5-0.3 0.3-0.5 0.5-0.3 0.2-0.7 0.3-0.3 0.2-0.7 0.4-0.4 0.1-0.8 0.2-0.4 0.1-0.8 0.1-0.4 0-0.8 0h-3.9v-11.2h3.9q0.4 0 0.8 0 0.4 0.1 0.8 0.2 0.4 0.1 0.8 0.2 0.4 0.1 0.7 0.3zm-0.4 7.6q0.2-0.2 0.4-0.5 0.2-0.4 0.4-0.7 0.1-0.4 0.1-0.7 0.1-0.4 0.1-0.8 0-0.3-0.1-0.7 0-0.4-0.1-0.7-0.2-0.4-0.4-0.7-0.2-0.3-0.4-0.6-0.3-0.3-0.6-0.5-0.3-0.2-0.7-0.3-0.3-0.1-0.7-0.2-0.4 0-0.7 0h-1.6v7.4h1.6q0.3 0 0.7 0 0.4-0.1 0.7-0.2 0.4-0.1 0.7-0.3 0.3-0.2 0.6-0.5z"/>
				<path id="Layer" class="s1" d="m753.1 236.9q0-0.1-0.1-0.2-0.1-0.1-0.1-0.2-0.1-0.1-0.1-0.3-0.1-0.1 0-0.2-0.1-0.2 0-0.3 0-0.1 0.1-0.2 0-0.2 0.1-0.3 0.1-0.1 0.1-0.2 0.1-0.1 0.3-0.1 0.1-0.1 0.2-0.2 0.1 0 0.3 0 0.1 0 0.2 0 0.2 0 0.3 0 0.2 0 0.3 0 0.1 0.1 0.2 0.2 0.1 0 0.2 0.1 0.1 0.1 0.2 0.2 0.1 0.1 0.1 0.3 0.1 0.1 0.1 0.2 0 0.1 0 0.3 0 0.1 0 0.2 0 0.2-0.1 0.3 0 0.1-0.1 0.2-0.1 0.1-0.1 0.2-0.1 0.1-0.3 0.2-0.1 0-0.2 0.1-0.1 0-0.3 0.1-0.1 0-0.3 0-0.1 0-0.2 0-0.2-0.1-0.3-0.1-0.1-0.1-0.2-0.1-0.2-0.1-0.3-0.2zm2.1 1.4v8.9h-2.2v-8.9z"/>
				<path id="Layer" class="s1" d="m760 247q-0.2-0.1-0.4-0.2-0.2-0.1-0.4-0.2-0.1-0.2-0.3-0.3-0.1-0.2-0.3-0.4-0.1-0.1-0.2-0.3-0.1-0.2-0.2-0.4 0-0.2-0.1-0.4 0-0.1 0-0.4h2.2q0.1 0.2 0.1 0.3 0 0.1 0.1 0.2 0.1 0.1 0.2 0.2 0 0.1 0.1 0.2 0.2 0.1 0.3 0.1 0.1 0.1 0.3 0.2 0.1 0 0.2 0 0.2 0 0.3 0 0.2 0 0.3 0 0.1 0 0.3 0 0.1-0.1 0.2-0.1 0.1-0.1 0.2-0.1 0.1-0.1 0.2-0.1 0.1-0.1 0.1-0.2 0.1-0.1 0.1-0.2 0-0.1 0-0.2 0-0.1 0-0.2-0.1-0.1-0.1-0.2-0.1-0.1-0.2-0.1 0-0.1-0.1-0.1-0.2-0.1-0.4-0.2-0.2 0-0.3-0.1-0.2-0.1-0.4-0.1-0.2-0.1-0.3-0.1-0.2 0-0.5-0.1-0.2-0.1-0.4-0.1-0.2-0.1-0.4-0.1-0.2-0.1-0.4-0.2-0.1-0.1-0.3-0.1-0.1-0.1-0.3-0.2-0.1-0.1-0.2-0.2-0.1-0.2-0.3-0.3-0.1-0.1-0.2-0.3-0.1-0.2-0.1-0.3-0.1-0.2-0.1-0.4 0-0.2 0-0.4 0-0.2 0-0.4 0-0.1 0.1-0.3 0-0.2 0.1-0.3 0.1-0.2 0.2-0.3 0.1-0.2 0.3-0.4 0.1-0.1 0.3-0.2 0.1-0.2 0.3-0.3 0.1-0.1 0.3-0.1 0.3-0.1 0.5-0.2 0.2-0.1 0.4-0.1 0.3-0.1 0.5-0.1 0.3 0 0.5 0 0.3 0 0.7 0 0.3 0.1 0.6 0.2 0.3 0.1 0.6 0.2 0.4 0.2 0.6 0.4 0.2 0.2 0.4 0.4 0.2 0.3 0.3 0.6 0.2 0.2 0.2 0.5 0.1 0.3 0.1 0.6h-2.1q0-0.1-0.1-0.2 0-0.1-0.1-0.2 0-0.1-0.1-0.2-0.1-0.1-0.2-0.2-0.1-0.1-0.2-0.1-0.1-0.1-0.2-0.1-0.2-0.1-0.3-0.1-0.1 0-0.3 0-0.1 0-0.2 0-0.1 0-0.2 0-0.2 0-0.3 0.1-0.1 0-0.2 0.1-0.1 0.1-0.1 0.1-0.1 0.1-0.1 0.2-0.1 0.1-0.1 0.1 0 0.1 0 0.2 0 0.1 0 0.2 0 0.1 0.1 0.2 0.1 0.1 0.1 0.2 0.1 0.1 0.2 0.1 0.2 0.1 0.4 0.2 0.1 0 0.3 0.1 0.2 0 0.4 0.1 0.1 0 0.3 0.1 0.2 0 0.4 0.1 0.2 0 0.4 0.1 0.2 0.1 0.4 0.1 0.2 0.1 0.4 0.2 0.2 0 0.3 0.1 0.2 0.1 0.3 0.2 0.1 0.1 0.2 0.2 0.2 0.1 0.3 0.3 0.1 0.1 0.2 0.3 0.1 0.2 0.1 0.3 0.1 0.2 0.1 0.4 0.1 0.2 0 0.4 0.1 0.2 0 0.3 0 0.2-0.1 0.4 0 0.2-0.1 0.3-0.1 0.2-0.2 0.4-0.1 0.1-0.2 0.3-0.2 0.1-0.3 0.2-0.2 0.1-0.3 0.2-0.2 0.1-0.4 0.2-0.2 0.1-0.4 0.2-0.3 0-0.5 0.1-0.2 0-0.5 0-0.2 0.1-0.4 0.1-0.3 0-0.5-0.1-0.3 0-0.5 0-0.3-0.1-0.5-0.1-0.3-0.1-0.5-0.2z"/>
				<path id="Layer" fill-rule="evenodd" class="s1" d="m771.8 238.6q0.2-0.1 0.4-0.2 0.2-0.1 0.4-0.1 0.2-0.1 0.5-0.1 0.2 0 0.4 0 0.3 0 0.5 0 0.3 0.1 0.5 0.1 0.3 0.1 0.5 0.2 0.3 0.1 0.5 0.3 0.2 0.1 0.5 0.3 0.2 0.1 0.3 0.3 0.2 0.2 0.4 0.5 0.1 0.2 0.3 0.4 0.2 0.6 0.4 1.2 0.1 0.6 0.1 1.2 0 0.7-0.1 1.3-0.2 0.6-0.4 1.1-0.2 0.3-0.3 0.5-0.2 0.2-0.3 0.5-0.2 0.2-0.4 0.3-0.3 0.2-0.5 0.4-0.2 0.1-0.5 0.2-0.2 0.1-0.5 0.2-0.2 0.1-0.5 0.1-0.2 0-0.5 0-0.2 0-0.4 0-0.3 0-0.5 0-0.2-0.1-0.4-0.2-0.2 0-0.4-0.1-0.2-0.1-0.4-0.2-0.1-0.2-0.3-0.3-0.1-0.1-0.3-0.3-0.1-0.1-0.2-0.2v1.2h-2.3v-11.8h2.3v4.2q0.1-0.1 0.2-0.3 0.2-0.1 0.3-0.3 0.2-0.1 0.3-0.2 0.2-0.1 0.4-0.2zm3.1 2.8q-0.1-0.3-0.3-0.5-0.2-0.3-0.5-0.4-0.3-0.2-0.6-0.3-0.3 0-0.6 0-0.1 0-0.3 0-0.1 0-0.3 0-0.1 0.1-0.2 0.1-0.2 0.1-0.3 0.2-0.1 0.1-0.3 0.2-0.1 0-0.2 0.2-0.1 0.1-0.2 0.2-0.1 0.1-0.2 0.3-0.1 0.3-0.2 0.7-0.1 0.3-0.1 0.7 0 0.3 0.1 0.7 0.1 0.3 0.2 0.7 0.2 0.4 0.6 0.7 0.4 0.3 0.8 0.4 0.5 0.1 0.9 0.1 0.5-0.1 0.9-0.3 0.1-0.1 0.3-0.2 0.1-0.1 0.2-0.2 0.1-0.2 0.2-0.3 0.1-0.1 0.2-0.3 0-0.1 0.1-0.3 0.1-0.2 0.1-0.3 0.1-0.2 0.1-0.4 0-0.2 0-0.4 0-0.1 0-0.3 0-0.2-0.1-0.4 0-0.2-0.1-0.3-0.1-0.2-0.2-0.3z"/>
				<path id="Layer" class="s1" d="m788.6 238.3v8.9h-2.2v-1.1q-0.1 0.1-0.2 0.3-0.2 0.1-0.3 0.2-0.2 0.1-0.3 0.2-0.2 0.1-0.3 0.2-0.2 0.1-0.4 0.1-0.2 0.1-0.4 0.1-0.2 0.1-0.4 0.1-0.2 0-0.4 0-0.2 0-0.4 0-0.3 0-0.5-0.1-0.2 0-0.5-0.1-0.2-0.1-0.4-0.2-0.2-0.1-0.4-0.3-0.2-0.1-0.3-0.3-0.2-0.1-0.3-0.3-0.1-0.2-0.3-0.4-0.1-0.3-0.2-0.5 0-0.2-0.1-0.5-0.1-0.2-0.1-0.5 0-0.3 0-0.5v-5.2h2.2v4.9q0 0.2 0.1 0.4 0 0.2 0 0.4 0.1 0.2 0.2 0.4 0.1 0.2 0.3 0.4 0.3 0.3 0.6 0.4 0.4 0.1 0.8 0.1 0.4 0 0.8-0.1 0.4-0.1 0.7-0.4 0.1-0.2 0.2-0.4 0.1-0.2 0.2-0.4 0-0.2 0.1-0.4 0-0.2 0-0.4v-4.9z"/>
				<path id="Layer" class="s1" d="m795.3 238.6q0.2-0.1 0.4-0.2 0.2 0 0.4-0.1 0.2 0 0.4-0.1 0.2 0 0.4 0v2.4h-0.6q-0.4-0.1-0.9 0-0.4 0.2-0.7 0.5-0.4 0.3-0.5 0.8-0.1 0.4 0 0.9v4.4h-2.3v-8.9h2.3v1.4q0.1-0.2 0.2-0.3 0.1-0.2 0.3-0.3 0.1-0.2 0.3-0.3 0.1-0.1 0.3-0.2z"/>
				<path id="Layer" class="s1" d="m800.9 247q-0.2-0.1-0.4-0.2-0.1-0.1-0.3-0.2-0.2-0.2-0.4-0.3-0.1-0.2-0.2-0.4-0.2-0.1-0.3-0.3-0.1-0.2-0.1-0.4-0.1-0.2-0.1-0.4-0.1-0.1-0.1-0.4h2.3q0 0.2 0 0.3 0.1 0.1 0.1 0.2 0.1 0.1 0.2 0.2 0.1 0.1 0.2 0.2 0.1 0.1 0.2 0.1 0.2 0.1 0.3 0.2 0.1 0 0.3 0 0.1 0 0.3 0 0.1 0 0.2 0 0.2 0 0.3 0 0.1-0.1 0.2-0.1 0.2-0.1 0.3-0.1 0.1-0.1 0.1-0.1 0.1-0.1 0.1-0.2 0.1-0.1 0.1-0.2 0-0.1 0-0.2 0-0.1 0-0.2 0-0.1-0.1-0.2 0-0.1-0.1-0.1-0.1-0.1-0.2-0.1-0.2-0.1-0.4-0.2-0.1 0-0.3-0.1-0.2-0.1-0.4-0.1-0.1-0.1-0.3-0.1-0.2 0-0.4-0.1-0.2-0.1-0.4-0.1-0.2-0.1-0.4-0.1-0.2-0.1-0.4-0.2-0.2-0.1-0.3-0.1-0.2-0.1-0.3-0.2-0.2-0.1-0.3-0.2-0.1-0.2-0.2-0.3-0.1-0.1-0.2-0.3-0.1-0.2-0.2-0.3 0-0.2-0.1-0.4 0-0.2 0-0.4 0-0.2 0-0.4 0.1-0.1 0.1-0.3 0.1-0.2 0.2-0.3 0-0.2 0.1-0.3 0.2-0.2 0.3-0.4 0.1-0.1 0.3-0.2 0.1-0.2 0.3-0.3 0.2-0.1 0.4-0.1 0.2-0.1 0.4-0.2 0.2-0.1 0.5-0.1 0.2-0.1 0.4-0.1 0.3 0 0.5 0 0.4 0 0.7 0 0.3 0.1 0.7 0.2 0.3 0.1 0.6 0.2 0.3 0.2 0.5 0.4 0.3 0.2 0.5 0.4 0.1 0.3 0.3 0.6 0.1 0.2 0.2 0.5 0 0.3 0 0.6h-2.1q0-0.1 0-0.2-0.1-0.1-0.1-0.2-0.1-0.1-0.2-0.2 0-0.1-0.1-0.2-0.1-0.1-0.3-0.2-0.1 0-0.2-0.1-0.2 0-0.3 0-0.1 0-0.3 0-0.1 0-0.2 0-0.1 0-0.3 0-0.1 0-0.2 0.1-0.1 0-0.2 0.1-0.1 0.1-0.2 0.1 0 0.1-0.1 0.2 0 0.1 0 0.1-0.1 0.1-0.1 0.2 0.1 0.1 0.1 0.2 0 0.1 0.1 0.2 0 0.1 0.1 0.2 0.1 0.1 0.2 0.1 0.2 0.1 0.3 0.2 0.2 0 0.4 0.1 0.2 0 0.3 0.1 0.2 0 0.4 0.1 0.2 0 0.4 0.1 0.2 0 0.4 0.1 0.2 0.1 0.4 0.1 0.2 0.1 0.4 0.2 0.1 0 0.3 0.1 0.1 0.1 0.3 0.2 0.1 0.1 0.2 0.2 0.2 0.1 0.3 0.3 0.1 0.1 0.2 0.3 0.1 0.2 0.1 0.3 0.1 0.2 0.1 0.4 0 0.2 0 0.4 0 0.2 0 0.3 0 0.2-0.1 0.4 0 0.2-0.1 0.3-0.1 0.2-0.2 0.4-0.1 0.1-0.2 0.3-0.2 0.1-0.3 0.2-0.2 0.1-0.4 0.2-0.1 0.1-0.3 0.2-0.2 0.1-0.5 0.2-0.2 0-0.4 0.1-0.3 0-0.5 0-0.2 0.1-0.5 0.1-0.2 0-0.4-0.1-0.3 0-0.5 0-0.3-0.1-0.5-0.1-0.2-0.1-0.5-0.2z"/>
				<path id="Layer" fill-rule="evenodd" class="s1" d="m809.3 240.3q0.1-0.2 0.2-0.4 0.2-0.2 0.4-0.4 0.2-0.3 0.4-0.4 0.2-0.2 0.4-0.4 0.2-0.1 0.5-0.2 0.2-0.1 0.5-0.2 0.3 0 0.5-0.1 0.3 0 0.6 0 0.4 0 0.8 0.1 0.4 0.1 0.8 0.2 0.4 0.2 0.7 0.5 0.3 0.3 0.6 0.6v-1.3h2.3v8.9h-2.3v-1.3q-0.1 0.2-0.3 0.3-0.1 0.1-0.2 0.3-0.2 0.1-0.4 0.2-0.1 0.1-0.3 0.2-0.2 0.1-0.4 0.2-0.2 0.1-0.4 0.1-0.3 0.1-0.5 0.1-0.2 0-0.4 0-0.3 0-0.6 0-0.2-0.1-0.5-0.1-0.2-0.1-0.5-0.2-0.2-0.1-0.4-0.3-0.3-0.1-0.5-0.3-0.2-0.2-0.4-0.4-0.2-0.2-0.3-0.4-0.2-0.3-0.3-0.5-0.3-0.6-0.4-1.2-0.1-0.6-0.1-1.2 0-0.6 0.1-1.2 0.1-0.6 0.4-1.2zm6.1 1q-0.1-0.1-0.1-0.3-0.1-0.1-0.3-0.2-0.1-0.1-0.2-0.2-0.1-0.1-0.2-0.2-0.2-0.1-0.3-0.1-0.2-0.1-0.3-0.1-0.2-0.1-0.3-0.1-0.2 0-0.3 0-0.2 0-0.3 0-0.2 0-0.3 0.1-0.2 0-0.3 0.1-0.1 0-0.3 0.1-0.1 0.1-0.2 0.2-0.1 0.1-0.3 0.2-0.1 0.1-0.2 0.2 0 0.2-0.1 0.3-0.1 0.1-0.2 0.3 0 0.2-0.1 0.4 0 0.1 0 0.3-0.1 0.2 0 0.4-0.1 0.2 0 0.3 0 0.2 0 0.4 0.1 0.2 0.1 0.3 0.1 0.2 0.2 0.4 0.1 0.1 0.1 0.2 0.1 0.2 0.3 0.3 0.1 0.1 0.2 0.2 0.1 0.1 0.2 0.2 0.2 0.1 0.3 0.1 0.1 0.1 0.3 0.1 0.1 0.1 0.3 0.1 0.1 0 0.3 0 0.1 0 0.3 0 0.1 0 0.3-0.1 0.1 0 0.3-0.1 0.1 0 0.3-0.1 0.1-0.1 0.2-0.2 0.1-0.1 0.3-0.2 0.1-0.1 0.2-0.2 0-0.1 0.1-0.3 0.2-0.3 0.3-0.7 0-0.3 0-0.7 0-0.4 0-0.7-0.1-0.4-0.3-0.7z"/>
				<path id="Layer" class="s1" d="m823.5 235.4v11.8h-2.3v-11.8z"/>
				<path id="Layer" class="s1" d="m828.2 247q-0.2-0.1-0.4-0.2-0.2-0.1-0.3-0.2-0.2-0.2-0.4-0.3-0.1-0.2-0.3-0.4-0.1-0.1-0.2-0.3-0.1-0.2-0.1-0.4-0.1-0.2-0.2-0.4 0-0.1 0-0.4h2.3q0 0.2 0 0.3 0 0.1 0.1 0.2 0.1 0.1 0.2 0.2 0 0.1 0.2 0.2 0.1 0.1 0.2 0.1 0.1 0.1 0.3 0.2 0.1 0 0.3 0 0.1 0 0.3 0 0.1 0 0.2 0 0.1 0 0.3 0 0.1-0.1 0.2-0.1 0.1-0.1 0.3-0.1 0-0.1 0.1-0.1 0.1-0.1 0.1-0.2 0.1-0.1 0.1-0.2 0-0.1 0-0.2 0-0.1 0-0.2-0.1-0.1-0.1-0.2-0.1-0.1-0.2-0.1 0-0.1-0.1-0.1-0.2-0.1-0.4-0.2-0.1 0-0.3-0.1-0.2-0.1-0.4-0.1-0.2-0.1-0.3-0.1-0.2 0-0.4-0.1-0.2-0.1-0.5-0.1-0.2-0.1-0.4-0.1-0.2-0.1-0.4-0.2-0.1-0.1-0.3-0.1-0.1-0.1-0.2-0.2-0.2-0.1-0.3-0.2-0.1-0.2-0.2-0.3-0.2-0.1-0.3-0.3 0-0.2-0.1-0.3-0.1-0.2-0.1-0.4 0-0.2 0-0.4 0-0.2 0-0.4 0.1-0.1 0.1-0.3 0.1-0.2 0.1-0.3 0.1-0.2 0.2-0.3 0.1-0.2 0.3-0.4 0.1-0.1 0.3-0.2 0.1-0.2 0.3-0.3 0.2-0.1 0.3-0.1 0.3-0.1 0.5-0.2 0.2-0.1 0.5-0.1 0.2-0.1 0.4-0.1 0.3 0 0.5 0 0.3 0 0.7 0 0.3 0.1 0.6 0.2 0.4 0.1 0.7 0.2 0.3 0.2 0.5 0.4 0.3 0.2 0.4 0.4 0.2 0.3 0.4 0.6 0.1 0.2 0.2 0.5 0 0.3 0 0.6h-2.1q0-0.1-0.1-0.2 0-0.1 0-0.2-0.1-0.1-0.2-0.2-0.1-0.1-0.2-0.2-0.1-0.1-0.2-0.1-0.1-0.1-0.2-0.1-0.2-0.1-0.3-0.1-0.1 0-0.3 0-0.1 0-0.2 0-0.1 0-0.2 0-0.2 0-0.3 0.1-0.1 0-0.2 0.1-0.1 0.1-0.1 0.1-0.1 0.1-0.1 0.2-0.1 0.1-0.1 0.1 0 0.1 0 0.2 0 0.1 0 0.2 0 0.1 0.1 0.2 0.1 0.1 0.1 0.2 0.1 0.1 0.2 0.1 0.2 0.1 0.4 0.2 0.1 0 0.3 0.1 0.2 0 0.4 0.1 0.1 0 0.3 0.1 0.2 0 0.4 0.1 0.2 0 0.4 0.1 0.2 0.1 0.4 0.1 0.2 0.1 0.4 0.2 0.2 0 0.3 0.1 0.2 0.1 0.3 0.2 0.1 0.1 0.3 0.2 0.1 0.1 0.2 0.3 0.1 0.1 0.2 0.3 0.1 0.2 0.1 0.3 0.1 0.2 0.1 0.4 0.1 0.2 0.1 0.4 0 0.2-0.1 0.3 0 0.2 0 0.4-0.1 0.2-0.2 0.3-0.1 0.2-0.2 0.4-0.1 0.1-0.2 0.3-0.2 0.1-0.3 0.2-0.2 0.1-0.3 0.2-0.2 0.1-0.4 0.2-0.2 0.1-0.4 0.2-0.3 0-0.5 0.1-0.2 0-0.5 0-0.2 0-0.4 0-0.3 0-0.5 0-0.3 0-0.5 0-0.3-0.1-0.5-0.1-0.3-0.1-0.5-0.2z"/>
			</g>
		</g>
		<path id="Rectangle_22531" class="s2" d="m380.4 253h168.6v113.1h-168.6z"/>
		<path id="Rectangle_22532" class="s2" d="m380.4 253h168.6v113.1h-168.6z"/>
		<path id="Path_78055" fill-rule="evenodd" class="s3" d="m376.8 188.9q0.2 0.7 0.4 1.5 0.2 0.7 0.3 1.5 0.1 0.8 0.2 1.6 0.1 0.8 0 1.5 0 1 0 1.9-0.1 0.9-0.2 1.8-0.1 0.9-0.3 1.8-0.1 0.9-0.4 1.8-0.2 0.9-0.5 1.8-0.2 0.8-0.6 1.7-0.3 0.8-0.7 1.7-0.3 0.8-0.8 1.6-0.4 0.8-0.8 1.5-0.4 0.8-0.9 1.5-0.5 0.7-1.1 1.4-0.5 0.7-1.1 1.4-0.5 0.6-1.1 1.1-0.6 0.6-1.2 1.1-0.6 0.5-1.3 1-0.6 0.4-1.3 0.8-0.6 0.4-1.2 0.7-0.6 0.3-1.2 0.5-0.6 0.2-1.3 0.3-0.6 0.1-1.3 0.2-0.5 0-1.1-0.1-0.5 0-1-0.2-0.5-0.1-1-0.4-0.4-0.2-0.8-0.6-0.5-0.3-0.9-0.8-0.4-0.4-0.7-0.9-0.3-0.5-0.6-1-0.3-0.5-0.4-1.1-0.3-0.7-0.5-1.5-0.2-0.7-0.3-1.5-0.2-0.8-0.2-1.6-0.1-0.7-0.1-1.5 0-0.9 0.1-1.9 0.1-0.9 0.2-1.8 0.1-0.9 0.3-1.8 0.1-0.9 0.4-1.8 0.2-0.9 0.5-1.7 0.2-0.9 0.6-1.8 0.3-0.8 0.7-1.6 0.3-0.9 0.7-1.7 0.5-0.8 0.9-1.5 0.4-0.8 0.9-1.5 0.5-0.7 1.1-1.4 0.5-0.7 1.1-1.4 0.5-0.6 1.1-1.1 0.5-0.6 1.2-1.1 0.6-0.5 1.2-1 0.7-0.5 1.4-0.9 0.6-0.3 1.2-0.6 0.6-0.3 1.2-0.5 0.6-0.2 1.2-0.3 0.7-0.1 1.3-0.2 0.6 0 1.1 0.1 0.5 0 1 0.2 0.6 0.2 1 0.4 0.5 0.2 0.9 0.6 0.5 0.3 0.9 0.8 0.4 0.4 0.7 0.9 0.3 0.5 0.6 1 0.3 0.5 0.4 1.1zm-6 14.2q0.2-0.5 0.2-1.1 0.1-0.5 0.2-1.1 0-0.5 0-1 0.1-0.6 0.1-1.1 0-0.5 0-1-0.1-0.5-0.1-0.9-0.1-0.5-0.2-1-0.1-0.5-0.2-0.9 0-0.4-0.2-0.7-0.1-0.3-0.2-0.6-0.2-0.3-0.4-0.6-0.2-0.3-0.4-0.6-0.2-0.2-0.4-0.4-0.2-0.1-0.5-0.3-0.2-0.1-0.5-0.2-0.2-0.1-0.5-0.1-0.3 0-0.6 0-0.3 0.1-0.6 0.2-0.3 0-0.6 0.2-0.3 0.1-0.6 0.3-0.3 0.2-0.6 0.4-0.4 0.2-0.7 0.5-0.3 0.3-0.6 0.6-0.2 0.3-0.5 0.6-0.3 0.3-0.5 0.7-0.3 0.4-0.5 0.8-0.3 0.4-0.5 0.8-0.2 0.4-0.4 0.8-0.2 0.5-0.4 1-0.1 0.4-0.3 0.9-0.1 0.5-0.3 1-0.1 0.5-0.2 1-0.1 0.5-0.2 1.1 0 0.5-0.1 1-0.1 0.6-0.1 1.1 0 0.6 0 1.1 0 0.5 0 1 0 0.4 0.1 0.9 0 0.5 0.1 1 0.1 0.4 0.2 0.9 0.1 0.3 0.2 0.7 0.2 0.3 0.3 0.6 0.2 0.3 0.4 0.6 0.1 0.3 0.4 0.5 0.1 0.2 0.4 0.4 0.2 0.2 0.4 0.3 0.3 0.1 0.5 0.2 0.3 0.1 0.6 0.1 0.3 0.1 0.6 0 0.3 0 0.6-0.1 0.3-0.1 0.6-0.2 0.3-0.2 0.6-0.3 0.3-0.2 0.7-0.5 0.3-0.2 0.6-0.5 0.3-0.2 0.5-0.5 0.3-0.3 0.6-0.6 0.2-0.4 0.5-0.8 0.3-0.3 0.5-0.7 0.2-0.4 0.4-0.8 0.3-0.4 0.4-0.9 0.2-0.4 0.4-0.9 0.2-0.5 0.3-1 0.2-0.4 0.3-0.9 0.2-0.5 0.2-1z"/>
		<path id="Path_78056" class="s3" d="m394.1 169.6q0.6-0.3 1.1-0.6 0.5-0.3 1.1-0.5 0.5-0.2 1.1-0.4 0.6-0.2 1.1-0.3 0.4-0.1 0.8-0.2 0.4 0 0.9 0 0.4 0 0.8 0 0.4 0.1 0.8 0.2 0.3 0.2 0.6 0.3 0.3 0.2 0.6 0.4 0.2 0.3 0.4 0.6 0.2 0.2 0.4 0.5 0.2 0.4 0.3 0.8 0.1 0.5 0.2 0.9 0.1 0.4 0.2 0.8 0 0.5 0 0.9 0 0.5 0 1-0.1 0.5-0.2 0.9 0 0.5-0.2 1-0.1 0.5-0.2 0.9-0.2 0.5-0.4 0.9-0.1 0.5-0.3 0.9-0.2 0.5-0.5 0.9-0.2 0.5-0.4 0.9-0.2 0.4-0.5 0.8-0.2 0.4-0.5 0.8-0.3 0.4-0.5 0.8-0.3 0.4-0.6 0.8-1.1 1.5-2.2 2.8c-0.7 0.8-1.2 1.5-2 2.4-0.8 0.9-1.5 1.8-2.2 2.8-0.7 1-1.4 2-2 3q-0.2 0.3-0.4 0.6-0.1 0.3-0.3 0.6-0.2 0.4-0.4 0.7-0.1 0.3-0.3 0.7l14.6-8.5v6.7l-23.2 13.4q0-0.6 0-1.2 0.1-0.5 0.1-1.1 0-0.6 0.1-1.2 0.1-0.6 0.2-1.2 0-0.5 0.2-1.1 0.1-0.6 0.2-1.1 0.2-0.6 0.3-1.1 0.2-0.6 0.4-1.1 0.3-0.6 0.5-1.2 0.3-0.5 0.6-1.1 0.2-0.6 0.6-1.1 0.3-0.6 0.6-1.1 0.4-0.7 0.9-1.3 0.4-0.7 0.9-1.3 0.5-0.7 1-1.3 0.4-0.6 0.9-1.2l3.5-4.2q1.5-1.8 2.5-3.1 0.3-0.3 0.5-0.6 0.2-0.3 0.4-0.6 0.2-0.3 0.3-0.6 0.2-0.3 0.4-0.7 0.1-0.2 0.2-0.5 0.1-0.2 0.2-0.5 0-0.3 0.1-0.6 0-0.2 0-0.5 0-0.3 0-0.7-0.1-0.3-0.2-0.6-0.2-0.3-0.4-0.5-0.3-0.2-0.6-0.4-1.1-0.5-3.3 0.7-0.3 0.2-0.5 0.4-0.3 0.2-0.6 0.4-0.3 0.2-0.5 0.4-0.3 0.2-0.5 0.4-0.2 0.2-0.5 0.5-0.2 0.2-0.4 0.5-0.3 0.2-0.5 0.5-0.2 0.2-0.4 0.5-0.2 0.3-0.4 0.6-0.2 0.2-0.4 0.5-0.2 0.3-0.4 0.6-0.2 0.3-0.3 0.5-0.7 1.2-1.3 2.4l-4.2-3.1q0.2-0.4 0.5-0.7 0.2-0.4 0.4-0.7 0.2-0.3 0.4-0.7 0.3-0.3 0.5-0.6 0.3-0.5 0.7-0.9 0.3-0.4 0.6-0.8 0.4-0.4 0.7-0.8 0.4-0.4 0.7-0.8 0.4-0.5 0.9-0.9 0.4-0.4 0.8-0.8 0.4-0.4 0.9-0.8 0.4-0.5 0.9-0.8 0.5-0.4 1-0.8 0.5-0.4 1-0.8 0.5-0.3 1-0.7 0.5-0.3 1.1-0.6"/>
		<path id="Rectangle_22533" class="s2" d="m433.6 242.4h56.3v32h-56.3z"/>
		<path id="Rectangle_22534" class="s2" d="m22.8 16.9l834.8 0.1v446.9l-834.8 0.1z"/>
		<path id="Rectangle_22536-4" class="s2" d="m688.9 112.6h142.5v95.6h-142.5z"/>
		<path id="Rectangle_22537" class="s2" d="m688.9 112.6h142.5v95.6h-142.5z"/>
		<path id="Path_78064" class="s3" d="m691.6 21.3q0.5-0.2 0.9-0.5 0.5-0.2 0.9-0.4 0.5-0.2 0.9-0.3 0.5-0.2 1-0.3 0.4-0.1 0.7-0.2 0.4 0 0.7 0 0.4 0 0.8 0 0.3 0.1 0.7 0.2 0.3 0.1 0.5 0.2 0.3 0.1 0.6 0.3 0.2 0.2 0.4 0.4 0.2 0.3 0.4 0.5 0.1 0.4 0.3 0.7 0.1 0.4 0.2 0.7 0.1 0.4 0.1 0.8 0 0.4 0 0.7 0 0.4 0 0.8 0 0.3-0.1 0.7 0 0.3-0.1 0.7-0.1 0.3-0.1 0.6-0.1 0.4-0.2 0.8-0.1 0.3-0.3 0.7-0.1 0.3-0.2 0.7-0.2 0.3-0.3 0.7-0.2 0.3-0.4 0.6-0.2 0.4-0.4 0.7-0.2 0.3-0.4 0.6-0.2 0.4-0.4 0.7-0.3 0.3-0.5 0.5-0.2 0.3-0.5 0.6-0.2 0.2-0.5 0.5-0.3 0.2-0.5 0.4 0.4-0.2 1-0.3 0.5-0.1 1 0 0.6 0 1 0.2 0.5 0.2 1 0.6 1.5 1.3 1.5 4.5 0 0.5 0 1.1-0.1 0.5-0.2 1-0.1 0.6-0.2 1.1-0.1 0.5-0.3 1-0.2 0.6-0.4 1.1-0.2 0.6-0.5 1.1-0.2 0.5-0.5 1-0.3 0.5-0.6 1-0.4 0.5-0.7 1-0.4 0.5-0.8 0.9-0.4 0.5-0.9 0.9-0.4 0.5-0.8 0.9-0.5 0.4-1.1 0.9-0.5 0.4-1 0.8-0.6 0.4-1.1 0.7-0.6 0.4-1.2 0.7-0.6 0.4-1.2 0.7-0.7 0.3-1.4 0.6-0.6 0.2-1.3 0.4-0.7 0.1-1.4 0.2-0.5 0.1-1 0.1-0.6 0-1.1-0.2-0.4-0.1-0.9-0.3-0.5-0.2-0.9-0.5l3-6.1q0.3 0.2 0.6 0.4 0.2 0.2 0.6 0.3 0.3 0.1 0.6 0.2 0.3 0 0.7 0 0.5 0 0.9-0.1 0.5-0.1 0.9-0.3 0.5-0.2 0.9-0.4 0.4-0.2 0.8-0.4 0.6-0.3 1.1-0.7 0.5-0.3 1-0.7 0.4-0.4 0.8-0.9 0.4-0.5 0.8-0.9 0.3-0.5 0.6-1 0.2-0.5 0.4-1 0.1-0.5 0.2-1.1 0.1-0.5 0.1-1 0-2.4-1.5-2.8-1.5-0.5-4.4 1.3l-1.1 0.6v-4.6l1.2-0.7q0.6-0.3 1.1-0.6 0.5-0.4 1-0.9 0.5-0.4 0.9-0.9 0.4-0.5 0.8-1 0.3-0.4 0.5-0.9 0.3-0.5 0.4-1 0.2-0.5 0.3-1 0.1-0.6 0.1-1.1c0-1.2-0.4-2-1.1-2.1q-0.4-0.1-0.8-0.1-0.3 0.1-0.7 0.2-0.4 0.1-0.7 0.2-0.4 0.2-0.7 0.4-0.5 0.3-0.9 0.6-0.4 0.3-0.8 0.7-0.5 0.3-0.8 0.7-0.4 0.4-0.8 0.9-0.3 0.4-0.6 0.9-0.4 0.5-0.7 1-0.3 0.5-0.5 1-0.3 0.5-0.5 1.1l-3.3-2.4q0.1-0.4 0.3-0.7 0.2-0.4 0.4-0.7 0.2-0.4 0.4-0.7 0.2-0.4 0.4-0.7 0.6-0.7 1.1-1.4 0.6-0.7 1.2-1.4 0.6-0.7 1.3-1.3 0.7-0.6 1.4-1.2 0.3-0.2 0.7-0.5 0.4-0.3 0.7-0.5 0.4-0.3 0.8-0.6 0.4-0.2 0.8-0.4"/>
		<g id="Online_Application_Process">
			<g id="Layer">
				<path id="Layer" fill-rule="evenodd" class="s1" d="m62.6 225.2q-0.3-0.2-0.6-0.4-0.3-0.2-0.5-0.5-0.3-0.2-0.5-0.5-0.3-0.3-0.4-0.6-0.2-0.3-0.4-0.7-0.1-0.4-0.2-0.7-0.1-0.4-0.2-0.8 0-0.4 0-0.8 0-0.4 0-0.8 0.1-0.3 0.2-0.7 0.1-0.4 0.2-0.7 0.2-0.4 0.4-0.7 0.1-0.3 0.4-0.6 0.2-0.3 0.5-0.6 0.2-0.2 0.5-0.4 0.3-0.3 0.6-0.4 0.7-0.4 1.4-0.6 0.8-0.2 1.5-0.2 0.8 0 1.5 0.2 0.7 0.2 1.4 0.6 0.3 0.1 0.6 0.4 0.3 0.2 0.6 0.4 0.2 0.3 0.5 0.6 0.2 0.3 0.4 0.6 0.2 0.3 0.3 0.7 0.1 0.3 0.2 0.7 0.1 0.4 0.2 0.7 0 0.4 0 0.8 0 0.4 0 0.8-0.1 0.4-0.2 0.8-0.1 0.3-0.2 0.7-0.1 0.4-0.3 0.7-0.2 0.3-0.5 0.6-0.2 0.3-0.4 0.5-0.3 0.3-0.6 0.5-0.3 0.2-0.6 0.4-0.7 0.4-1.4 0.5-0.7 0.2-1.5 0.2-0.7 0-1.5-0.2-0.7-0.1-1.4-0.5zm4.7-1.7q0.2-0.1 0.4-0.3 0.1-0.1 0.3-0.3 0.1-0.2 0.3-0.3 0.1-0.2 0.2-0.4 0.2-0.5 0.3-1 0.1-0.5 0.1-1 0-0.5-0.1-1-0.1-0.5-0.3-1-0.1-0.2-0.2-0.3-0.2-0.2-0.3-0.4-0.2-0.2-0.4-0.3-0.1-0.1-0.3-0.2-0.2-0.2-0.4-0.2-0.3-0.1-0.5-0.2-0.2 0-0.4-0.1-0.3 0-0.5 0-0.2 0-0.5 0-0.2 0.1-0.4 0.1-0.2 0.1-0.5 0.2-0.2 0-0.4 0.2-0.2 0.1-0.3 0.2-0.2 0.2-0.4 0.3-0.1 0.2-0.3 0.4-0.1 0.1-0.2 0.3-0.2 0.5-0.3 1-0.1 0.5-0.1 1 0 0.5 0.1 1 0.1 0.5 0.3 1 0.1 0.2 0.2 0.4 0.2 0.1 0.3 0.3 0.2 0.2 0.4 0.3 0.1 0.2 0.3 0.3 0.2 0.1 0.4 0.2 0.3 0.1 0.5 0.1 0.2 0.1 0.4 0.1 0.3 0 0.5 0 0.2 0 0.5 0 0.2 0 0.4-0.1 0.2 0 0.5-0.1 0.2-0.1 0.4-0.2z"/>
				<path id="Layer" class="s1" d="m81.4 217.8q0.3 0.3 0.5 0.6 0.2 0.4 0.3 0.7 0.1 0.4 0.2 0.8 0.1 0.3 0 0.7v5.2h-2.2v-4.9q0-0.2 0-0.4-0.1-0.2-0.1-0.4-0.1-0.2-0.2-0.4-0.1-0.2-0.2-0.4-0.2-0.1-0.4-0.3-0.1-0.1-0.3-0.1-0.2-0.1-0.4-0.1-0.2-0.1-0.4-0.1-0.2 0-0.4 0.1-0.2 0-0.4 0.1-0.2 0-0.3 0.1-0.2 0.2-0.3 0.3-0.2 0.2-0.3 0.4-0.1 0.1-0.2 0.4 0 0.2-0.1 0.4 0 0.2 0 0.4v4.9h-2.2v-8.8h2.2v1.1q0.2-0.1 0.3-0.3 0.1-0.1 0.3-0.2 0.1-0.1 0.3-0.2 0.1-0.1 0.3-0.2 0.2-0.1 0.4-0.1 0.1-0.1 0.3-0.2 0.2 0 0.4 0 0.2 0 0.4 0 0.4 0 0.7 0 0.3 0.1 0.7 0.2 0.3 0.1 0.6 0.3 0.3 0.2 0.5 0.4z"/>
				<path id="Layer" class="s1" d="m87.9 214v11.8h-2.3v-11.8z"/>
				<path id="Layer" class="s1" d="m91.3 215.5q-0.1-0.1-0.1-0.2-0.1-0.1-0.2-0.2 0-0.1 0-0.3-0.1-0.1-0.1-0.2 0-0.1 0.1-0.3 0-0.1 0-0.2 0.1-0.1 0.2-0.3 0-0.1 0.1-0.1 0.2-0.2 0.5-0.3 0.2-0.1 0.5-0.1 0.3 0 0.6 0.1 0.2 0.1 0.4 0.3 0.1 0 0.2 0.1 0.1 0.2 0.1 0.3 0.1 0.1 0.1 0.2 0 0.2 0 0.3 0 0.1 0 0.2 0 0.2-0.1 0.3 0 0.1-0.1 0.2-0.1 0.1-0.2 0.2-0.2 0.2-0.4 0.3-0.3 0.1-0.6 0.1-0.3 0-0.5-0.1-0.3-0.1-0.5-0.3zm2.1 1.5v8.9h-2.2v-8.9z"/>
				<path id="Layer" class="s1" d="m104.2 217.8q0.2 0.3 0.4 0.6 0.2 0.4 0.4 0.7 0.1 0.4 0.1 0.8 0.1 0.3 0.1 0.7v5.2h-2.3v-4.9q0.1-0.2 0-0.4 0-0.2-0.1-0.4 0-0.2-0.1-0.4-0.2-0.2-0.3-0.4-0.1-0.1-0.3-0.3-0.2-0.1-0.3-0.1-0.2-0.1-0.4-0.1-0.2-0.1-0.4-0.1-0.2 0-0.4 0.1-0.2 0-0.4 0.1-0.2 0-0.4 0.1-0.2 0.2-0.3 0.3-0.1 0.2-0.2 0.4-0.2 0.2-0.2 0.4-0.1 0.2-0.1 0.4 0 0.2 0 0.4v4.9h-2.3v-8.8h2.3v1.1q0.1-0.1 0.2-0.3 0.2-0.1 0.3-0.2 0.2-0.1 0.3-0.2 0.2-0.1 0.3-0.2 0.2-0.1 0.4-0.1 0.2-0.1 0.4-0.2 0.2 0 0.4 0 0.2 0 0.4 0 0.3 0 0.7 0 0.3 0.1 0.6 0.2 0.3 0.1 0.6 0.3 0.3 0.2 0.6 0.4z"/>
				<path id="Layer" fill-rule="evenodd" class="s1" d="m116.5 222.1h-6.4q0 0.2 0 0.4 0.1 0.2 0.2 0.4 0 0.2 0.2 0.3 0.1 0.2 0.2 0.4 0.2 0.1 0.4 0.2 0.1 0.1 0.3 0.2 0.2 0.1 0.4 0.1 0.2 0 0.4 0 0.3 0 0.6 0 0.2-0.1 0.5-0.3 0.2-0.1 0.4-0.3 0.2-0.2 0.3-0.5h2.4q-0.1 0.3-0.2 0.6-0.2 0.3-0.3 0.6-0.2 0.2-0.5 0.5-0.2 0.2-0.4 0.4-0.3 0.2-0.7 0.4-0.3 0.1-0.6 0.2-0.4 0.1-0.7 0.2-0.4 0-0.7 0-0.3 0-0.6 0-0.3 0-0.6-0.1-0.3-0.1-0.6-0.2-0.3-0.1-0.5-0.2-0.3-0.2-0.5-0.4-0.2-0.1-0.4-0.3-0.2-0.2-0.4-0.5-0.2-0.2-0.3-0.5-0.2-0.2-0.3-0.5-0.1-0.3-0.1-0.6-0.1-0.3-0.1-0.6-0.1-0.3-0.1-0.7 0-0.3 0.1-0.6 0-0.3 0.1-0.6 0-0.3 0.1-0.6 0.1-0.3 0.3-0.6 0.1-0.2 0.3-0.5 0.2-0.2 0.4-0.4 0.2-0.2 0.4-0.4 0.2-0.1 0.4-0.3 0.3-0.1 0.6-0.2 0.3-0.1 0.6-0.2 0.3-0.1 0.6-0.1 0.3 0 0.6 0 0.3 0 0.6 0 0.3 0 0.5 0.1 0.3 0.1 0.6 0.2 0.3 0.1 0.5 0.2 0.3 0.2 0.5 0.3 0.2 0.2 0.4 0.4 0.2 0.2 0.4 0.4 0.2 0.2 0.3 0.5 0.1 0.2 0.2 0.5 0.1 0.3 0.2 0.6 0.1 0.3 0.1 0.6 0 0.3 0 0.6 0 0.1 0 0.2 0 0.1 0 0.2 0 0.1 0 0.2 0 0.1-0.1 0.3zm-2.2-1.5q0-0.2 0-0.4-0.1-0.2-0.2-0.4 0-0.2-0.2-0.3-0.1-0.2-0.2-0.3-0.2-0.2-0.4-0.3-0.1-0.1-0.3-0.1-0.2-0.1-0.4-0.1-0.2-0.1-0.4 0-0.2-0.1-0.4 0-0.2 0-0.4 0.1-0.1 0-0.3 0.1-0.2 0.1-0.3 0.3-0.2 0.1-0.3 0.3-0.1 0.1-0.2 0.3-0.1 0.2-0.1 0.4-0.1 0.2-0.1 0.4z"/>
				<path id="Layer" fill-rule="evenodd" class="s1" d="m131.1 223.7h-4.5l-0.7 2.1h-2.4l4-11.2h2.6l4 11.2h-2.3zm-0.6-1.8l-1.7-4.6-1.6 4.6z"/>
				<path id="Layer" fill-rule="evenodd" class="s1" d="m140.2 217.2q0.2-0.1 0.4-0.2 0.2 0 0.4-0.1 0.3 0 0.5-0.1 0.2 0 0.4 0 0.3 0 0.6 0 0.2 0.1 0.5 0.1 0.3 0.1 0.5 0.2 0.3 0.1 0.5 0.3 0.2 0.1 0.4 0.3 0.2 0.2 0.4 0.4 0.2 0.2 0.4 0.4 0.1 0.2 0.3 0.5 0.1 0.2 0.2 0.5 0.1 0.3 0.2 0.6 0 0.3 0.1 0.6 0 0.3 0 0.7 0 0.3 0 0.6-0.1 0.3-0.1 0.6-0.1 0.3-0.2 0.6-0.1 0.3-0.3 0.6-0.1 0.2-0.2 0.4-0.2 0.3-0.4 0.5-0.2 0.2-0.4 0.4-0.2 0.1-0.4 0.3-0.2 0.1-0.5 0.2-0.2 0.1-0.5 0.2-0.3 0.1-0.5 0.1-0.3 0.1-0.6 0.1-0.2 0-0.4-0.1-0.2 0-0.4 0-0.3-0.1-0.5-0.2-0.2 0-0.4-0.1-0.2-0.1-0.3-0.2-0.2-0.1-0.3-0.3-0.2-0.1-0.3-0.2-0.2-0.2-0.3-0.3v5.4h-2.2v-13h2.2v1.3q0.1-0.2 0.3-0.3 0.1-0.2 0.2-0.3 0.2-0.2 0.4-0.3 0.1-0.1 0.3-0.2zm3.2 2.8q-0.2-0.3-0.4-0.5-0.2-0.2-0.5-0.4-0.2-0.2-0.5-0.2-0.3-0.1-0.6-0.1-0.2 0-0.3 0-0.2 0-0.3 0.1-0.2 0-0.3 0.1-0.1 0-0.3 0.1-0.1 0.1-0.2 0.2-0.2 0.1-0.3 0.2-0.1 0.1-0.2 0.2-0.1 0.2-0.1 0.3-0.2 0.3-0.3 0.7-0.1 0.3-0.1 0.7 0 0.4 0.1 0.7 0.1 0.4 0.3 0.7 0 0.1 0.1 0.2 0.1 0.2 0.2 0.3 0.1 0.1 0.3 0.2 0.1 0.1 0.2 0.2 0.2 0.1 0.3 0.1 0.1 0.1 0.3 0.1 0.1 0.1 0.3 0.1 0.1 0 0.3 0 0.1 0 0.3 0 0.1 0 0.3-0.1 0.1 0 0.3-0.1 0.1 0 0.2-0.1 0.2-0.1 0.3-0.2 0.1-0.1 0.2-0.2 0.1-0.1 0.2-0.3 0.1-0.1 0.2-0.2 0.1-0.2 0.1-0.4 0.1-0.1 0.1-0.3 0.1-0.2 0.1-0.4 0-0.2 0-0.3 0-0.2 0-0.4 0-0.2-0.1-0.3 0-0.2-0.1-0.4 0-0.1-0.1-0.3z"/>
				<path id="Layer" fill-rule="evenodd" class="s1" d="m152.1 217.2q0.2-0.1 0.5-0.2 0.2 0 0.4-0.1 0.2 0 0.4-0.1 0.3 0 0.5 0 0.2 0 0.5 0 0.3 0.1 0.5 0.1 0.3 0.1 0.6 0.2 0.2 0.1 0.4 0.3 0.3 0.1 0.5 0.3 0.2 0.2 0.4 0.4 0.2 0.2 0.3 0.4 0.2 0.2 0.3 0.5 0.1 0.2 0.2 0.5 0.1 0.3 0.2 0.6 0.1 0.3 0.1 0.6 0 0.3 0 0.7 0 0.3 0 0.6 0 0.3-0.1 0.6-0.1 0.3-0.2 0.6-0.1 0.3-0.2 0.6-0.1 0.2-0.3 0.4-0.1 0.3-0.3 0.5-0.2 0.2-0.4 0.4-0.2 0.1-0.5 0.3-0.2 0.1-0.4 0.2-0.3 0.1-0.6 0.2-0.2 0.1-0.5 0.1-0.3 0.1-0.5 0.1-0.2 0-0.5-0.1-0.2 0-0.4 0-0.2-0.1-0.4-0.2-0.3 0-0.4-0.1-0.2-0.1-0.4-0.2-0.2-0.1-0.3-0.3-0.2-0.1-0.3-0.2-0.1-0.2-0.2-0.3v5.4h-2.3v-13h2.3v1.3q0.1-0.2 0.2-0.3 0.2-0.2 0.3-0.3 0.1-0.2 0.3-0.3 0.2-0.1 0.3-0.2zm3.2 2.8q-0.3-0.6-0.8-0.9-0.6-0.3-1.2-0.3-0.6 0-1.1 0.3-0.6 0.3-0.9 0.9-0.1 0.3-0.2 0.6-0.1 0.4-0.1 0.8 0 0.3 0.1 0.7 0.1 0.3 0.2 0.7 0.2 0.2 0.4 0.4 0.2 0.3 0.4 0.4 0.3 0.2 0.6 0.3 0.3 0.1 0.6 0.1 0.2 0 0.3 0 0.2-0.1 0.3-0.1 0.2-0.1 0.3-0.1 0.1-0.1 0.3-0.1 0.1-0.1 0.2-0.2 0.2-0.1 0.3-0.2 0.1-0.2 0.2-0.3 0.1-0.1 0.1-0.3 0.1-0.1 0.2-0.3 0.1-0.2 0.1-0.3 0-0.2 0.1-0.4 0-0.2 0-0.4 0-0.1-0.1-0.3 0-0.2 0-0.4-0.1-0.1-0.1-0.3-0.1-0.1-0.2-0.3z"/>
				<path id="Layer" class="s1" d="m162.9 214v11.8h-2.3v-11.8z"/>
				<path id="Layer" class="s1" d="m166.3 215.5q-0.1-0.1-0.1-0.2-0.1-0.1-0.2-0.2 0-0.1 0-0.3-0.1-0.1-0.1-0.2 0-0.1 0.1-0.3 0-0.1 0-0.2 0.1-0.1 0.2-0.3 0-0.1 0.1-0.1 0.2-0.2 0.5-0.3 0.3-0.1 0.5-0.1 0.3 0 0.6 0.1 0.2 0.1 0.4 0.3 0.1 0 0.2 0.1 0.1 0.2 0.1 0.3 0.1 0.1 0.1 0.2 0 0.2 0 0.3 0 0.1 0 0.2 0 0.2-0.1 0.3 0 0.1-0.1 0.2-0.1 0.1-0.2 0.2-0.2 0.2-0.4 0.3-0.3 0.1-0.6 0.1-0.2 0-0.5-0.1-0.3-0.1-0.5-0.3zm2.1 1.5v8.8h-2.2v-8.8z"/>
				<path id="Layer" class="s1" d="m171.7 219q0.1-0.2 0.3-0.5 0.2-0.2 0.4-0.4 0.2-0.2 0.4-0.4 0.2-0.2 0.5-0.3 0.2-0.1 0.5-0.3 0.3-0.1 0.5-0.1 0.3-0.1 0.6-0.1 0.3-0.1 0.6-0.1 0.4 0 0.7 0.1 0.4 0 0.8 0.1 0.3 0.1 0.6 0.3 0.4 0.1 0.6 0.4 0.3 0.2 0.6 0.4 0.2 0.3 0.4 0.6 0.2 0.3 0.3 0.6 0.1 0.4 0.2 0.7h-2.4q-0.1-0.1-0.1-0.3-0.1-0.1-0.2-0.2-0.1-0.1-0.2-0.2-0.1-0.1-0.2-0.2-0.1-0.1-0.2-0.2-0.2 0-0.3-0.1-0.1 0-0.3 0-0.1 0-0.3 0-0.2 0-0.4 0-0.2 0-0.4 0.1-0.2 0.1-0.4 0.3-0.2 0.1-0.3 0.3-0.2 0.2-0.3 0.4-0.1 0.3-0.2 0.5 0 0.3-0.1 0.5 0 0.3 0 0.6 0 0.2 0 0.5 0.1 0.3 0.1 0.5 0.1 0.3 0.2 0.5 0.1 0.2 0.3 0.5 0.1 0.1 0.3 0.3 0.2 0.1 0.4 0.2 0.2 0.1 0.4 0.1 0.2 0.1 0.4 0.1 0.3 0 0.6-0.1 0.3-0.1 0.5-0.2 0.3-0.2 0.4-0.4 0.2-0.3 0.3-0.6h2.4q-0.1 0.4-0.2 0.7-0.1 0.3-0.3 0.6-0.2 0.3-0.5 0.6-0.2 0.2-0.5 0.4-0.3 0.2-0.6 0.4-0.3 0.2-0.6 0.3-0.4 0.1-0.8 0.1-0.3 0.1-0.7 0.1-0.3 0-0.6-0.1-0.3 0-0.6-0.1-0.2 0-0.5-0.1-0.3-0.1-0.5-0.3-0.3-0.1-0.5-0.3-0.2-0.2-0.4-0.4-0.2-0.2-0.4-0.4-0.2-0.2-0.3-0.5-0.3-0.6-0.4-1.2-0.2-0.6-0.2-1.2 0-0.6 0.2-1.2 0.1-0.6 0.4-1.2z"/>
				<path id="Layer" fill-rule="evenodd" class="s1" d="m182.4 219q0.1-0.2 0.3-0.5 0.1-0.2 0.3-0.4 0.2-0.2 0.4-0.4 0.2-0.2 0.4-0.3 0.3-0.1 0.5-0.2 0.3-0.2 0.5-0.2 0.3-0.1 0.6-0.1 0.2-0.1 0.5-0.1 0.2 0 0.5 0.1 0.2 0 0.4 0 0.2 0.1 0.4 0.2 0.2 0 0.4 0.1 0.2 0.1 0.4 0.2 0.1 0.1 0.3 0.3 0.1 0.1 0.3 0.2 0.1 0.2 0.2 0.3v-1.2h2.3v8.9h-2.3v-1.3q-0.1 0.1-0.2 0.3-0.2 0.1-0.3 0.2-0.2 0.2-0.3 0.3-0.2 0.1-0.4 0.2-0.2 0.1-0.4 0.1-0.2 0.1-0.4 0.2-0.2 0-0.5 0-0.2 0.1-0.4 0.1-0.3 0-0.5-0.1-0.3 0-0.5-0.1-0.3-0.1-0.5-0.2-0.3-0.1-0.5-0.2-0.2-0.2-0.5-0.3-0.2-0.2-0.3-0.4-0.2-0.2-0.4-0.5-0.1-0.2-0.3-0.4-0.1-0.3-0.2-0.6-0.1-0.3-0.2-0.6 0-0.3-0.1-0.6 0-0.3 0-0.6 0-0.3 0-0.6 0-0.4 0.1-0.6 0.1-0.3 0.2-0.6 0.1-0.3 0.2-0.6zm6.1 1q-0.1-0.1-0.2-0.3 0-0.1-0.2-0.2-0.1-0.1-0.2-0.2-0.1-0.1-0.3-0.2-0.1-0.1-0.2-0.1-0.2-0.1-0.3-0.1-0.2-0.1-0.3-0.1-0.2 0-0.3 0-0.2 0-0.3 0-0.2 0-0.3 0.1-0.2 0-0.3 0.1-0.1 0-0.3 0.1-0.1 0.1-0.2 0.2-0.1 0.1-0.3 0.2-0.1 0.1-0.2 0.2-0.1 0.1-0.1 0.3-0.1 0.1-0.2 0.3 0 0.2-0.1 0.4 0 0.1 0 0.3-0.1 0.2-0.1 0.4 0 0.2 0.1 0.3 0 0.2 0 0.4 0.1 0.2 0.1 0.3 0.1 0.2 0.2 0.4 0 0.1 0.1 0.2 0.1 0.2 0.2 0.3 0.2 0.1 0.3 0.2 0.1 0.1 0.2 0.2 0.2 0.1 0.3 0.1 0.1 0.1 0.3 0.1 0.1 0.1 0.3 0.1 0.1 0 0.3 0 0.1 0 0.3 0 0.1 0 0.3-0.1 0.1 0 0.3-0.1 0.1 0 0.2-0.1 0.2-0.1 0.3-0.2 0.1-0.1 0.2-0.2 0.2-0.1 0.2-0.2 0.1-0.2 0.2-0.3 0.2-0.3 0.2-0.7 0.1-0.3 0.1-0.7 0-0.4-0.1-0.7 0-0.4-0.2-0.7z"/>
				<path id="Layer" class="s1" d="m197 218.8v4.3q0 0.1 0 0.2 0 0 0 0.1 0.1 0.1 0.1 0.2 0.1 0.1 0.1 0.1 0.1 0.1 0.2 0.1 0.1 0.1 0.2 0.1 0 0 0.1 0 0.1 0 0.2 0h1v1.9h-1.4q-2.8 0-2.8-2.7v-4.3h-1.1v-1.8h1.1v-2.2h2.3v2.2h2v1.8z"/>
				<path id="Layer" class="s1" d="m201.8 215.5q-0.1-0.1-0.1-0.2-0.1-0.1-0.2-0.2 0-0.1 0-0.3-0.1-0.1-0.1-0.2 0-0.1 0.1-0.3 0-0.1 0-0.2 0.1-0.1 0.2-0.3 0-0.1 0.1-0.1 0.1-0.1 0.2-0.2 0.2-0.1 0.3-0.1 0.1-0.1 0.2-0.1 0.2 0 0.3 0 0.2 0 0.3 0 0.1 0 0.3 0.1 0.1 0 0.2 0.1 0.1 0.1 0.2 0.2 0.1 0 0.2 0.1 0.1 0.2 0.1 0.3 0.1 0.1 0.1 0.2 0 0.2 0 0.3 0 0.1 0 0.2 0 0.2-0.1 0.3 0 0.1-0.1 0.2-0.1 0.1-0.2 0.2-0.1 0.1-0.2 0.2-0.1 0.1-0.2 0.1-0.2 0.1-0.3 0.1-0.1 0-0.3 0-0.1 0-0.3 0-0.1 0-0.2-0.1-0.1 0-0.3-0.1-0.1-0.1-0.2-0.2zm2.1 1.5v8.8h-2.2v-8.8z"/>
				<path id="Layer" fill-rule="evenodd" class="s1" d="m208.8 225.4q-0.2-0.1-0.5-0.3-0.2-0.2-0.4-0.4-0.2-0.2-0.4-0.4-0.1-0.3-0.3-0.5-0.1-0.3-0.2-0.6-0.1-0.3-0.2-0.6-0.1-0.3-0.1-0.6-0.1-0.3-0.1-0.6 0-0.3 0.1-0.6 0-0.3 0.1-0.7 0.1-0.3 0.2-0.5 0.1-0.3 0.2-0.6 0.2-0.3 0.4-0.5 0.1-0.2 0.3-0.4 0.3-0.2 0.5-0.4 0.2-0.2 0.5-0.3 0.2-0.2 0.5-0.3 0.3-0.1 0.6-0.2 0.3 0 0.6-0.1 0.3 0 0.6 0 0.3 0 0.6 0 0.3 0.1 0.6 0.1 0.3 0.1 0.6 0.2 0.3 0.1 0.5 0.3 0.3 0.1 0.5 0.3 0.2 0.2 0.5 0.4 0.2 0.2 0.3 0.4 0.2 0.2 0.4 0.5 0.1 0.3 0.2 0.6 0.1 0.2 0.2 0.5 0.1 0.4 0.1 0.7 0.1 0.3 0.1 0.6 0 0.3-0.1 0.6 0 0.3-0.1 0.6-0.1 0.3-0.2 0.6-0.1 0.3-0.3 0.6-0.1 0.2-0.3 0.5-0.2 0.2-0.4 0.4-0.2 0.2-0.4 0.4-0.3 0.2-0.5 0.3-0.3 0.1-0.6 0.3-0.3 0.1-0.6 0.1-0.3 0.1-0.6 0.1-0.3 0.1-0.6 0.1-0.3 0-0.6-0.1-0.3 0-0.6-0.1-0.2 0-0.5-0.1-0.3-0.2-0.6-0.3zm3.5-1.7q0.1-0.1 0.2-0.2 0.2-0.1 0.3-0.2 0.1-0.1 0.2-0.2 0.1-0.1 0.1-0.3 0.1-0.1 0.2-0.3 0-0.2 0.1-0.4 0-0.2 0-0.3 0.1-0.2 0.1-0.4 0-0.3-0.1-0.5 0-0.3-0.1-0.6-0.1-0.2-0.2-0.4-0.1-0.3-0.3-0.5-0.2-0.1-0.4-0.3-0.1-0.1-0.3-0.2-0.3-0.1-0.5-0.1-0.2 0-0.4 0-0.3 0-0.5 0-0.2 0-0.4 0.1-0.2 0.1-0.4 0.2-0.2 0.2-0.3 0.3-0.2 0.2-0.3 0.5-0.2 0.2-0.3 0.5 0 0.2-0.1 0.5 0 0.2 0 0.5 0 0.3 0 0.5 0.1 0.3 0.1 0.5 0.1 0.3 0.3 0.5 0.1 0.2 0.2 0.4 0.2 0.2 0.4 0.3 0.2 0.2 0.4 0.2 0.2 0.1 0.4 0.2 0.2 0 0.4 0 0.2 0 0.3 0 0.2 0 0.3-0.1 0.2 0 0.3-0.1 0.1 0 0.3-0.1z"/>
				<path id="Layer" class="s1" d="m226 217.8q0.3 0.3 0.5 0.6 0.2 0.4 0.3 0.7 0.1 0.4 0.2 0.8 0 0.3 0 0.7v5.2h-2.2v-4.9q0-0.2-0.1-0.4 0-0.2-0.1-0.4 0-0.2-0.1-0.4-0.1-0.2-0.3-0.4-0.1-0.1-0.3-0.3-0.1-0.1-0.3-0.1-0.2-0.1-0.4-0.1-0.2-0.1-0.4-0.1-0.2 0-0.4 0.1-0.2 0-0.4 0.1-0.2 0-0.4 0.1-0.1 0.2-0.3 0.3-0.1 0.2-0.2 0.4-0.1 0.2-0.2 0.4-0.1 0.2-0.1 0.4 0 0.2 0 0.4v4.9h-2.3v-8.8h2.2v1.1q0.2-0.1 0.3-0.3 0.1-0.1 0.3-0.2 0.1-0.1 0.3-0.2 0.1-0.1 0.3-0.2 0.2-0.1 0.3-0.1 0.2-0.1 0.4-0.2 0.2 0 0.4 0 0.2 0 0.4 0 0.4-0.1 0.7 0 0.4 0.1 0.7 0.2 0.3 0.1 0.6 0.3 0.3 0.2 0.6 0.4z"/>
			</g>
			<g id="Layer">
				<path id="Layer" fill-rule="evenodd" class="s1" d="m117.5 247.8q-0.1 0.2-0.3 0.4-0.1 0.2-0.3 0.3-0.2 0.2-0.3 0.3-0.2 0.1-0.4 0.2-0.3 0.2-0.6 0.3-0.3 0.1-0.6 0.1-0.2 0.1-0.5 0.1-0.3 0-0.6 0h-1.9v4.3h-2.2v-11.2h4.1q0.3 0 0.5 0.1 0.3 0 0.6 0 0.3 0.1 0.6 0.2 0.2 0.1 0.5 0.2 0.2 0.1 0.4 0.2 0.2 0.2 0.4 0.3 0.1 0.2 0.3 0.3 0.1 0.2 0.3 0.4 0.1 0.2 0.2 0.4 0 0.3 0.1 0.5 0.1 0.2 0.1 0.4 0 0.3 0 0.5 0 0.2 0 0.4 0 0.3-0.1 0.5-0.1 0.2-0.1 0.4-0.1 0.2-0.2 0.4zm-2.3-0.5q0.1-0.1 0.2-0.3 0-0.1 0.1-0.2 0.1-0.2 0.1-0.4 0-0.1 0-0.3 0-1.6-1.8-1.6h-1.8v3.2h1.8q0.2 0 0.3 0 0.2 0 0.4-0.1 0.2 0 0.4-0.1 0.1-0.1 0.3-0.2z"/>
				<path id="Layer" class="s1" d="m124 245.2q0.2-0.1 0.4-0.1 0.2-0.1 0.4-0.2 0.2 0 0.4-0.1 0.2 0 0.4 0v2.4h-0.6q-0.5-0.1-0.9 0.1-0.4 0.1-0.7 0.4-0.4 0.4-0.5 0.8-0.1 0.4 0 0.9v4.4h-2.3v-8.8h2.3v1.4q0.1-0.2 0.2-0.4 0.1-0.1 0.3-0.3 0.1-0.1 0.3-0.2 0.1-0.2 0.3-0.3z"/>
				<path id="Layer" fill-rule="evenodd" class="s1" d="m129.8 253.4q-0.3-0.1-0.5-0.3-0.3-0.2-0.5-0.4-0.2-0.2-0.3-0.4-0.2-0.3-0.3-0.5-0.2-0.3-0.3-0.6-0.1-0.3-0.2-0.6-0.1-0.3-0.1-0.6 0-0.3 0-0.6 0-0.3 0-0.6 0-0.3 0.1-0.7 0.1-0.3 0.2-0.5 0.1-0.3 0.3-0.6 0.1-0.3 0.3-0.5 0.2-0.2 0.4-0.4 0.2-0.2 0.4-0.4 0.3-0.2 0.5-0.3 0.5-0.3 1.1-0.4 0.6-0.2 1.2-0.2 0.6 0 1.2 0.2 0.6 0.1 1.1 0.4 0.3 0.1 0.5 0.3 0.3 0.2 0.5 0.4 0.2 0.2 0.4 0.4 0.1 0.2 0.3 0.5 0.3 0.5 0.4 1.2 0.2 0.6 0.2 1.2 0 0.6-0.2 1.2-0.1 0.6-0.4 1.2-0.2 0.2-0.3 0.5-0.2 0.2-0.4 0.4-0.2 0.2-0.5 0.4-0.2 0.2-0.5 0.3-0.2 0.1-0.5 0.3-0.3 0.1-0.6 0.1-0.3 0.1-0.6 0.1-0.3 0.1-0.6 0.1-0.3 0-0.6-0.1-0.3 0-0.6-0.1-0.3 0-0.6-0.1-0.3-0.2-0.5-0.3zm3.4-1.7q0.1-0.1 0.3-0.2 0.1-0.1 0.2-0.2 0.1-0.1 0.2-0.2 0.1-0.1 0.2-0.3 0.1-0.1 0.1-0.3 0.1-0.2 0.1-0.4 0.1-0.2 0.1-0.3 0-0.2 0-0.4 0-0.3 0-0.5-0.1-0.3-0.1-0.6-0.1-0.2-0.3-0.4-0.1-0.3-0.3-0.5-0.1-0.1-0.3-0.3-0.2-0.1-0.4-0.2-0.2-0.1-0.5-0.1-0.2 0-0.4 0-0.2 0-0.4 0-0.3 0-0.5 0.1-0.2 0.1-0.4 0.2-0.2 0.2-0.3 0.3-0.2 0.2-0.3 0.5-0.1 0.2-0.2 0.5-0.1 0.2-0.1 0.5-0.1 0.2-0.1 0.5 0 0.3 0.1 0.5 0 0.3 0.1 0.5 0.1 0.3 0.2 0.5 0.1 0.2 0.3 0.4 0.1 0.2 0.3 0.3 0.2 0.2 0.4 0.2 0.2 0.1 0.4 0.2 0.2 0 0.5 0 0.1 0 0.3 0 0.1 0 0.3-0.1 0.1 0 0.2-0.1 0.2 0 0.3-0.1z"/>
				<path id="Layer" class="s1" d="m139.4 247q0.1-0.2 0.3-0.5 0.2-0.2 0.4-0.4 0.2-0.2 0.4-0.4 0.2-0.2 0.5-0.3 0.2-0.1 0.5-0.3 0.3-0.1 0.6-0.1 0.3-0.1 0.5-0.1 0.3-0.1 0.6-0.1 0.4 0 0.8 0.1 0.3 0 0.7 0.1 0.3 0.1 0.6 0.3 0.4 0.1 0.7 0.4 0.2 0.2 0.5 0.4 0.2 0.3 0.4 0.6 0.2 0.3 0.3 0.6 0.1 0.3 0.2 0.7h-2.4q0-0.2-0.1-0.3-0.1-0.1-0.2-0.2 0-0.2-0.1-0.3-0.1-0.1-0.3-0.1-0.1-0.1-0.2-0.2-0.1 0-0.3-0.1-0.1 0-0.3 0-0.1-0.1-0.3-0.1-0.2 0-0.4 0.1-0.2 0-0.4 0.1-0.2 0.1-0.4 0.2-0.2 0.2-0.3 0.3-0.2 0.2-0.3 0.5-0.1 0.2-0.2 0.5 0 0.2 0 0.5-0.1 0.3-0.1 0.5 0 0.3 0 0.6 0.1 0.2 0.1 0.5 0.1 0.2 0.2 0.5 0.1 0.2 0.3 0.4 0.1 0.2 0.3 0.3 0.2 0.2 0.4 0.3 0.2 0 0.4 0.1 0.2 0 0.4 0 0.3 0 0.6 0 0.3-0.1 0.5-0.3 0.3-0.1 0.4-0.4 0.2-0.2 0.3-0.5h2.4q-0.1 0.3-0.2 0.7-0.1 0.3-0.3 0.6-0.2 0.3-0.4 0.5-0.3 0.3-0.5 0.5-0.3 0.2-0.7 0.4-0.3 0.1-0.6 0.2-0.4 0.2-0.7 0.2-0.4 0.1-0.8 0-0.3 0-0.6 0-0.2 0-0.5-0.1-0.3-0.1-0.6-0.2-0.3-0.1-0.5-0.2-0.3-0.2-0.5-0.3-0.2-0.2-0.4-0.4-0.2-0.2-0.4-0.4-0.2-0.3-0.3-0.5-0.3-0.6-0.4-1.2-0.1-0.6-0.1-1.2 0-0.7 0.1-1.3 0.1-0.6 0.4-1.1z"/>
				<path id="Layer" fill-rule="evenodd" class="s1" d="m158.3 250.1h-6.5q0 0.2 0.1 0.4 0 0.2 0.1 0.4 0.1 0.2 0.2 0.3 0.2 0.2 0.3 0.4 0.2 0.1 0.3 0.2 0.2 0.1 0.4 0.2 0.2 0.1 0.4 0.1 0.2 0 0.4 0 0.2 0 0.5 0 0.3-0.1 0.5-0.2 0.3-0.2 0.4-0.4 0.2-0.2 0.3-0.5h2.5q-0.1 0.4-0.3 0.6-0.1 0.3-0.3 0.6-0.2 0.3-0.4 0.5-0.2 0.2-0.5 0.4-0.3 0.3-0.6 0.4-0.3 0.2-0.7 0.3-0.3 0.1-0.7 0.2-0.3 0-0.7 0-0.3 0-0.6 0-0.3-0.1-0.6-0.1-0.3-0.1-0.6-0.2-0.2-0.1-0.5-0.3-0.2-0.1-0.5-0.3-0.2-0.1-0.4-0.4-0.2-0.2-0.4-0.4-0.1-0.2-0.3-0.5-0.1-0.2-0.2-0.5-0.1-0.3-0.2-0.6-0.1-0.3-0.1-0.6-0.1-0.4-0.1-0.7 0-0.3 0.1-0.6 0-0.3 0.1-0.6 0.1-0.3 0.2-0.6 0.1-0.3 0.2-0.6 0.1-0.2 0.3-0.5 0.2-0.2 0.4-0.4 0.2-0.2 0.4-0.4 0.2-0.2 0.5-0.3 0.2-0.1 0.5-0.2 0.3-0.1 0.6-0.2 0.3-0.1 0.6-0.1 0.3-0.1 0.6-0.1 0.3 0 0.6 0.1 0.3 0 0.6 0.1 0.3 0 0.5 0.2 0.3 0.1 0.6 0.2 0.2 0.1 0.4 0.3 0.3 0.2 0.5 0.4 0.1 0.1 0.3 0.4 0.2 0.2 0.3 0.4 0.2 0.3 0.3 0.6 0.1 0.3 0.1 0.6 0.1 0.2 0.1 0.5 0.1 0.3 0.1 0.6 0 0.1 0 0.2 0 0.1 0 0.3 0 0.1-0.1 0.2 0 0.1 0 0.2zm-2.2-1.5q0-0.2-0.1-0.4 0-0.2-0.1-0.4-0.1-0.2-0.2-0.3-0.1-0.2-0.3-0.3-0.1-0.2-0.3-0.3-0.2-0.1-0.4-0.1-0.1-0.1-0.3-0.1-0.2-0.1-0.4 0-0.2-0.1-0.4 0-0.2 0-0.4 0.1-0.2 0-0.3 0.1-0.2 0.1-0.3 0.3-0.2 0.1-0.3 0.3-0.1 0.1-0.2 0.3-0.1 0.2-0.2 0.4 0 0.2 0 0.4z"/>
				<path id="Layer" class="s1" d="m162.6 253.6q-0.3-0.1-0.4-0.2-0.2-0.1-0.4-0.3-0.2-0.1-0.3-0.3-0.2-0.1-0.3-0.3-0.1-0.2-0.2-0.3-0.1-0.2-0.2-0.4-0.1-0.2-0.1-0.4-0.1-0.2-0.1-0.4h2.3q0 0.1 0 0.3 0.1 0.1 0.1 0.2 0.1 0.1 0.2 0.2 0.1 0.1 0.2 0.2 0.1 0.1 0.2 0.1 0.2 0.1 0.3 0.1 0.1 0.1 0.3 0.1 0.1 0 0.3 0 0.1 0 0.2 0 0.2 0 0.3 0 0.1-0.1 0.2-0.1 0.2-0.1 0.3-0.2 0.1 0 0.1-0.1 0.1 0 0.1-0.1 0.1-0.1 0.1-0.2 0-0.1 0-0.2 0-0.1 0-0.2 0-0.1-0.1-0.2 0-0.1-0.1-0.2-0.1 0-0.2-0.1-0.2 0-0.3-0.1-0.2-0.1-0.4-0.1-0.2-0.1-0.3-0.1-0.2-0.1-0.4-0.1-0.2-0.1-0.4-0.1-0.2-0.1-0.4-0.1-0.2-0.1-0.4-0.2-0.2 0-0.4-0.1-0.2-0.1-0.3-0.2-0.2 0-0.3-0.1-0.2-0.1-0.3-0.3-0.1-0.1-0.2-0.2-0.1-0.2-0.2-0.3-0.1-0.2-0.2-0.4 0-0.2-0.1-0.3 0-0.2 0-0.4 0-0.2 0.1-0.4 0-0.2 0-0.3 0.1-0.2 0.2-0.4 0.1-0.1 0.2-0.3 0.1-0.1 0.2-0.3 0.1-0.1 0.3-0.3 0.2-0.1 0.3-0.2 0.2-0.1 0.4-0.2 0.2-0.1 0.4-0.1 0.3-0.1 0.5-0.2 0.2 0 0.5 0 0.2 0 0.4 0 0.4 0 0.7 0 0.4 0 0.7 0.1 0.3 0.1 0.6 0.3 0.3 0.2 0.6 0.4 0.2 0.2 0.4 0.4 0.2 0.3 0.3 0.5 0.1 0.3 0.2 0.6 0.1 0.3 0.1 0.6h-2.2q0-0.1 0-0.2-0.1-0.2-0.1-0.3-0.1-0.1-0.1-0.2-0.1-0.1-0.2-0.1-0.1-0.1-0.2-0.2-0.2 0-0.3-0.1-0.1 0-0.3 0-0.1-0.1-0.2-0.1-0.1 0-0.3 0.1-0.1 0-0.2 0-0.1 0-0.2 0.1-0.1 0-0.2 0.1-0.1 0-0.2 0.1-0.1 0.1-0.1 0.1 0 0.1-0.1 0.2 0 0.1 0 0.2 0 0.1 0.1 0.2 0 0.1 0 0.2 0.1 0.1 0.2 0.2 0.1 0 0.2 0.1 0.1 0.1 0.3 0.1 0.2 0.1 0.4 0.2 0.1 0 0.3 0.1 0.2 0 0.4 0 0.2 0.1 0.4 0.2 0.2 0 0.4 0.1 0.2 0 0.4 0.1 0.2 0.1 0.3 0.1 0.2 0.1 0.4 0.2 0.1 0.1 0.2 0.2 0.2 0.1 0.3 0.2 0.1 0.1 0.2 0.2 0.1 0.2 0.2 0.4 0.1 0.1 0.2 0.3 0 0.2 0.1 0.4 0 0.2 0 0.4 0 0.1 0 0.3-0.1 0.2-0.1 0.4-0.1 0.1-0.1 0.3-0.1 0.2-0.2 0.3-0.1 0.2-0.3 0.3-0.1 0.2-0.3 0.3-0.1 0.1-0.3 0.2-0.2 0.2-0.3 0.2-0.5 0.2-1 0.3-0.5 0.1-0.9 0.1-0.5 0-1-0.1-0.5-0.1-0.9-0.3z"/>
				<path id="Layer" class="s1" d="m172.3 253.6q-0.2-0.1-0.3-0.2-0.2-0.1-0.4-0.3-0.2-0.1-0.3-0.3-0.2-0.1-0.3-0.3-0.1-0.2-0.2-0.3-0.1-0.2-0.2-0.4-0.1-0.2-0.1-0.4-0.1-0.2-0.1-0.4h2.3q0 0.1 0 0.3 0.1 0.1 0.2 0.2 0 0.1 0.1 0.2 0.1 0.1 0.2 0.2 0.1 0.1 0.2 0.1 0.2 0.1 0.3 0.1 0.2 0.1 0.3 0.1 0.1 0 0.3 0 0.1 0 0.3 0 0.1 0 0.2 0 0.1-0.1 0.3-0.1 0.1-0.1 0.2-0.2 0.1 0 0.1-0.1 0.1 0 0.2-0.1 0-0.1 0-0.2 0.1-0.1 0-0.2 0-0.1 0-0.2 0-0.1-0.1-0.2 0-0.1-0.1-0.2-0.1 0-0.2-0.1-0.2 0-0.3-0.1-0.2-0.1-0.4-0.1-0.2-0.1-0.3-0.1-0.2-0.1-0.4-0.1-0.2-0.1-0.4-0.1-0.2-0.1-0.4-0.1-0.2-0.1-0.4-0.2-0.2 0-0.4-0.1-0.2-0.1-0.3-0.2-0.2 0-0.3-0.1-0.1-0.1-0.3-0.3-0.1-0.1-0.2-0.2-0.1-0.2-0.2-0.3-0.1-0.2-0.2-0.4 0-0.2 0-0.3-0.1-0.2-0.1-0.4 0-0.2 0.1-0.4 0-0.2 0-0.3 0.1-0.2 0.2-0.4 0.1-0.1 0.2-0.3 0.1-0.1 0.2-0.3 0.2-0.1 0.3-0.3 0.2-0.1 0.3-0.2 0.2-0.1 0.4-0.2 0.2-0.1 0.4-0.1 0.3-0.1 0.5-0.2 0.2 0 0.5 0 0.2 0 0.4 0 0.4 0 0.7 0 0.4 0 0.7 0.1 0.3 0.1 0.6 0.3 0.3 0.2 0.6 0.4 0.2 0.2 0.4 0.4 0.2 0.2 0.3 0.5 0.1 0.3 0.2 0.6 0.1 0.3 0.1 0.6h-2.2q0-0.1 0-0.2 0-0.2-0.1-0.3-0.1-0.1-0.1-0.2-0.1-0.1-0.2-0.1-0.1-0.1-0.2-0.2-0.2 0-0.3-0.1-0.1 0-0.2 0-0.2-0.1-0.3-0.1-0.1 0-0.3 0.1-0.1 0-0.2 0-0.1 0-0.2 0.1-0.1 0-0.2 0.1-0.1 0-0.2 0.1 0 0.1-0.1 0.1 0 0.1-0.1 0.2 0 0.1 0 0.2 0 0.1 0.1 0.2 0 0.1 0.1 0.2 0 0.1 0.1 0.2 0.1 0 0.2 0.1 0.1 0.1 0.3 0.1 0.2 0.1 0.4 0.2 0.1 0 0.3 0.1 0.2 0 0.4 0 0.2 0.1 0.4 0.2 0.2 0 0.4 0.1 0.2 0 0.4 0.1 0.2 0.1 0.3 0.1 0.2 0.1 0.4 0.2 0.1 0.1 0.2 0.2 0.2 0.1 0.3 0.2 0.1 0.1 0.2 0.2 0.1 0.2 0.2 0.4 0.1 0.1 0.2 0.3 0.1 0.2 0.1 0.4 0 0.2 0 0.4 0 0.1 0 0.3 0 0.2-0.1 0.4-0.1 0.1-0.1 0.3-0.1 0.2-0.2 0.3-0.1 0.2-0.3 0.3-0.1 0.2-0.3 0.3-0.1 0.1-0.3 0.2-0.2 0.2-0.3 0.2-0.3 0.1-0.5 0.2-0.2 0.1-0.4 0.1-0.3 0-0.5 0.1-0.2 0-0.5 0-0.2 0-0.5-0.1-0.2 0-0.5 0-0.2-0.1-0.5-0.2-0.2 0-0.5-0.1z"/>
			</g>
		</g>
		<path id="Rectangle_22538" class="s2" d="m22.8 16.9l834.8 0.1v446.9l-834.8 0.1z"/>
		<path id="Path_78070" fill-rule="evenodd" class="s4" d="m63.2 37q0.3 0.7 0.4 1.5 0.2 0.8 0.4 1.5 0.1 0.8 0.1 1.6 0.1 0.8 0.1 1.6 0 0.9-0.1 1.8 0 0.9-0.1 1.8-0.1 0.9-0.3 1.8-0.2 0.9-0.4 1.8-0.2 0.9-0.5 1.8-0.3 0.9-0.6 1.7-0.3 0.9-0.7 1.7-0.4 0.8-0.8 1.6-0.4 0.8-0.9 1.6-0.4 0.7-0.9 1.4-0.5 0.8-1.1 1.5-0.5 0.6-1.1 1.3-0.5 0.6-1.1 1.2-0.6 0.5-1.2 1-0.6 0.6-1.3 1-0.6 0.5-1.3 0.9-0.6 0.3-1.2 0.6-0.6 0.3-1.2 0.5-0.6 0.2-1.3 0.3-0.6 0.2-1.3 0.2-0.5 0-1.1 0-0.5-0.1-1-0.3-0.5-0.1-1-0.3-0.4-0.3-0.8-0.6-0.5-0.4-0.9-0.8-0.4-0.4-0.7-0.9-0.3-0.5-0.6-1-0.3-0.6-0.5-1.1-0.2-0.8-0.4-1.5-0.2-0.8-0.3-1.6-0.1-0.7-0.2-1.5-0.1-0.8-0.1-1.6 0.1-0.9 0.1-1.8 0.1-0.9 0.2-1.8 0.1-1 0.3-1.9 0.1-0.9 0.4-1.7 0.2-0.9 0.5-1.8 0.2-0.9 0.6-1.7 0.3-0.9 0.7-1.7 0.3-0.8 0.7-1.6 0.5-0.8 0.9-1.6 0.4-0.7 0.9-1.5 0.5-0.7 1.1-1.4 0.5-0.7 1.1-1.3 0.5-0.6 1.1-1.2 0.5-0.6 1.2-1.1 0.6-0.5 1.3-1 0.6-0.4 1.3-0.8 0.6-0.4 1.2-0.7 0.6-0.2 1.2-0.4 0.6-0.2 1.3-0.4 0.7-0.1 1.3-0.1 0.6 0 1.1 0 0.5 0.1 1 0.3 0.5 0.1 1 0.4 0.5 0.2 0.9 0.5 0.5 0.4 0.9 0.8 0.3 0.5 0.7 0.9 0.3 0.5 0.5 1 0.3 0.6 0.5 1.1zm-6 14.2q0.1-0.5 0.2-1 0.1-0.6 0.1-1.1 0.1-0.5 0.1-1 0-0.6 0-1.1 0.1-0.5 0-1 0-0.4 0-0.9-0.1-0.5-0.2-1-0.1-0.4-0.2-0.9-0.1-0.4-0.2-0.7-0.1-0.3-0.2-0.6-0.2-0.4-0.4-0.7-0.2-0.3-0.4-0.5-0.2-0.2-0.4-0.4-0.2-0.2-0.4-0.3-0.3-0.1-0.5-0.2-0.3-0.1-0.6-0.1-0.3 0-0.6 0-0.3 0-0.6 0.1-0.3 0.1-0.6 0.2-0.3 0.2-0.6 0.3-0.3 0.2-0.6 0.5-0.4 0.2-0.7 0.5-0.3 0.2-0.6 0.5-0.2 0.3-0.5 0.7-0.3 0.3-0.5 0.7-0.3 0.4-0.5 0.7-0.3 0.4-0.5 0.8-0.2 0.5-0.4 0.9-0.2 0.4-0.4 0.9-0.1 0.5-0.3 1-0.1 0.5-0.3 1-0.1 0.5-0.2 1-0.1 0.5-0.2 1.1-0.1 0.5-0.1 1-0.1 0.6-0.1 1.1 0 0.6 0 1.1 0 0.5 0 1 0 0.4 0.1 0.9 0 0.5 0.1 1 0.1 0.4 0.2 0.9 0.1 0.3 0.2 0.6 0.1 0.4 0.3 0.7 0.1 0.3 0.3 0.6 0.2 0.2 0.5 0.5 0.1 0.2 0.3 0.4 0.3 0.2 0.5 0.3 0.2 0.1 0.5 0.2 0.3 0.1 0.5 0.1 0.4 0 0.7 0 0.3-0.1 0.6-0.2 0.3 0 0.6-0.2 0.3-0.1 0.6-0.3 0.3-0.2 0.6-0.4 0.3-0.3 0.6-0.5 0.3-0.3 0.6-0.6 0.3-0.3 0.5-0.6 0.3-0.3 0.6-0.7 0.2-0.4 0.5-0.8 0.2-0.4 0.4-0.8 0.2-0.4 0.4-0.8 0.2-0.5 0.4-0.9 0.2-0.5 0.3-1 0.2-0.5 0.3-1 0.1-0.5 0.2-1z"/>
		<path id="Path_78071" class="s4" d="m83 17v24.8l6.1-3.5v6.7l-19.5 11.3v-6.7l6.8-4v-16.7q-0.1 0.3-0.3 0.5-0.1 0.3-0.3 0.6-0.2 0.2-0.4 0.5-0.2 0.3-0.4 0.5-0.9 1.2-2 2.5-0.3 0.3-0.5 0.6-0.3 0.3-0.6 0.6-0.3 0.2-0.6 0.5-0.3 0.3-0.6 0.6-0.2 0.2-0.5 0.4-0.2 0.2-0.5 0.4-0.2 0.2-0.5 0.4-0.3 0.2-0.6 0.4v-6.9q0.3-0.2 0.6-0.4 0.3-0.2 0.6-0.5 0.2-0.2 0.5-0.5 0.2-0.2 0.4-0.5 1.3-1.3 2.5-2.9c0.8-1.1 1.5-2 2.1-3q0.1-0.2 0.3-0.4 0.1-0.3 0.3-0.5 0.1-0.3 0.3-0.5 0.1-0.3 0.2-0.6z"/>
		<path id="Rectangle_22544" class="s2" d="m22.8 16.9l834.8 0.1v446.9l-834.8 0.1z"/>
		<path id="Rectangle_22545" class="s2" d="m22.8 16.9l834.9 0.1v446.9l-834.9 0.1z"/>
		<g id="Group_40797">
			<g id="Clip-Path" clip-path="url(#cp4)">
				<g id="Layer">
					<g id="Group_40796">
						<path id="Path_78410" class="s3" d="m225.2 113.1l-61.8 35.9c-13.1 7.7-34.5 7.7-47.8 0l-62.1-35.9c-6.7-3.8-10-8.9-10-13.9v7.1c0 5 3.3 10.1 10 13.9l62.1 35.9c13.3 7.7 34.7 7.7 47.8 0l61.8-35.9c6.5-3.8 9.8-8.7 9.8-13.7v-7.1c0 5-3.3 10-9.8 13.7z"/>
						<path id="Path_78411-2" class="s5" d="m225 85.4c13.3 7.7 13.3 20 0.2 27.7l-61.8 35.9c-13.2 7.7-34.6 7.7-47.8 0l-62.2-35.9c-13.2-7.7-13.3-20-0.1-27.7l61.8-35.9c13.1-7.6 34.5-7.6 47.8 0z"/>
						<path id="Path_78412" class="s6" d="m143 92.8q0.1 0.1 0.1 0.1 0.1 0.1 0.2 0.1 0 0.1 0 0.2 0.1 0.1 0.1 0.1 0 0.1-0.1 0.2 0 0.1 0 0.1-0.1 0.1-0.1 0.1-0.1 0.1-0.2 0.1-0.1 0.1-0.2 0.1-0.1 0-0.2 0.1-0.1 0-0.2 0-0.1 0-0.2 0-0.1 0-0.2 0-0.1 0-0.2 0-0.1-0.1-0.2-0.1-0.1 0-0.2-0.1-0.1 0-0.2-0.1 0 0-0.1-0.1 0 0 0-0.1-0.1-0.1-0.1-0.2c0-0.3 0.6-0.7 1.2-0.7q0.1 0 0.2 0.1 0.1 0 0.2 0 0.1 0 0.2 0.1 0.1 0 0.2 0z"/>
						<path id="Path_78413" class="s6" d="m167.4 107.1c0.4 0.3 0.4 0.7 0 1l-17.9 10.3q-0.2 0.1-0.4 0.1-0.2 0.1-0.4 0.1-0.2 0-0.4-0.1-0.2 0-0.4-0.1-0.1 0-0.2-0.1-0.1-0.1-0.1-0.2-0.1 0-0.1-0.2 0-0.1 0-0.1 0.1-0.1 0.1-0.2 0 0 0.1 0 0-0.1 0.1-0.1 0-0.1 0.1-0.1l17.8-10.3q0.2-0.1 0.4-0.2 0.2 0 0.4 0 0.2 0 0.5 0 0.2 0.1 0.4 0.2z"/>
						<path id="Path_78414" fill-rule="evenodd" class="s6" d="m162.2 98.3c0.5 0.3 0.5 0.7 0 1l-22.8 13.3q-0.2 0.1-0.4 0.1-0.2 0.1-0.4 0.1-0.3 0-0.5-0.1-0.2 0-0.4-0.1l-5.8-3.4q-0.1 0-0.2-0.1 0 0-0.1-0.1 0-0.1 0-0.2 0-0.1 0-0.2 0-0.1 0.1-0.1 0-0.1 0-0.1 0.1-0.1 0.1-0.1 0.1 0 0.1 0l22.8-13.3q0.2-0.1 0.4-0.1 0.2-0.1 0.5-0.1 0.2 0 0.4 0.1 0.2 0 0.4 0.1zm-23.6 12.8l21.1-12.3-4.2-2.4-21.1 12.3z"/>
						<path id="Path_78415" class="s6" d="m167.3 101.3q0 0 0.1 0.1 0.1 0 0.1 0.1 0.1 0.1 0.1 0.2 0 0.1 0 0.2 0 0.1-0.1 0.1 0 0.1 0 0.1-0.1 0.1-0.1 0.1-0.1 0-0.1 0l-22.8 13.3q-0.2 0.1-0.4 0.1-0.2 0.1-0.5 0.1-0.2 0-0.4-0.1-0.2 0-0.4-0.1-0.2-0.1-0.3-0.2-0.1-0.1-0.1-0.3 0-0.2 0.1-0.3 0.1-0.2 0.3-0.2l22.8-13.3q0.2-0.1 0.4-0.1 0.2-0.1 0.4-0.1 0.2 0 0.4 0.1 0.3 0 0.4 0.1"/>
						<g id="Group_40795">
							<g id="Group_40794">
								<g id="Clip-Path" clip-path="url(#cp5)">
									<g id="Layer">
										<g id="Group_40793">
											<path id="Path_78416" class="s6" d="m149.6 89q0.1 0 0.1 0.1 0.1 0 0.2 0.1 0 0.1 0 0.1 0.1 0.1 0.1 0.2 0 0.1-0.1 0.1 0 0.1 0 0.2-0.1 0-0.1 0.1-0.1 0-0.2 0.1-0.1 0-0.2 0.1-0.1 0-0.2 0-0.1 0.1-0.2 0.1-0.1 0-0.2 0-0.1 0-0.2 0-0.1 0-0.2-0.1-0.1 0-0.2 0-0.1-0.1-0.2-0.1-0.1 0-0.1-0.1-0.1 0-0.1-0.1-0.1 0-0.1-0.1 0-0.1 0-0.2c0-0.3 0.5-0.7 1.2-0.7q0.1 0 0.2 0.1 0.1 0 0.2 0 0.1 0 0.2 0.1 0.1 0 0.2 0"/>
											<path id="Path_78417" fill-rule="evenodd" class="s6" d="m182.6 105q0.1 0 0.1 0.1 0.1 0.1 0.2 0.2 0 0 0 0.2 0 0.1 0 0.2 0 0-0.1 0.1 0 0 0 0-0.1 0.1-0.1 0.1-0.1 0-0.1 0.1l-31.5 18.3q-0.2 0.1-0.4 0.1-0.2 0.1-0.4 0.1-0.3 0-0.5-0.1-0.2 0-0.4-0.1l-4.8-2.8q-1.2 0.1-2.4 0.1-1.2 0.1-2.5 0.1-1.2 0-2.4-0.1-1.3 0-2.5-0.1c-8.8-0.6-16.7-2.8-22.9-6.4-6.3-3.6-10.1-8.2-11.2-13.2-1.4-6.9 2.6-13.7 11-18.6 8.5-4.9 20.1-7.2 32-6.4 8.7 0.6 16.7 2.8 22.9 6.4 6.2 3.6 10.1 8.2 11.2 13.2q0.1 0.7 0.2 1.4 0 0.7 0 1.4 0 0.7-0.1 1.4 0 0.7-0.2 1.4zm-46 15.3q3 0.1 6 0l-19.8-11.4-7.2-4.2q-0.1 0-0.2-0.1-0.1-0.1-0.1-0.2-0.1 0-0.1-0.1 0-0.2 0-0.3 0.1 0 0.1 0 0-0.1 0.1-0.1 0-0.1 0-0.1 0.1 0 0.1-0.1l31.5-18.3q0.2-0.1 0.4-0.1 0.3-0.1 0.5-0.1 0.2 0 0.4 0.1 0.2 0 0.4 0.1l7.3 4.2 19.6 11.3q0.1-0.4 0.1-0.8 0-0.4 0-0.8 0-0.4 0-0.8 0-0.4-0.1-0.9c-0.3 0.1-0.7 0.2-1 0.3q-0.1 0-0.3 0-0.2 0.1-0.3 0-0.2 0-0.4 0-0.1-0.1-0.3-0.2 0 0 0 0-0.1 0-0.1-0.1 0 0-0.1 0 0 0 0-0.1c-0.3-0.3 0-0.7 0.6-0.9l1.7-0.4c-1.1-4.3-4.4-8.2-9.6-11.4l-6.5 3.8q-0.2 0.1-0.4 0.2-0.2 0-0.4 0-0.2 0-0.4 0-0.2-0.1-0.4-0.2c-0.5-0.2-0.5-0.7 0-1l6.5-3.8q-2.3-1.1-4.7-2.1-2.4-0.9-4.9-1.6-2.5-0.7-5-1.1-2.5-0.5-5.1-0.7-0.1 0.1-0.2 0.2 0 0.1-0.1 0.2-0.1 0.1-0.1 0.2-0.1 0.1-0.2 0.2-0.3 0.5-0.6 0.9c-0.2 0.3-0.6 0.7-0.9 1-0.3 0.3-0.5 0.6-0.7 0.9-0.3 0.3-0.7 0.7-1 1.1-0.4 0.3-0.5 0.5-0.8 0.8 0.9 0.3 1.9 0.6 2.8 0.8q0.1 0.1 0.1 0.1 0.1 0 0.1 0 0.1 0 0.1 0 0.1 0.1 0.1 0.1c0.3 0.2 0.4 0.5 0.2 0.7q0 0.1 0 0.1 0 0-0.1 0 0 0.1 0 0.1-0.1 0-0.1 0-0.2 0.1-0.3 0.2-0.2 0-0.4 0-0.1 0-0.3 0-0.2 0-0.3 0-1.6-0.5-3.3-0.8-0.3 0.3-0.7 0.6l-1.3 1.1c-0.3 0.2-0.6 0.5-0.9 0.7l-1.6 1.2c-0.3 0.2-0.5 0.5-0.9 0.7-0.5 0.4-1.2 0.8-1.8 1.2q-0.3 0.2-0.7 0.5c-0.6 0.4-1.2 0.8-1.9 1.1l0.8 0.5q0.1 0 0.2 0.1 0.1 0.1 0.1 0.2 0.1 0 0.1 0.1 0 0.1-0.1 0.2 0 0.1 0 0.1 0 0.1-0.1 0.1 0 0.1-0.1 0.1 0 0-0.1 0.1-0.2 0.1-0.4 0.1-0.2 0.1-0.4 0.1-0.2 0-0.4-0.1-0.2 0-0.4-0.1l-0.8-0.5c-0.7 0.4-1.3 0.8-2 1.1q-0.4 0.2-0.9 0.4c-0.7 0.4-1.3 0.8-2.1 1q-0.5 0.3-1.1 0.6-1 0.4-1.9 0.8-0.6 0.3-1.3 0.6-0.9 0.4-1.8 0.7l-1 0.4q0.1 0.2 0.3 0.5 0.1 0.2 0.3 0.5 0.2 0.2 0.4 0.4 0.1 0.3 0.3 0.5c0.2 0.3 0.1 0.6-0.2 0.8q0 0-0.1 0 0 0-0.1 0.1 0 0-0.1 0 0 0-0.1 0-0.1 0.1-0.3 0.1-0.2 0-0.3 0-0.2-0.1-0.4-0.1-0.1-0.1-0.3-0.1 0 0 0-0.1-0.1 0-0.1 0 0 0-0.1-0.1 0 0 0 0-0.7-0.9-1.3-1.8c-0.6 0.3-1.1 0.4-1.6 0.6-0.5 0.1-1.2 0.4-1.8 0.5-0.6 0.2-1 0.3-1.5 0.5l-1.8 0.5-1.5 0.4c-0.5 0.1-1 0.2-1.4 0.3 1.1 4.3 4.4 8.2 9.5 11.4l6.5-3.8q0.2-0.1 0.4-0.2 0.3 0 0.5 0 0.2 0 0.4 0 0.2 0.1 0.4 0.2 0.2 0 0.3 0.2 0.1 0.1 0.1 0.3 0 0.2-0.1 0.3-0.1 0.2-0.3 0.2l-6.5 3.8q2.3 1.2 4.7 2.1 2.4 1 4.9 1.6 2.4 0.7 5 1.2 2.5 0.4 5.1 0.6 0.3-0.5 0.7-1 0.1-0.2 0.3-0.3 0.2-0.1 0.4-0.1 0.2-0.1 0.4-0.1 0.2 0 0.4 0.1 0.1 0 0.1 0 0.1 0 0.1 0.1 0.1 0 0.1 0 0 0 0.1 0c0.3 0.2 0.4 0.5 0.2 0.8q0 0.1-0.1 0.1 0 0.1-0.1 0.2 0 0.1-0.1 0.2 0 0-0.1 0.1zm13.8 2.5l29.8-17.3-25.1-14.5-29.8 17.3 25 14.5zm-8.5-44.6q-3.2-0.2-6.5 0-3.2 0.2-6.4 0.8-3.2 0.5-6.3 1.4-3.1 1-6.1 2.2 2.6-0.2 5.2-0.3 2.6 0 5.2 0.1 2.6 0.1 5.2 0.4 2.6 0.3 5.1 0.7 0.1 0 0.1 0 0-0.1 0.1-0.1 0 0 0 0 0.1-0.1 0.1-0.1c0.3-0.3 0.5-0.5 0.8-0.8 0.2-0.3 0.6-0.7 0.9-1 0.3-0.3 0.5-0.6 0.8-0.8 0.2-0.3 0.5-0.7 0.8-1q0.1-0.1 0.1-0.2 0.1-0.1 0.2-0.2 0.1-0.2 0.2-0.3 0-0.1 0.1-0.2l0.4-0.6zm-36.5 22.1l1.7-0.4c0.5-0.2 1-0.3 1.5-0.5 0.4-0.1 1.1-0.3 1.7-0.5 0.6-0.2 1-0.3 1.4-0.5q0.1 0 0.1 0 0.1 0 0.1-0.1 0.1 0 0.1 0 0 0 0.1 0-0.8-1.4-1.3-2.8-0.5-1.5-0.7-3.1-0.2-1.5-0.1-3.1 0.1-1.5 0.5-3c-5.6 4.1-8.3 9.3-7.6 14.6l1-0.2 1.6-0.4zm48-10.2l-5.6-3.2-29.8 17.3 5.6 3.3 29.8-17.4zm-28 2.1l-12.1-7q-0.6 1.5-0.8 3.1-0.2 1.6-0.1 3.2 0.2 1.6 0.6 3.1 0.5 1.5 1.3 2.9c0.1-0.1 0.4-0.1 0.6-0.2 0.6-0.2 1.1-0.5 1.7-0.7q0.7-0.3 1.3-0.6l1.7-0.8c0.4-0.1 0.8-0.3 1.2-0.5 0.6-0.3 1.2-0.6 1.9-1l0.9-0.4c0.6-0.4 1.3-0.7 1.9-1zm-10.5-8q0 0 0.1 0h-0.1zm12.2 6.9q0.9-0.5 1.8-1l0.8-0.6c0.5-0.4 1.1-0.7 1.6-1.1 0.3-0.2 0.6-0.4 0.9-0.6q0.7-0.6 1.4-1c0.4-0.4 0.6-0.5 0.9-0.8 0.3-0.2 0.8-0.6 1.2-1 0.1-0.1 0.2-0.2 0.4-0.3q-2.6-0.5-5.3-0.7-2.6-0.3-5.3-0.4-2.6 0-5.3 0.1-2.6 0.1-5.2 0.5z"/>
										</g>
									</g>
								</g>
							</g>
						</g>
						<path id="Path_78418" class="s6" d="m146.3 90.9c0.5 0.3 0.5 0.7 0 1q-0.2 0.1-0.4 0.2-0.2 0-0.4 0-0.2 0-0.5 0-0.2-0.1-0.4-0.2-0.1 0-0.1-0.1-0.1 0-0.1-0.1-0.1-0.1-0.1-0.2 0-0.1 0-0.2 0-0.1 0.1-0.1 0-0.1 0-0.1 0.1 0 0.1-0.1 0.1 0 0.1 0 0.2-0.1 0.5-0.2 0.2 0 0.4 0 0.2 0 0.4 0 0.2 0.1 0.4 0.2"/>
					</g>
				</g>
			</g>
		</g>
		<g id="Group_40799">
			<g id="Clip-Path" clip-path="url(#cp6)">
				<g id="Layer">
					<g id="Group_40798">
						<path id="Path_78419" class="s7" d="m546.7 271.1l-61.7 35.9c-13.2 7.6-34.6 7.6-47.8 0l-62.2-35.9c-6.7-3.8-10-8.9-10-13.9v7.1c0 5 3.3 10.1 10 14l62.1 35.9c13.3 7.6 34.7 7.6 47.8 0l61.8-35.9c6.5-3.8 9.8-8.8 9.8-13.8v-7.1c0 5-3.3 9.9-9.8 13.7z"/>
						<path id="Path_78420" class="s5" d="m546.5 243.4c13.3 7.7 13.3 20 0.2 27.7l-61.7 35.9c-13.2 7.6-34.6 7.6-47.8 0l-62.2-35.9c-13.2-7.6-13.3-20-0.2-27.7l61.8-35.8c13.2-7.7 34.5-7.7 47.8 0z"/>
						<path id="Path_78421" class="s6" d="m501 265.2c0.5 0.3 0.5 0.7 0 1l-39.6 23q-0.2 0.1-0.4 0.1-0.2 0.1-0.4 0.1-0.2 0-0.4-0.1-0.2 0-0.4-0.1l-21.2-12.2c-0.5-0.3-0.4-0.7 0-1q0.2-0.1 0.4-0.2 0.2 0 0.4 0 0.2 0 0.5 0 0.2 0.1 0.4 0.2l20.3 11.7 38.7-22.5q0.2-0.1 0.4-0.1 0.2-0.1 0.4-0.1 0.2 0 0.4 0.1 0.2 0 0.4 0.1"/>
						<path id="Path_78422" class="s6" d="m413.8 254c0.5 0.3 0.5 0.7 0 1l-5 2.9 5.8 3.4q0.1 0 0.2 0.1 0.1 0 0.1 0.1 0.1 0.1 0.1 0.2 0 0.1 0 0.2-0.1 0-0.1 0.1 0 0-0.1 0.1 0 0-0.1 0.1 0 0-0.1 0-0.2 0.1-0.4 0.1-0.2 0.1-0.4 0.1-0.2 0-0.4-0.1-0.2 0-0.4-0.1l-6.7-3.9q-0.2 0-0.3-0.1-0.1-0.2-0.1-0.4 0-0.2 0.1-0.3 0.1-0.1 0.3-0.2l5.8-3.3q0.2-0.1 0.4-0.2 0.2 0 0.4 0 0.2 0 0.4 0 0.2 0.1 0.4 0.2"/>
						<path id="Path_78423" class="s3" d="m460.9 231.5q0 0 0.1 0.1 0.1 0 0.1 0.1 0 0.1 0.1 0.1 0 0.1 0 0.2 0 0 0 0.1-0.1 0.1-0.1 0.2 0 0-0.1 0.1-0.1 0-0.1 0-0.1 0.1-0.2 0.1-0.1 0.1-0.2 0.1-0.1 0-0.3 0-0.1 0.1-0.2 0-0.1 0-0.2 0-0.1 0-0.2 0-0.1 0-0.2-0.1-0.1 0-0.2 0-0.1-0.1-0.1-0.1-0.1-0.1-0.1-0.1-0.1-0.1-0.1-0.2 0 0 0-0.1c0-0.4 0.5-0.7 1.1-0.7q0.1 0 0.3 0 0.1 0 0.2 0 0.1 0.1 0.2 0.1 0.1 0 0.2 0.1"/>
						<path id="Path_78424" class="s3" d="m456.3 234.2q0.1 0 0.2 0 0.1 0.1 0.1 0.2 0 0.1 0.1 0.2 0 0.1-0.1 0.2 0 0 0 0.1-0.1 0-0.1 0.1 0 0-0.1 0.1 0 0-0.1 0-0.2 0.1-0.4 0.1-0.2 0.1-0.4 0.1-0.2 0-0.4-0.1-0.3 0-0.4-0.1-0.2 0-0.3-0.2-0.2-0.1-0.2-0.3 0-0.2 0.2-0.3 0.1-0.2 0.2-0.2 0.2-0.1 0.5-0.2 0.2 0 0.4 0 0.2 0 0.4 0 0.2 0.1 0.4 0.2"/>
						<path id="Path_78425" class="s6" d="m500.9 249.6c0.4 0.2 0.4 0.7 0 1q-0.2 0-0.4 0.1-0.3 0-0.5 0-0.2 0-0.4 0-0.2-0.1-0.4-0.1l-30.6-17.7-12.7 7.3q-0.2 0.1-0.4 0.1-0.2 0.1-0.4 0.1-0.2 0-0.5-0.1-0.2 0-0.4-0.1-0.1 0-0.1-0.1-0.1-0.1-0.2-0.2 0-0.1 0-0.2 0-0.1 0-0.2 0 0 0.1-0.1 0 0 0-0.1 0.1 0 0.1 0 0.1-0.1 0.1-0.1l12.7-7.3-6.7-3.9-20.1 11.7q-0.2 0.1-0.4 0.1-0.2 0.1-0.4 0.1-0.2 0-0.4-0.1-0.3 0-0.5-0.1 0 0-0.1-0.1-0.1-0.1-0.1-0.2-0.1-0.1-0.1-0.2 0-0.1 0-0.2 0 0 0.1-0.1 0 0 0-0.1 0.1 0 0.1 0 0.1-0.1 0.1-0.1l21-12.1q0.2-0.1 0.4-0.2 0.2 0 0.4 0 0.2 0 0.4 0 0.2 0.1 0.4 0.2l8.4 4.8z"/>
						<path id="Path_78426" class="s3" d="m451.8 236.8q0 0 0.1 0.1 0 0 0.1 0.1 0 0 0 0.1 0.1 0.1 0.1 0.2 0 0.2-0.4 0.4-0.1 0.1-0.2 0.1-0.1 0.1-0.2 0.1-0.1 0-0.2 0-0.1 0.1-0.2 0-0.1 0.1-0.2 0-0.1 0-0.2 0-0.1 0-0.2-0.1-0.1 0-0.2-0.1-0.1 0-0.1 0-0.1-0.1-0.1-0.1-0.1-0.1-0.1-0.2 0-0.1-0.1-0.1c0-0.4 0.6-0.7 1.2-0.7q0.1 0 0.2 0 0.1 0 0.2 0 0.2 0.1 0.3 0.1 0.1 0 0.2 0.1z"/>
						<path id="Path_78427" fill-rule="evenodd" class="s6" d="m463.4 259.2c-0.4 2.4-2.3 4.6-5 6.3q-1.2 0.6-2.5 1.1-1.3 0.6-2.7 0.9-1.4 0.4-2.7 0.6-1.4 0.2-2.8 0.3c-0.6 0-1.2 0-1.7 0.1q-1.6 0-3.3-0.2-1.6-0.2-3.1-0.5-1.6-0.4-3.1-1-1.6-0.6-3-1.3c-3.3-2-5.2-4.5-5.2-7.3 0-2.7 1.8-5.3 5.1-7.2q2.9-1.5 6.1-2.2 3.1-0.8 6.4-0.8 3.2 0 6.4 0.8 3.1 0.7 6 2.2c3.2 1.9 5.2 4.4 5.2 7.2q0 0.2 0 0.3 0 0.1 0 0.2 0 0.2 0 0.3 0 0.1 0 0.2m-28.5 5.4q1.1 0.6 2.4 1 1.2 0.5 2.4 0.8 1.3 0.4 2.6 0.6 1.3 0.1 2.6 0.2-0.1-0.1-0.2-0.2-0.1-0.1-0.2-0.2-0.1-0.1-0.2-0.2-0.1 0-0.2-0.1 0 0 0-0.1 0 0 0 0 0 0-0.1 0 0 0 0 0-0.1-0.1-0.2-0.2 0-0.1-0.1-0.2-0.1-0.1-0.1-0.2-0.1 0-0.2-0.1l-0.1-0.2q-0.1-0.1-0.1-0.2-0.1-0.1-0.1-0.1-0.1-0.1-0.1-0.2-0.1-0.1-0.1-0.2 0 0-0.1 0 0-0.1 0-0.1 0 0 0-0.1 0 0 0 0-0.1-0.1-0.1-0.2-0.1-0.1-0.1-0.2 0 0-0.1-0.1 0-0.1 0-0.2 0 0 0-0.1 0 0-0.1 0 0 0 0-0.1 0 0 0 0 0-0.1 0-0.2 0-0.1-0.1-0.1 0-0.1 0-0.2 0-0.1 0-0.2 0-0.1 0-0.2c0-0.1 0-0.4 0-0.7q0 0 0 0 0-0.1 0-0.1 0 0 0-0.1 0 0 0 0 0-0.1 0-0.2 0-0.1 0-0.2 0.1 0 0.1-0.1 0-0.1 0-0.2 0 0 0-0.1 0.1 0 0.1 0 0-0.1 0-0.1 0 0 0 0-0.5-0.1-1-0.2-0.6-0.1-1.1-0.3-0.5-0.2-1-0.4-0.5-0.2-0.9-0.4c-2.9-1.7-2.8-4 0-5.7q1.1-0.6 2.3-0.9 1.2-0.3 2.5-0.3 1.3 0 2.5 0.3 1.2 0.3 2.4 0.9 0.3 0.2 0.7 0.5 0.3 0.2 0.6 0.5 0.3 0.3 0.5 0.6 0.2 0.4 0.4 0.8l0.7-0.1h0.3c0.4 0 0.8-0.1 1.3-0.1 0.4 0 1 0 1.4 0h0.2c0.4 0 0.9 0 1.3 0.2h0.3q0.6 0 1.2 0.1l0.3 0.1 1 0.2 0.3 0.1 1.1 0.3 0.2 0.1q0.6 0.2 1.1 0.4c-0.2-2.3-1.9-4.3-4.5-5.8q-2.5-1.3-5.3-1.9-2.8-0.7-5.6-0.7-2.8 0-5.6 0.7-2.8 0.6-5.3 1.9c-2.9 1.7-4.5 3.9-4.5 6.3 0 2.4 1.6 4.6 4.6 6.3zm12.8 2.5q1 0 2.1-0.2 1-0.1 2.1-0.4 1-0.3 2-0.6 1-0.4 2-0.8l-5.6-3.2c-0.4-0.3-0.4-0.7 0-0.9q0.2-0.1 0.4-0.2 0.2 0 0.4 0 0.2 0 0.4 0 0.2 0.1 0.4 0.2l5.5 3.2q0.7-0.4 1.2-0.9 0.6-0.5 1.1-1.1 0.4-0.7 0.8-1.3 0.3-0.7 0.5-1.5l-0.1-0.1q-0.6-0.3-1-0.5h-0.1q-0.6-0.2-1.1-0.4h-0.2q-0.6-0.2-1.2-0.4 0 0 0 0-0.1 0-0.1 0 0 0 0 0 0 0-0.1 0-0.1 0-0.3 0-0.1-0.1-0.3-0.1-0.1 0-0.3-0.1-0.1 0-0.3 0h-0.2q-0.7-0.1-1.3-0.1h-0.2q-0.2 0-0.3 0-0.2 0-0.4 0-0.1 0-0.3 0-0.1 0-0.3 0h-0.2c-0.5 0-0.9 0-1.3 0h-0.2l-0.7 0.2q-0.1 0.3-0.3 0.6-0.2 0.4-0.4 0.7-0.2 0.3-0.5 0.5-0.3 0.2-0.7 0.4-0.4 0.2-0.9 0.4-0.4 0.2-0.9 0.4-0.5 0.1-1 0.2-0.5 0-1 0.1 0 0-0.1 0.1 0 0 0 0.1 0 0-0.1 0.1 0 0 0 0.1c0 0.1-0.1 0.3-0.1 0.4 0 0.2 0 0.3 0 0.4 0 0.2 0 0.8 0 0.9 0 0.1 0 0.3 0.1 0.5q0 0 0 0.1 0 0 0 0.1 0.1 0 0.1 0.1 0 0 0 0.1 0 0 0.1 0.1 0 0 0 0.1 0.1 0.1 0.1 0.1 0 0.1 0.1 0.1 0.1 0.2 0.2 0.4 0 0.1 0.1 0.1 0 0.1 0 0.1 0.1 0.1 0.1 0.2 0.1 0 0.1 0.1 0.1 0 0.1 0 0 0.1 0.1 0.1 0 0.1 0 0.1 0.1 0.1 0.1 0.1 0.3 0.2 0.5 0.5c0.2 0.1 0.2 0.1 0.3 0.2q0.1 0.1 0.2 0.2 0.1 0.1 0.2 0.1 0.2 0.1 0.3 0.2 0.1 0.1 0.2 0.1l0.2 0.1zm-0.6-8q0 0 0 0 0 0 0 0zm-0.5-4.1q-0.7-0.4-1.6-0.6-0.8-0.2-1.7-0.2-0.8 0-1.7 0.2-0.8 0.2-1.6 0.6c-2 1.1-2 2.7 0 3.8q0.8 0.5 1.7 0.7 0.9 0.3 1.8 0.3 1 0 1.9-0.1 0.8-0.2 1.7-0.6c1.8-1.1 1.6-2.9-0.5-4.1z"/>
						<path id="Path_78428" fill-rule="evenodd" class="s6" d="m511.8 257.9c0 1.2-0.8 2.4-2.3 3.3q-0.7 0.4-1.4 0.6-0.7 0.3-1.4 0.5-0.8 0.1-1.5 0.2-0.7 0.1-1.5 0.1h-23.4q-0.1 0-0.2 0-0.1 0-0.2-0.1-0.1 0-0.2 0-0.1-0.1-0.2-0.1-0.1 0-0.1-0.1-0.1 0-0.1-0.1-0.1-0.1-0.1-0.1 0-0.1 0-0.2v-1h-6.6c-1 3.3-3.7 6.2-7.6 8.4-5 3-12.1 4.8-19.8 4.8-7.7 0-14.7-1.8-19.8-4.8-5-2.9-8.2-7-8.2-11.4-0.1-9 12.4-16.2 27.9-16.2 7.7 0 14.7 1.8 19.7 4.7 3.9 2.3 6.7 5.2 7.8 8.4h6.5v-1c0-0.3 0.6-0.6 1.2-0.6h23.4q0.7-0.1 1.5 0 0.7 0.1 1.5 0.3 0.7 0.1 1.4 0.4 0.7 0.3 1.4 0.6c1.5 0.9 2.4 2.1 2.4 3.4m-66.7 14.8c14.1 0 25.6-6.7 25.5-14.9 0-4.1-2.9-7.8-7.5-10.5q-2.1-1.1-4.3-1.9-2.2-0.8-4.5-1.4-2.3-0.5-4.7-0.8-2.3-0.2-4.7-0.2c-7.1 0-13.5 1.7-18.1 4.4-4.6 2.6-7.5 6.4-7.5 10.5 0.1 4.1 3 7.8 7.6 10.5q2.1 1.1 4.3 1.9 2.2 0.8 4.5 1.4 2.3 0.6 4.6 0.8 2.4 0.3 4.7 0.2zm58.5-11.4c3.2 0 5.8-1.6 5.8-3.4q0-0.4-0.1-0.8-0.2-0.3-0.4-0.6-0.2-0.3-0.5-0.6-0.3-0.2-0.7-0.4-0.5-0.3-1-0.4-0.5-0.2-1-0.4-0.5-0.1-1-0.2-0.6 0-1.1 0h-14v6.7h14zm-16.4 0v-6.7h-5.8l0.1 6.7zm-14.3-1.7h6.1v-3.3h-6.1q0.1 0.4 0.1 0.8 0.1 0.4 0.1 0.9 0 0.4-0.1 0.8 0 0.4-0.1 0.8z"/>
					</g>
				</g>
			</g>
		</g>
		<g id="Group_40801">
			<g id="Clip-Path" clip-path="url(#cp7)">
				<g id="Layer">
					<g id="Group_40800">
						<path id="Path_78429" class="s3" d="m846.1 120.1l-61.8 35.9c-13.1 7.7-34.5 7.7-47.7 0l-62.2-35.9c-6.7-3.8-10-8.9-10-13.9v7.1c0 5 3.3 10.1 10 13.9l62.1 35.9c13.3 7.7 34.7 7.7 47.8 0l61.8-35.9c6.5-3.8 9.8-8.7 9.8-13.7v-7.2c0 5-3.3 10.1-9.8 13.8"/>
						<path id="Path_78430-2" class="s5" d="m846 92.4c13.2 7.7 13.3 20 0.1 27.7l-61.7 35.9c-13.2 7.7-34.6 7.7-47.8 0l-62.2-35.9c-13.2-7.7-13.3-20-0.1-27.7l61.7-35.9c13.1-7.6 34.5-7.6 47.8 0z"/>
						<path id="Path_78431" class="s6" d="m765.9 129.2q0.1 0 0.2 0.1 0.1 0.1 0.2 0.2 0 0.1 0 0.3 0.1 0.1 0 0.2 0 0.1-0.1 0.1 0 0.1 0 0.1-0.1 0.1-0.2 0.1 0 0.1-0.1 0.1-0.2 0.1-0.5 0.2-0.2 0-0.5 0-0.2 0-0.5 0-0.2-0.1-0.5-0.2c-0.6-0.4-0.6-0.9 0-1.2q0.3-0.1 0.5-0.2 0.3 0 0.5 0 0.3 0 0.6 0 0.2 0.1 0.5 0.2"/>
						<path id="Path_78432" class="s6" d="m772.1 128.2c1.4 0.8 1.5 2.2 0 3l-2.4 1.4q-0.2 0.1-0.4 0.1-0.2 0.1-0.4 0.1-0.2 0-0.5-0.1-0.2 0-0.4-0.1c-0.4-0.3-0.4-0.8 0-1l2.4-1.4c0.5-0.3 0.5-0.8 0-1.1l-19.5-11.2q-0.2-0.1-0.4-0.2-0.3 0-0.5 0-0.3 0-0.5 0-0.2 0.1-0.4 0.2l-4.8 2.8q-0.1 0-0.2 0.1 0 0-0.1 0.1 0 0.1 0 0.3 0 0.1 0 0.2 0 0 0.1 0.1 0 0 0 0.1 0.1 0 0.1 0.1 0.1 0 0.1 0l17.3 10q0.1 0 0.2 0.1 0.1 0.1 0.1 0.2 0.1 0.1 0.1 0.2 0 0.1-0.1 0.2 0 0 0 0.1 0 0-0.1 0.1 0 0-0.1 0 0 0.1-0.1 0.1-0.2 0.1-0.4 0.1-0.2 0.1-0.4 0.1-0.3 0-0.5-0.1-0.2 0-0.4-0.1l-17.3-10c-1.4-0.8-1.4-2.2 0-3l4.8-2.8q0.6-0.3 1.2-0.4 0.7-0.2 1.4-0.2 0.7 0 1.3 0.2 0.7 0.1 1.3 0.4z"/>
						<path id="Path_78433" class="s6" d="m797.8 115.3q0.1 0 0.2 0.1 0.1 0 0.1 0.1 0.1 0.1 0.1 0.2 0 0.1 0 0.2-0.1 0.1-0.1 0.1 0 0.1-0.1 0.1 0 0.1-0.1 0.1 0 0-0.1 0l-13.5 7.9q-0.2 0.1-0.4 0.2-0.2 0-0.5 0-0.2 0-0.4 0-0.2-0.1-0.4-0.2-0.2 0-0.3-0.2-0.1-0.1-0.1-0.3 0-0.2 0.1-0.3 0.1-0.1 0.3-0.2l13.5-7.8q0.2-0.2 0.4-0.2 0.3-0.1 0.5-0.1 0.2 0 0.4 0.1 0.2 0 0.4 0.2"/>
						<path id="Path_78434" class="s6" d="m796.8 94.9q0.5 0.2 0.9 0.6 0.3 0.3 0.6 0.7 0.3 0.4 0.5 0.8 0.2 0.5 0.3 1 0.5 0 1 0.1 0.5 0.1 1 0.3 0.5 0.2 1 0.4 0.4 0.2 0.9 0.4c2.2 1.3 2.8 3.2 1.7 4.8q0.2 0.1 0.5 0.2 0.2 0.1 0.5 0.2 0.2 0.1 0.5 0.2 0.2 0.1 0.4 0.2c2.9 1.7 3.1 4.2 0.6 6q-0.1 0.1-0.1 0.1-0.1 0-0.1 0.1 0 0-0.1 0 0 0-0.1 0.1l-2.7 1.6q-0.2 0.1-0.4 0.1-0.3 0.1-0.5 0.1-0.2 0-0.4-0.1-0.2 0-0.4-0.1c-0.5-0.3-0.5-0.8 0-1l2.8-1.7q0 0 0 0 0 0 0 0 0 0 0.1 0 0 0 0-0.1c1.8-1.2 1.6-3-0.3-4.1q-0.3-0.1-0.6-0.2-0.3-0.1-0.5-0.2-0.3-0.1-0.6-0.2-0.3-0.1-0.6-0.1-0.1 0-0.1 0-0.1-0.1-0.2-0.1 0 0-0.1 0-0.1-0.1-0.1-0.1-0.1 0-0.1 0 0-0.1-0.1-0.1 0 0 0-0.1-0.1 0-0.1 0-0.1-0.1-0.1-0.2 0-0.1 0-0.2 0-0.1 0.1-0.2 0 0 0.1-0.1c1.3-1.2 1-2.8-0.7-3.8q-0.4-0.2-0.8-0.4-0.5-0.1-0.9-0.3-0.5-0.1-0.9-0.1-0.5-0.1-0.9-0.1-0.2 0-0.3 0-0.1 0-0.2 0-0.1-0.1-0.2-0.1-0.1 0-0.2-0.1-0.4-0.3-0.3-0.6c0.2-1-0.3-1.9-1.5-2.6q-0.6-0.3-1.2-0.5-0.6-0.2-1.2-0.3-0.6 0-1.3 0.1-0.6 0.1-1.2 0.3-0.2 0.1-0.4 0.1-0.2 0.1-0.4 0.1-0.2 0-0.5-0.1-0.2 0-0.4-0.1c-0.4-0.3-0.4-0.7 0-1 0.5-0.3 0.9-1.5-1.5-2.9q-0.7-0.4-1.4-0.6-0.8-0.2-1.6-0.2-0.8 0-1.6 0.1-0.7 0.1-1.5 0.4l-14 8.2q-0.1 0-0.2 0.1-0.1 0-0.2 0-0.2 0.1-0.3 0.1-0.1 0-0.3 0-0.1 0-0.1-0.1-0.1 0-0.2 0-0.1 0-0.2-0.1-0.1 0-0.2 0 0-0.1 0-0.1 0 0-0.1 0 0 0 0 0 0-0.1-0.1-0.1-0.6-0.6-1.2-1.2-0.7-0.5-1.4-1-0.6-0.6-1.4-1-0.7-0.5-1.4-0.9-1-0.6-2.1-1.1c-4.9-2.4-10.4-3.1-13-1.7q-0.4 0.1-0.7 0.4-0.4 0.2-0.7 0.4-0.3 0.2-0.7 0.5-0.3 0.2-0.6 0.5 0.9 0.4 1.9 0.8 0.9 0.3 1.8 0.8 0.9 0.4 1.8 0.8 0.9 0.5 1.8 1 0.3 0.1 0.5 0.3 0.3 0.1 0.6 0.3 0.2 0.2 0.5 0.4 0.2 0.2 0.4 0.4c2.4 2.7 3 6.1 3.6 9.1 0.4 2.4 0.8 4.7 2.1 5.4l18 10.4q0.1 0 0.2 0.2 0.1 0.1 0.1 0.3 0 0.1-0.1 0.3-0.1 0.1-0.2 0.2-0.2 0.1-0.5 0.1-0.2 0.1-0.4 0.1-0.2 0-0.4-0.1-0.3 0-0.5-0.1l-17.8-10.4c-1.9-1.1-2.3-3.4-2.8-6.3-0.6-2.9-1.2-6.1-3.4-8.5q-0.1-0.2-0.3-0.3-0.2-0.2-0.4-0.3-0.2-0.2-0.4-0.3-0.2-0.1-0.4-0.2-0.9-0.5-1.9-1-0.9-0.5-1.9-0.9-1-0.5-2-0.9-1-0.4-2-0.8 0 0-0.1 0 0 0 0 0 0-0.1-0.1-0.1 0 0 0 0-0.1 0-0.2-0.1 0-0.1-0.1-0.2 0-0.1-0.1-0.2 0-0.1 0.1-0.2c0-0.1 0.6-1.2 3.7-2.9 3.5-1.9 10.2-1.2 16.2 1.7q1.2 0.6 2.2 1.2 0.7 0.4 1.3 0.8 0.7 0.4 1.3 0.9 0.7 0.4 1.3 0.9 0.6 0.5 1.2 1l12.9-7.5c2.4-1.3 6.8-1.2 9.4 0.3 1.8 1 2.5 2.2 2.6 3.1q0.7 0 1.4 0 0.7 0 1.4 0.2 0.7 0.1 1.4 0.4 0.7 0.2 1.3 0.6"/>
						<path id="Path_78435" class="s6" d="m775.1 88.3c0.5 0.3 0.5 0.7 0 1q-0.2 0.1-0.4 0.2-0.2 0-0.4 0-0.2 0-0.4 0-0.3-0.1-0.5-0.2l-11.5-6.7q-1.5-0.7-3.1-1.1-1.5-0.4-3.2-0.4-1.6 0-3.2 0.4-1.5 0.4-3 1.1l-35.1 20.4c-3.5 2.1-3.5 5.3 0 7.3l33.1 19.1q0.1 0 0.2 0.1 0 0 0.1 0.1 0 0.1 0 0.2 0 0.1 0 0.2 0 0.1 0 0.2-0.1 0-0.1 0-0.1 0.1-0.1 0.1-0.1 0.1-0.1 0.1-0.2 0.1-0.4 0.1-0.3 0.1-0.5 0.1-0.2 0-0.4-0.1-0.2 0-0.4-0.1l-33.1-19.1c-4.4-2.6-4.5-6.7 0-9.2l35.1-20.5c4.4-2.5 11.5-2.5 15.9 0z"/>
					</g>
				</g>
			</g>
		</g>
	</g>
	<path id="Path_78063" fill-rule="evenodd" class="s3" d="m678.8 35.1q0.2 0.8 0.4 1.5 0.2 0.8 0.3 1.6 0.1 0.7 0.2 1.5 0.1 0.8 0.1 1.6 0 0.9-0.1 1.8-0.1 0.9-0.2 1.9-0.1 0.9-0.3 1.8-0.1 0.9-0.4 1.8-0.2 0.8-0.5 1.7-0.2 0.9-0.6 1.7-0.3 0.9-0.7 1.7-0.3 0.9-0.7 1.7-0.4 0.7-0.9 1.5-0.4 0.7-0.9 1.5-0.5 0.7-1.1 1.4-0.5 0.7-1.1 1.3-0.5 0.6-1.1 1.2-0.6 0.6-1.2 1.1-0.6 0.5-1.3 0.9-0.6 0.5-1.3 0.9-0.6 0.4-1.2 0.7-0.6 0.2-1.2 0.4-0.6 0.2-1.3 0.4-0.6 0.1-1.3 0.1-0.5 0.1-1.1 0-0.5-0.1-1-0.2-0.5-0.2-1-0.4-0.4-0.3-0.8-0.6-0.5-0.4-0.9-0.8-0.4-0.4-0.7-0.9-0.3-0.5-0.6-1-0.3-0.5-0.5-1.1-0.2-0.7-0.4-1.5-0.2-0.8-0.3-1.5-0.2-0.8-0.2-1.6-0.1-0.8-0.1-1.6 0-0.9 0.1-1.8 0-0.9 0.2-1.8 0.1-0.9 0.2-1.8 0.2-0.9 0.5-1.8 0.2-0.9 0.5-1.8 0.2-0.8 0.6-1.7 0.3-0.8 0.7-1.7 0.3-0.8 0.7-1.6 0.4-0.8 0.9-1.6 0.4-0.7 0.9-1.4 0.5-0.8 1-1.4 0.6-0.7 1.2-1.4 0.5-0.6 1.1-1.2 0.6-0.6 1.2-1.1 0.6-0.5 1.3-1 0.6-0.4 1.4-0.8 0.5-0.4 1.1-0.7 0.6-0.2 1.2-0.4 0.6-0.2 1.3-0.3 0.6-0.2 1.3-0.2 0.5 0 1 0 0.6 0.1 1.1 0.3 0.5 0.1 1 0.4 0.5 0.2 0.9 0.5 0.4 0.4 0.8 0.8 0.4 0.5 0.7 0.9 0.4 0.5 0.6 1.1 0.3 0.5 0.5 1m-6 14.3q0.1-0.6 0.2-1.1 0.1-0.5 0.1-1.1 0.1-0.5 0.1-1.1 0-0.5 0-1 0-0.5 0-1 0-0.5-0.1-1 0-0.4-0.1-0.9-0.1-0.5-0.2-1-0.1-0.3-0.2-0.6-0.1-0.3-0.3-0.7-0.2-0.3-0.4-0.6-0.1-0.3-0.4-0.5-0.1-0.2-0.4-0.4-0.2-0.2-0.4-0.3-0.3-0.1-0.5-0.2-0.3-0.1-0.6-0.1-0.3 0-0.6 0-0.3 0-0.6 0.1-0.3 0.1-0.6 0.2-0.3 0.2-0.5 0.3-0.4 0.2-0.7 0.5-0.3 0.2-0.6 0.5-0.4 0.2-0.6 0.5-0.3 0.3-0.6 0.6-0.2 0.4-0.5 0.8-0.3 0.4-0.5 0.8-0.2 0.4-0.4 0.8-0.2 0.4-0.4 0.8-0.2 0.5-0.4 1-0.2 0.4-0.3 0.9-0.2 0.5-0.3 1-0.1 0.5-0.2 1-0.1 0.5-0.2 1.1-0.1 0.5-0.1 1.1-0.1 0.5-0.1 1 0 0.6 0 1.1 0 0.5 0 1 0 0.5 0.1 0.9 0 0.5 0.1 1 0.1 0.4 0.2 0.9 0.1 0.3 0.2 0.7 0.1 0.3 0.3 0.6 0.1 0.3 0.3 0.6 0.2 0.3 0.4 0.5 0.2 0.3 0.4 0.4 0.2 0.2 0.4 0.3 0.3 0.2 0.5 0.2 0.3 0.1 0.6 0.1 0.3 0.1 0.6 0 0.3 0 0.6-0.1 0.4-0.1 0.6-0.2 0.3-0.2 0.6-0.3 0.4-0.2 0.7-0.5 0.3-0.2 0.6-0.5 0.3-0.2 0.6-0.5 0.2-0.3 0.5-0.6 0.3-0.4 0.5-0.8 0.3-0.3 0.5-0.7 0.3-0.4 0.5-0.8 0.2-0.4 0.4-0.9 0.2-0.4 0.3-0.9 0.2-0.5 0.4-1 0.1-0.4 0.3-0.9 0.1-0.5 0.2-1z"/>
</svg>